<svg xmlns="http://www.w3.org/2000/svg" width="151.212" height="67.578" viewBox="0 0 151.212 67.578">
  <g id="그룹_444" data-name="그룹 444" transform="translate(-638.222 -528.47)">
    <g id="그룹_24" data-name="그룹 24" transform="translate(638.222 570.612)">
      <g id="그룹_23" data-name="그룹 23" transform="translate(0 0)">
        <g id="금융보안캠프" style="isolation: isolate">
          <g id="그룹_26" data-name="그룹 26" style="isolation: isolate">
            <path id="패스_57" data-name="패스 57" d="M661.859,672.922v3.744H638.222v-3.744Zm-6.992-1.492.38-4.33H639.977v-3.744h20.332l-.677,8.074Zm5.266,16.88H639.977v-9.917h20.156Zm-15.417-3.744h10.678v-2.428H644.717Z" transform="translate(-638.222 -663.005)" fill="#fff"/>
            <path id="패스_58" data-name="패스 58" d="M737.331,677.2v2.077a3.69,3.69,0,0,1,1.946,1.55,4.647,4.647,0,0,1,.629,2.428,4.31,4.31,0,0,1-.351,1.741,4.2,4.2,0,0,1-1,1.4,4.742,4.742,0,0,1-1.565.951,6.3,6.3,0,0,1-2.092.38q-5.588.146-11.175,0a6.3,6.3,0,0,1-2.092-.38,4.744,4.744,0,0,1-1.565-.951,4.192,4.192,0,0,1-.995-1.4,4.3,4.3,0,0,1-.351-1.741,4.542,4.542,0,0,1,.643-2.443,3.784,3.784,0,0,1,1.989-1.536V677.2h-3.832v-3.8h23.637v3.8Zm-18.518-9.8a4.551,4.551,0,0,1,.658-2.6,4.408,4.408,0,0,1,1.667-1.477,6.872,6.872,0,0,1,2.209-.673,17.465,17.465,0,0,1,2.311-.161q1.257-.028,2.062-.044t1.522-.015q.716,0,1.521.015t2.063.044a22.215,22.215,0,0,1,2.3.19,6.891,6.891,0,0,1,2.224.673,4.576,4.576,0,0,1,1.682,1.463,4.409,4.409,0,0,1,.673,2.589,4.478,4.478,0,0,1-.673,2.6,4.4,4.4,0,0,1-1.682,1.463,7.075,7.075,0,0,1-2.209.658,21.383,21.383,0,0,1-2.282.19q-1.17.029-1.975.044t-1.55.015q-.746,0-1.58-.015t-2.091-.044a21.611,21.611,0,0,1-2.341-.19,7.068,7.068,0,0,1-2.209-.658A4.18,4.18,0,0,1,719.457,670,4.631,4.631,0,0,1,718.813,667.4Zm15.066,16.821a1.427,1.427,0,0,0,1.082-.336,1.029,1.029,0,0,0,.234-.629,1.009,1.009,0,0,0-.234-.644,1.552,1.552,0,0,0-1.082-.351q-1.258-.029-2.37-.044t-2.194-.014q-1.083,0-2.194.014t-2.37.044a1.55,1.55,0,0,0-1.082.351,1,1,0,0,0-.234.644,1.025,1.025,0,0,0,.234.629q.234.307,1.082.336,1.257.029,2.37.044t2.194.015q1.082,0,2.194-.015T733.879,684.222ZM723.465,667.4a.888.888,0,0,0,.249.658,1.484,1.484,0,0,0,.673.365,5.242,5.242,0,0,0,.995.161q.57.044,1.185.073.79.03,1.419.044t1.229.015q.6,0,1.243-.015t1.492-.044q.614,0,1.17-.044a4.519,4.519,0,0,0,.98-.176,1.609,1.609,0,0,0,.673-.38.995.995,0,0,0,0-1.316,1.608,1.608,0,0,0-.687-.38,4.8,4.8,0,0,0-.995-.176q-.556-.043-1.17-.044-.79-.028-1.4-.044t-1.2-.014q-.586,0-1.243.014t-1.506.044q-.615.03-1.185.073a5.317,5.317,0,0,0-.995.161,1.493,1.493,0,0,0-.673.366A.889.889,0,0,0,723.465,667.4Zm3.218,11.409q2.633-.059,5.324,0V677.2h-5.324Z" transform="translate(-692.543 -662.369)" fill="#fff"/>
            <path id="패스_59" data-name="패스 59" d="M806.19,683.468V679.49h-7.635V663.078h4.739v5.236h10.678v-5.236h4.739V679.49h-7.782v3.978h9.508V687.5H796.829v-4.037Zm-2.9-8.016h10.678v-3.1H803.294Z" transform="translate(-746.864 -662.815)" fill="#fff"/>
            <path id="패스_60" data-name="패스 60" d="M877.14,672.042q.028-.555.073-1.214t.1-1.316q.058-.658.131-1.272t.161-1.112a4.654,4.654,0,0,1,.834-2.077,6.014,6.014,0,0,1,1.638-1.536,7.6,7.6,0,0,1,2.238-.951,10.7,10.7,0,0,1,2.662-.322,9.466,9.466,0,0,1,2.589.336,6.086,6.086,0,0,1,2.033.98,4.441,4.441,0,0,1,1.316,1.594,4.557,4.557,0,0,1,.439,2.15q0,.527-.059,1.185t-.132,1.346q-.073.688-.161,1.331t-.176,1.17a4.311,4.311,0,0,1-.8,1.975,4.834,4.834,0,0,1-1.624,1.36,8.166,8.166,0,0,1-2.253.776,13.716,13.716,0,0,1-2.662.249,10.775,10.775,0,0,1-2.589-.293,6.134,6.134,0,0,1-2.033-.877,4.1,4.1,0,0,1-1.316-1.463A3.793,3.793,0,0,1,877.14,672.042Zm22.613,11.5v4.037H878.865v-9.127H883.6v5.09ZM882.169,668q-.029.174-.073.539t-.087.772q-.044.408-.073.83t-.058.714a1.839,1.839,0,0,0,.364,1.413,2.249,2.249,0,0,0,1.643.451,3.177,3.177,0,0,0,1.614-.364,1.862,1.862,0,0,0,.829-1.3c.038-.194.082-.427.131-.7s.087-.548.116-.83.053-.548.073-.8.029-.466.029-.641q0-1.805-2.035-1.805a3.126,3.126,0,0,0-1.657.393A1.859,1.859,0,0,0,882.169,668Zm20.011,4.717h-3.218v6.846h-4.739V662.476h4.739v6.2h3.218Z" transform="translate(-801.87 -662.242)" fill="#fff"/>
            <path id="패스_61" data-name="패스 61" d="M961.287,663.078h11.76l-1.96,13.515h-4.944l.439-3.13h-5.295v-4.037h5.851l.322-2.311h-6.172Zm22.906,25.071H962.545v-10h21.648Zm-16.909-5.968v1.931h12.17v-1.931Zm10.824-14.51h1.638v-4.593h4.447v13.808h-4.447v-5.3h-1.638v5.3h-4.447V663.078h4.447Z" transform="translate(-859.513 -662.815)" fill="#fff"/>
            <path id="패스_62" data-name="패스 62" d="M1066.891,683.468V687.5h-23.608v-4.037Zm-21.882-16.353v-4.037h20.127v4.037Zm2.984,8.366.614-6.992h4.593l-.614,6.992h4.768l.615-6.992h4.593l-.614,6.992h3.189v4.037h-20.127v-4.037Z" transform="translate(-915.678 -662.815)" fill="#fff"/>
          </g>
        </g>
        <g id="금융보안캠프-2" style="isolation: isolate">
          <g id="그룹_27" data-name="그룹 27" style="isolation: isolate">
            <path id="패스_63" data-name="패스 63" d="M661.859,672.922v3.744H638.222v-3.744Zm-6.992-1.492.38-4.33H639.977v-3.744h20.332l-.677,8.074Zm5.266,16.88H639.977v-9.917h20.156Zm-15.417-3.744h10.678v-2.428H644.717Z" transform="translate(-638.222 -663.005)" fill="#fff"/>
            <path id="패스_64" data-name="패스 64" d="M737.331,677.2v2.077a3.69,3.69,0,0,1,1.946,1.55,4.647,4.647,0,0,1,.629,2.428,4.31,4.31,0,0,1-.351,1.741,4.2,4.2,0,0,1-1,1.4,4.742,4.742,0,0,1-1.565.951,6.3,6.3,0,0,1-2.092.38q-5.588.146-11.175,0a6.3,6.3,0,0,1-2.092-.38,4.744,4.744,0,0,1-1.565-.951,4.192,4.192,0,0,1-.995-1.4,4.3,4.3,0,0,1-.351-1.741,4.542,4.542,0,0,1,.643-2.443,3.784,3.784,0,0,1,1.989-1.536V677.2h-3.832v-3.8h23.637v3.8Zm-18.518-9.8a4.551,4.551,0,0,1,.658-2.6,4.408,4.408,0,0,1,1.667-1.477,6.872,6.872,0,0,1,2.209-.673,17.465,17.465,0,0,1,2.311-.161q1.257-.028,2.062-.044t1.522-.015q.716,0,1.521.015t2.063.044a22.215,22.215,0,0,1,2.3.19,6.891,6.891,0,0,1,2.224.673,4.576,4.576,0,0,1,1.682,1.463,4.409,4.409,0,0,1,.673,2.589,4.478,4.478,0,0,1-.673,2.6,4.4,4.4,0,0,1-1.682,1.463,7.075,7.075,0,0,1-2.209.658,21.383,21.383,0,0,1-2.282.19q-1.17.029-1.975.044t-1.55.015q-.746,0-1.58-.015t-2.091-.044a21.611,21.611,0,0,1-2.341-.19,7.068,7.068,0,0,1-2.209-.658A4.18,4.18,0,0,1,719.457,670,4.631,4.631,0,0,1,718.813,667.4Zm15.066,16.821a1.427,1.427,0,0,0,1.082-.336,1.029,1.029,0,0,0,.234-.629,1.009,1.009,0,0,0-.234-.644,1.552,1.552,0,0,0-1.082-.351q-1.258-.029-2.37-.044t-2.194-.014q-1.083,0-2.194.014t-2.37.044a1.55,1.55,0,0,0-1.082.351,1,1,0,0,0-.234.644,1.025,1.025,0,0,0,.234.629q.234.307,1.082.336,1.257.029,2.37.044t2.194.015q1.082,0,2.194-.015T733.879,684.222ZM723.465,667.4a.888.888,0,0,0,.249.658,1.484,1.484,0,0,0,.673.365,5.242,5.242,0,0,0,.995.161q.57.044,1.185.073.79.03,1.419.044t1.229.015q.6,0,1.243-.015t1.492-.044q.614,0,1.17-.044a4.519,4.519,0,0,0,.98-.176,1.609,1.609,0,0,0,.673-.38.995.995,0,0,0,0-1.316,1.608,1.608,0,0,0-.687-.38,4.8,4.8,0,0,0-.995-.176q-.556-.043-1.17-.044-.79-.028-1.4-.044t-1.2-.014q-.586,0-1.243.014t-1.506.044q-.615.03-1.185.073a5.317,5.317,0,0,0-.995.161,1.493,1.493,0,0,0-.673.366A.889.889,0,0,0,723.465,667.4Zm3.218,11.409q2.633-.059,5.324,0V677.2h-5.324Z" transform="translate(-692.543 -662.369)" fill="#fff"/>
            <path id="패스_65" data-name="패스 65" d="M806.19,683.468V679.49h-7.635V663.078h4.739v5.236h10.678v-5.236h4.739V679.49h-7.782v3.978h9.508V687.5H796.829v-4.037Zm-2.9-8.016h10.678v-3.1H803.294Z" transform="translate(-746.864 -662.815)" fill="#fff"/>
            <path id="패스_66" data-name="패스 66" d="M877.14,672.042q.028-.555.073-1.214t.1-1.316q.058-.658.131-1.272t.161-1.112a4.654,4.654,0,0,1,.834-2.077,6.014,6.014,0,0,1,1.638-1.536,7.6,7.6,0,0,1,2.238-.951,10.7,10.7,0,0,1,2.662-.322,9.466,9.466,0,0,1,2.589.336,6.086,6.086,0,0,1,2.033.98,4.441,4.441,0,0,1,1.316,1.594,4.557,4.557,0,0,1,.439,2.15q0,.527-.059,1.185t-.132,1.346q-.073.688-.161,1.331t-.176,1.17a4.311,4.311,0,0,1-.8,1.975,4.834,4.834,0,0,1-1.624,1.36,8.166,8.166,0,0,1-2.253.776,13.716,13.716,0,0,1-2.662.249,10.775,10.775,0,0,1-2.589-.293,6.134,6.134,0,0,1-2.033-.877,4.1,4.1,0,0,1-1.316-1.463A3.793,3.793,0,0,1,877.14,672.042Zm22.613,11.5v4.037H878.865v-9.127H883.6v5.09ZM882.169,668q-.029.174-.073.539t-.087.772q-.044.408-.073.83t-.058.714a1.839,1.839,0,0,0,.364,1.413,2.249,2.249,0,0,0,1.643.451,3.177,3.177,0,0,0,1.614-.364,1.862,1.862,0,0,0,.829-1.3c.038-.194.082-.427.131-.7s.087-.548.116-.83.053-.548.073-.8.029-.466.029-.641q0-1.805-2.035-1.805a3.126,3.126,0,0,0-1.657.393A1.859,1.859,0,0,0,882.169,668Zm20.011,4.717h-3.218v6.846h-4.739V662.476h4.739v6.2h3.218Z" transform="translate(-801.87 -662.242)" fill="#fff"/>
            <path id="패스_67" data-name="패스 67" d="M961.287,663.078h11.76l-1.96,13.515h-4.944l.439-3.13h-5.295v-4.037h5.851l.322-2.311h-6.172Zm22.906,25.071H962.545v-10h21.648Zm-16.909-5.968v1.931h12.17v-1.931Zm10.824-14.51h1.638v-4.593h4.447v13.808h-4.447v-5.3h-1.638v5.3h-4.447V663.078h4.447Z" transform="translate(-859.513 -662.815)" fill="#fff"/>
            <path id="패스_68" data-name="패스 68" d="M1066.891,683.468V687.5h-23.608v-4.037Zm-21.882-16.353v-4.037h20.127v4.037Zm2.984,8.366.614-6.992h4.593l-.614,6.992h4.768l.615-6.992h4.593l-.614,6.992h3.189v4.037h-20.127v-4.037Z" transform="translate(-915.678 -662.815)" fill="#fff"/>
          </g>
        </g>
      </g>
    </g>
    <g id="_2020_대학생" data-name=" 2020 대학생" transform="translate(639.223 528.47)" style="isolation: isolate">
      <g id="그룹_28" data-name="그룹 28" transform="translate(0 0)" style="isolation: isolate">
        <path id="패스_69" data-name="패스 69" d="M641.4,544.995q.384-.457.952-1.143t1.19-1.474q.622-.787,1.254-1.6t1.162-1.51q.531-.7.9-1.2t.476-.686q.385-.641.613-1.107a6.578,6.578,0,0,0,.348-.833,4.256,4.256,0,0,0,.164-.668,4.207,4.207,0,0,0,.046-.631,1.822,1.822,0,0,0-.43-1.318,1.934,1.934,0,0,0-1.492-.495,2.473,2.473,0,0,0-.97.165,1.6,1.6,0,0,0-.613.439,1.7,1.7,0,0,0-.329.622,3.1,3.1,0,0,0-.119.714h-2.892a5.5,5.5,0,0,1,.531-2.1,4.253,4.253,0,0,1,1.107-1.4,4.189,4.189,0,0,1,1.51-.778,6.434,6.434,0,0,1,1.757-.238,5.234,5.234,0,0,1,3.661,1.144,4.168,4.168,0,0,1,1.245,3.231,5.907,5.907,0,0,1-.082,1.007,6.046,6.046,0,0,1-.247.952,7.029,7.029,0,0,1-.43.979q-.266.5-.65,1.108-.164.238-.5.76t-.787,1.153q-.448.632-.952,1.318t-.961,1.254H651.8v2.4H641.417Z" transform="translate(-641.399 -529.345)" fill="#fff"/>
        <path id="패스_70" data-name="패스 70" d="M700.14,535.575a5.769,5.769,0,0,1,1.439-4.32,7.1,7.1,0,0,1,8.442,0,5.745,5.745,0,0,1,1.448,4.32v4.173a5.708,5.708,0,0,1-1.439,4.292,7.151,7.151,0,0,1-8.452,0,5.707,5.707,0,0,1-1.439-4.292Zm2.911,3.905a7.108,7.108,0,0,0,.165,1.672,2.539,2.539,0,0,0,.513,1.069,1.939,1.939,0,0,0,.86.576,4.291,4.291,0,0,0,2.416,0,1.823,1.823,0,0,0,.842-.576,2.686,2.686,0,0,0,.494-1.069,7.126,7.126,0,0,0,.164-1.672V535.9a7.254,7.254,0,0,0-.164-1.681,2.772,2.772,0,0,0-.494-1.087,1.737,1.737,0,0,0-.842-.576,4.529,4.529,0,0,0-2.416,0,1.843,1.843,0,0,0-.86.576,2.618,2.618,0,0,0-.513,1.087,7.235,7.235,0,0,0-.165,1.681Z" transform="translate(-681.635 -529.425)" fill="#fff"/>
        <path id="패스_71" data-name="패스 71" d="M761.089,544.995q.385-.457.952-1.143t1.19-1.474q.622-.787,1.254-1.6t1.162-1.51q.531-.7.9-1.2t.476-.686q.384-.641.613-1.107a6.483,6.483,0,0,0,.347-.833,3.893,3.893,0,0,0,.211-1.3,1.824,1.824,0,0,0-.43-1.318,1.935,1.935,0,0,0-1.492-.495,2.471,2.471,0,0,0-.97.165,1.6,1.6,0,0,0-.613.439,1.7,1.7,0,0,0-.329.622,3.1,3.1,0,0,0-.119.714h-2.892a5.5,5.5,0,0,1,.53-2.1,4.259,4.259,0,0,1,1.108-1.4,4.19,4.19,0,0,1,1.51-.778,6.437,6.437,0,0,1,1.757-.238,5.233,5.233,0,0,1,3.661,1.144,4.168,4.168,0,0,1,1.245,3.231,5.875,5.875,0,0,1-.083,1.007,6.078,6.078,0,0,1-.247.952,7.033,7.033,0,0,1-.43.979q-.265.5-.65,1.108-.165.238-.5.76t-.787,1.153q-.448.632-.951,1.318t-.961,1.254h4.942v2.4H761.107Z" transform="translate(-723.384 -529.345)" fill="#fff"/>
        <path id="패스_72" data-name="패스 72" d="M819.83,535.575a5.768,5.768,0,0,1,1.439-4.32,7.1,7.1,0,0,1,8.443,0,5.747,5.747,0,0,1,1.448,4.32v4.173a5.708,5.708,0,0,1-1.439,4.292,7.151,7.151,0,0,1-8.452,0,5.707,5.707,0,0,1-1.439-4.292Zm2.91,3.905a7.124,7.124,0,0,0,.165,1.672,2.538,2.538,0,0,0,.513,1.069,1.942,1.942,0,0,0,.86.576,4.291,4.291,0,0,0,2.416,0,1.824,1.824,0,0,0,.842-.576,2.687,2.687,0,0,0,.494-1.069,7.107,7.107,0,0,0,.164-1.672V535.9a7.234,7.234,0,0,0-.164-1.681,2.773,2.773,0,0,0-.494-1.087,1.738,1.738,0,0,0-.842-.576,4.529,4.529,0,0,0-2.416,0,1.846,1.846,0,0,0-.86.576,2.617,2.617,0,0,0-.513,1.087,7.252,7.252,0,0,0-.165,1.681Z" transform="translate(-763.62 -529.425)" fill="#fff"/>
        <path id="패스_73" data-name="패스 73" d="M926.985,544.926H919.59v-15.1h6.864v2.508h-3.9V542.4h4.43Zm3.478-9.28h.97v-5.839h2.782v15.3h-2.782v-6.681h-.97v6.681H927.68v-15.3h2.782Z" transform="translate(-831.953 -529.386)" fill="#fff"/>
        <path id="패스_74" data-name="패스 74" d="M1002.867,532.094h-9.719v-2.343h3.075l.275-1.281h3.825l-.238,1.281h2.782ZM996,538.134a2.805,2.805,0,0,1-1.19-.265,2.5,2.5,0,0,1-.814-.632,2.552,2.552,0,0,1-.476-.879,3.265,3.265,0,0,1-.156-.988,3.585,3.585,0,0,1,.137-.979,2.409,2.409,0,0,1,.449-.87,2.264,2.264,0,0,1,.823-.622,2.993,2.993,0,0,1,1.263-.238q.677-.018,1.126-.018h1.693q.439,0,1.135.018a2.994,2.994,0,0,1,1.263.238,2.273,2.273,0,0,1,.824.622,2.408,2.408,0,0,1,.448.87,3.583,3.583,0,0,1,.137.979,3.283,3.283,0,0,1-.155.988,2.566,2.566,0,0,1-.476.879,2.482,2.482,0,0,1-.824.632,2.829,2.829,0,0,1-1.18.265q-.7.019-1.153.027t-.86.009q-.4,0-.86-.009T996,538.134Zm8.145,3.386h-10.03v-2.526h13v5.692h-2.965Zm-5.162-5.509a1.385,1.385,0,0,0,.485-.164.619.619,0,0,0,0-.961,1.509,1.509,0,0,0-.485-.156q-.366-.018-.577-.018h-.787q-.211,0-.576.018a1.506,1.506,0,0,0-.485.156.619.619,0,0,0,0,.961,1.382,1.382,0,0,0,.485.164c.244.012.436.022.576.027s.271.009.393.009.253,0,.393-.009S998.743,536.023,998.987,536.011Zm10.086-1.373h-2.014v3.569h-2.965v-9.3h2.965v3.2h2.014Z" transform="translate(-882.338 -528.47)" fill="#fff"/>
        <path id="패스_75" data-name="패스 75" d="M1075.55,537.86h-2.563l-.841-4.393-.037-.238-.11.549-1.465,4.137h-3.075l2.892-8.072h3.478Zm-3.221,7.615a3.6,3.6,0,0,1-1.492-.321,3.122,3.122,0,0,1-1.034-.771,3.052,3.052,0,0,1-.595-1.074,4.111,4.111,0,0,1-.192-1.248,4.487,4.487,0,0,1,.174-1.248,2.876,2.876,0,0,1,.567-1.074,2.823,2.823,0,0,1,1.034-.753,4.08,4.08,0,0,1,1.574-.3q1.739-.036,3.368-.037t3.368.037a3.871,3.871,0,0,1,1.574.285,2.816,2.816,0,0,1,1.034.752,2.881,2.881,0,0,1,.567,1.083,4.6,4.6,0,0,1,.174,1.257,4.115,4.115,0,0,1-.192,1.248,3.049,3.049,0,0,1-.6,1.074,3.119,3.119,0,0,1-1.034.771,3.6,3.6,0,0,1-1.492.321q-1.757.036-3.4.037T1072.329,545.475Zm6.351-2.563a1.673,1.673,0,0,0,.769-.192.729.729,0,0,0,.238-.65q0-.512-.238-.668a1.668,1.668,0,0,0-.769-.192q-1.574-.036-2.947-.037t-2.947.037a1.667,1.667,0,0,0-.769.192q-.238.155-.238.668a.729.729,0,0,0,.238.65,1.671,1.671,0,0,0,.769.192q1.574.036,2.947.037T1078.68,542.912Zm-.128-10.47h1.025v-2.635h2.782v8.346h-2.782v-2.928h-1.025v2.928h-2.782v-8.346h2.782Z" transform="translate(-933.24 -529.386)" fill="#fff"/>
      </g>
    </g>
    <rect id="사각형_11" data-name="사각형 11" width="151.212" height="0.315" transform="translate(638.222 563.29)" fill="#fff"/>
    <rect id="사각형_11-2" data-name="사각형 11" width="151.212" height="0.315" transform="translate(638.222 550.689)" fill="#fff"/>
    <g id="Financial_Security_Undergraduate_Camp_2020" data-name="Financial Security Undergraduate Camp 2020" transform="translate(640.69 554.003)">
      <g id="그룹_30" data-name="그룹 30" transform="translate(0 0)">
        <g id="그룹_29" data-name="그룹 29" style="isolation: isolate">
          <path id="패스_76" data-name="패스 76" d="M649.194,610.081v.416h-2.7v1.89H649v.416h-2.5v2.369h-.441v-5.091Z" transform="translate(-646.056 -609.905)" fill="#fff"/>
          <path id="패스_77" data-name="패스 77" d="M657.556,610.629v-.567h.6v.567Zm.536,4.53h-.473v-3.944h.473Z" transform="translate(-653.933 -609.892)" fill="#fff"/>
          <path id="패스_78" data-name="패스 78" d="M662.226,613.407l.031.4a1.355,1.355,0,0,1,.2-.186,1.506,1.506,0,0,1,.3-.176,2.168,2.168,0,0,1,.4-.132,2.216,2.216,0,0,1,.51-.054,2.04,2.04,0,0,1,.728.117,1.278,1.278,0,0,1,.8.841,2.16,2.16,0,0,1,.1.668v2.463h-.441v-2.545a1.052,1.052,0,0,0-.328-.854,1.383,1.383,0,0,0-.914-.274,1.56,1.56,0,0,0-.529.088,1.473,1.473,0,0,0-.432.239,1.106,1.106,0,0,0-.29.353.936.936,0,0,0-.1.435v2.558h-.441v-3.944Z" transform="translate(-656.851 -612.083)" fill="#fff"/>
          <path id="패스_79" data-name="패스 79" d="M674.836,616.227a1.04,1.04,0,0,1,.391-.9,2.056,2.056,0,0,1,1.21-.286h1.392v-.365a1.332,1.332,0,0,0-.038-.277.849.849,0,0,0-.161-.331,1.015,1.015,0,0,0-.35-.277,1.35,1.35,0,0,0-.611-.117,1.672,1.672,0,0,0-.523.07,1,1,0,0,0-.34.183.807.807,0,0,0-.2.261,1.8,1.8,0,0,0-.117.306h-.473a1.352,1.352,0,0,1,.51-.92,1.748,1.748,0,0,1,1.153-.315,1.768,1.768,0,0,1,1.2.387,1.48,1.48,0,0,1,.394,1.131v2.571h-.391l-.038-.473a1.741,1.741,0,0,1-.725.435,3.2,3.2,0,0,1-.958.132,1.929,1.929,0,0,1-.532-.069,1.122,1.122,0,0,1-.419-.217.987.987,0,0,1-.274-.378A1.407,1.407,0,0,1,674.836,616.227Zm1.411.8a2.235,2.235,0,0,0,.665-.091,1.586,1.586,0,0,0,.5-.249,1.093,1.093,0,0,0,.312-.366.948.948,0,0,0,.107-.441v-.422h-1.468a1.76,1.76,0,0,0-.523.066.963.963,0,0,0-.334.174.587.587,0,0,0-.176.242.8.8,0,0,0-.05.28,1.139,1.139,0,0,0,.035.274.619.619,0,0,0,.139.261.748.748,0,0,0,.293.2A1.376,1.376,0,0,0,676.247,617.027Z" transform="translate(-665.77 -612.081)" fill="#fff"/>
          <path id="패스_80" data-name="패스 80" d="M688.706,613.407l.031.4a1.343,1.343,0,0,1,.2-.186,1.51,1.51,0,0,1,.3-.176,2.166,2.166,0,0,1,.4-.132,2.212,2.212,0,0,1,.51-.054,2.038,2.038,0,0,1,.727.117,1.276,1.276,0,0,1,.8.841,2.16,2.16,0,0,1,.1.668v2.463h-.441v-2.545a1.051,1.051,0,0,0-.328-.854,1.383,1.383,0,0,0-.913-.274,1.562,1.562,0,0,0-.53.088,1.48,1.48,0,0,0-.432.239,1.11,1.11,0,0,0-.29.353.939.939,0,0,0-.1.435v2.558H688.3v-3.944Z" transform="translate(-674.989 -612.083)" fill="#fff"/>
          <path id="패스_81" data-name="패스 81" d="M704.786,616.021a1.311,1.311,0,0,1-.432,1.055,1.875,1.875,0,0,1-1.251.369,2.285,2.285,0,0,1-.765-.113,1.259,1.259,0,0,1-.826-.857,2.4,2.4,0,0,1-.1-.712v-.768a2.18,2.18,0,0,1,.11-.715,1.469,1.469,0,0,1,.328-.545,1.439,1.439,0,0,1,.542-.35,2.128,2.128,0,0,1,.753-.123,2.019,2.019,0,0,1,.684.107,1.421,1.421,0,0,1,.5.3,1.345,1.345,0,0,1,.315.451,1.664,1.664,0,0,1,.133.564h-.435a2.194,2.194,0,0,0-.072-.293,1.009,1.009,0,0,0-.18-.331,1.025,1.025,0,0,0-.343-.267,1.278,1.278,0,0,0-.576-.111,1.6,1.6,0,0,0-.611.1,1.115,1.115,0,0,0-.407.274,1.069,1.069,0,0,0-.227.4,1.538,1.538,0,0,0-.072.473v.958a1.153,1.153,0,0,0,.3.838,1.27,1.27,0,0,0,.948.309,1.517,1.517,0,0,0,.9-.243.879.879,0,0,0,.337-.766Z" transform="translate(-683.975 -612.083)" fill="#fff"/>
          <path id="패스_82" data-name="패스 82" d="M713.995,610.629v-.567h.6v.567Zm.536,4.53h-.473v-3.944h.473Z" transform="translate(-692.592 -609.892)" fill="#fff"/>
          <path id="패스_83" data-name="패스 83" d="M717.775,616.227a1.04,1.04,0,0,1,.391-.9,2.056,2.056,0,0,1,1.21-.286h1.392v-.365a1.336,1.336,0,0,0-.038-.277.849.849,0,0,0-.161-.331,1.013,1.013,0,0,0-.35-.277,1.348,1.348,0,0,0-.611-.117,1.676,1.676,0,0,0-.523.07,1,1,0,0,0-.34.183.8.8,0,0,0-.2.261,1.769,1.769,0,0,0-.117.306h-.473a1.352,1.352,0,0,1,.51-.92,1.747,1.747,0,0,1,1.153-.315,1.77,1.77,0,0,1,1.2.387,1.48,1.48,0,0,1,.394,1.131v2.571h-.391l-.038-.473a1.737,1.737,0,0,1-.725.435,3.2,3.2,0,0,1-.958.132,1.93,1.93,0,0,1-.532-.069,1.122,1.122,0,0,1-.419-.217.987.987,0,0,1-.274-.378A1.407,1.407,0,0,1,717.775,616.227Zm1.412.8a2.234,2.234,0,0,0,.664-.091,1.585,1.585,0,0,0,.5-.249,1.085,1.085,0,0,0,.312-.366.948.948,0,0,0,.107-.441v-.422H719.3a1.757,1.757,0,0,0-.523.066.962.962,0,0,0-.334.174.587.587,0,0,0-.176.242.79.79,0,0,0-.05.28,1.157,1.157,0,0,0,.034.274.622.622,0,0,0,.139.261.751.751,0,0,0,.293.2A1.38,1.38,0,0,0,719.187,617.027Z" transform="translate(-695.182 -612.081)" fill="#fff"/>
          <path id="패스_84" data-name="패스 84" d="M731.235,615.036v-5.154h.441v5.154Z" transform="translate(-704.401 -609.768)" fill="#fff"/>
          <path id="패스_85" data-name="패스 85" d="M743.166,611.086a1.041,1.041,0,0,0-.362-.851,1.682,1.682,0,0,0-1.018-.258,2.105,2.105,0,0,0-.6.072,1.07,1.07,0,0,0-.394.2.776.776,0,0,0-.221.3.959.959,0,0,0-.069.365.748.748,0,0,0,.1.391.97.97,0,0,0,.252.28,1.526,1.526,0,0,0,.347.2,3.327,3.327,0,0,0,.387.132c.13.036.253.065.369.089s.211.045.287.066a5.052,5.052,0,0,1,.58.2,1.635,1.635,0,0,1,.457.28,1.193,1.193,0,0,1,.3.41,1.417,1.417,0,0,1,.107.58,1.36,1.36,0,0,1-.173.718,1.29,1.29,0,0,1-.454.447,1.86,1.86,0,0,1-.633.224,3.515,3.515,0,0,1-.712.047,1.93,1.93,0,0,1-1.3-.441,1.817,1.817,0,0,1-.488-1.31h.429a2.181,2.181,0,0,0,.063.45,1.127,1.127,0,0,0,.208.432,1.152,1.152,0,0,0,.419.325,1.658,1.658,0,0,0,.69.135,2.97,2.97,0,0,0,.636-.05,1.373,1.373,0,0,0,.479-.183.85.85,0,0,0,.3-.324,1.01,1.01,0,0,0,.1-.476.944.944,0,0,0-.079-.39.867.867,0,0,0-.268-.324,1.919,1.919,0,0,0-.507-.268,5.569,5.569,0,0,0-.8-.22,3.951,3.951,0,0,1-.539-.158,2.008,2.008,0,0,1-.5-.265,1.318,1.318,0,0,1-.363-.4,1.1,1.1,0,0,1-.139-.564,1.38,1.38,0,0,1,.123-.6,1.16,1.16,0,0,1,.349-.431,1.581,1.581,0,0,1,.545-.261,2.622,2.622,0,0,1,.7-.088,2.494,2.494,0,0,1,.766.107,1.533,1.533,0,0,1,.554.306,1.322,1.322,0,0,1,.343.482,1.772,1.772,0,0,1,.132.63Z" transform="translate(-710.36 -609.549)" fill="#fff"/>
          <path id="패스_86" data-name="패스 86" d="M756.682,616.236a1.386,1.386,0,0,1-.211.548,1.3,1.3,0,0,1-.384.372,1.724,1.724,0,0,1-.526.215,2.805,2.805,0,0,1-.637.069,2.246,2.246,0,0,1-.765-.119,1.488,1.488,0,0,1-.554-.343,1.43,1.43,0,0,1-.337-.545,2.136,2.136,0,0,1-.114-.718v-.718a2.024,2.024,0,0,1,.12-.715,1.478,1.478,0,0,1,.907-.895,2.462,2.462,0,0,1,1.534,0,1.571,1.571,0,0,1,.567.347,1.463,1.463,0,0,1,.349.542,2.019,2.019,0,0,1,.12.715v.51H753.6v.145a2.582,2.582,0,0,0,.05.52,1.1,1.1,0,0,0,.192.441.963.963,0,0,0,.4.306,1.743,1.743,0,0,0,.684.113,1.813,1.813,0,0,0,.57-.079,1.409,1.409,0,0,0,.394-.2.915.915,0,0,0,.242-.255.821.821,0,0,0,.11-.258Zm-3.087-1.153h2.69v-.2a1.249,1.249,0,0,0-.094-.489,1.1,1.1,0,0,0-.268-.384,1.213,1.213,0,0,0-.422-.249,1.646,1.646,0,0,0-.551-.088,1.673,1.673,0,0,0-.554.088,1.265,1.265,0,0,0-.429.246,1.094,1.094,0,0,0-.274.378,1.182,1.182,0,0,0-.1.485Z" transform="translate(-719.415 -612.083)" fill="#fff"/>
          <path id="패스_87" data-name="패스 87" d="M769.545,616.021a1.311,1.311,0,0,1-.432,1.055,1.875,1.875,0,0,1-1.251.369,2.288,2.288,0,0,1-.766-.113,1.259,1.259,0,0,1-.825-.857,2.4,2.4,0,0,1-.1-.712v-.768a2.18,2.18,0,0,1,.11-.715,1.468,1.468,0,0,1,.328-.545,1.442,1.442,0,0,1,.542-.35,2.127,2.127,0,0,1,.753-.123,2.019,2.019,0,0,1,.684.107,1.42,1.42,0,0,1,.5.3,1.336,1.336,0,0,1,.315.451,1.659,1.659,0,0,1,.133.564H769.1a2.2,2.2,0,0,0-.072-.293,1.009,1.009,0,0,0-.18-.331,1.025,1.025,0,0,0-.343-.267,1.278,1.278,0,0,0-.576-.111,1.6,1.6,0,0,0-.611.1,1.114,1.114,0,0,0-.406.274,1.069,1.069,0,0,0-.227.4,1.538,1.538,0,0,0-.072.473v.958a1.152,1.152,0,0,0,.3.838,1.27,1.27,0,0,0,.948.309,1.516,1.516,0,0,0,.9-.243.879.879,0,0,0,.337-.766Z" transform="translate(-728.334 -612.083)" fill="#fff"/>
          <path id="패스_88" data-name="패스 88" d="M782,617.149a1.107,1.107,0,0,1-.268.264,1.723,1.723,0,0,1-.359.192,2.111,2.111,0,0,1-.416.117,2.515,2.515,0,0,1-.432.037,1.8,1.8,0,0,1-.63-.107,1.434,1.434,0,0,1-.5-.308,1.382,1.382,0,0,1-.328-.492,1.741,1.741,0,0,1-.117-.655v-2.476h.441v2.426a1.627,1.627,0,0,0,.06.441,1.036,1.036,0,0,0,.2.381.983.983,0,0,0,.362.271,1.351,1.351,0,0,0,.561.1,1.59,1.59,0,0,0,.69-.132,1.29,1.29,0,0,0,.441-.334,1.173,1.173,0,0,0,.233-.444,1.773,1.773,0,0,0,.066-.463v-2.249h.441v3.944h-.416Z" transform="translate(-737.088 -612.399)" fill="#fff"/>
          <path id="패스_89" data-name="패스 89" d="M795.108,614.018l-2.066.592v2.974h-.447V613.64h.4l.025.529,2.085-.567Z" transform="translate(-746.431 -612.316)" fill="#fff"/>
          <path id="패스_90" data-name="패스 90" d="M801.834,610.629v-.567h.6v.567Zm.536,4.53H801.9v-3.944h.473Z" transform="translate(-752.76 -609.892)" fill="#fff"/>
          <path id="패스_91" data-name="패스 91" d="M806.5,609.521v1.537h1.04v.416H806.5v2.293a.778.778,0,0,0,.158.488.612.612,0,0,0,.517.2h.435v.4h-.365a1.561,1.561,0,0,1-.589-.095.867.867,0,0,1-.551-.652,2.351,2.351,0,0,1-.05-.507v-2.129h-.92v-.416h.92v-1.537Z" transform="translate(-755.02 -609.521)" fill="#fff"/>
          <path id="패스_92" data-name="패스 92" d="M814.771,618.989l.756-1.764-1.714-3.5h.51l1.437,2.955,1.279-2.955h.5l-2.281,5.267Z" transform="translate(-760.965 -612.399)" fill="#fff"/>
          <path id="패스_93" data-name="패스 93" d="M834.723,614.92a2.215,2.215,0,0,0,.6-.076,1.168,1.168,0,0,0,.456-.239,1.07,1.07,0,0,0,.293-.428,1.759,1.759,0,0,0,.1-.643v-3.453h.441v3.245a2.143,2.143,0,0,1-.463,1.531,2.384,2.384,0,0,1-2.867,0,2.16,2.16,0,0,1-.457-1.531v-3.245h.441v3.453a1.8,1.8,0,0,0,.1.643,1.037,1.037,0,0,0,.29.428,1.167,1.167,0,0,0,.457.239A2.212,2.212,0,0,0,834.723,614.92Z" transform="translate(-773.993 -609.905)" fill="#fff"/>
          <path id="패스_94" data-name="패스 94" d="M847.823,613.407l.031.4a1.352,1.352,0,0,1,.2-.186,1.519,1.519,0,0,1,.3-.176,2.165,2.165,0,0,1,.4-.132,2.213,2.213,0,0,1,.51-.054,2.038,2.038,0,0,1,.727.117,1.277,1.277,0,0,1,.8.841,2.16,2.16,0,0,1,.1.668v2.463h-.441v-2.545a1.051,1.051,0,0,0-.328-.854,1.384,1.384,0,0,0-.914-.274,1.564,1.564,0,0,0-.53.088,1.481,1.481,0,0,0-.432.239,1.11,1.11,0,0,0-.29.353.939.939,0,0,0-.1.435v2.558h-.441v-3.944Z" transform="translate(-783.98 -612.083)" fill="#fff"/>
          <path id="패스_95" data-name="패스 95" d="M864.029,609.521v5.267h-.365l-.076-.51v-.057a1.7,1.7,0,0,1-.542.473,1.6,1.6,0,0,1-.8.189,2.2,2.2,0,0,1-.778-.123,1.359,1.359,0,0,1-.532-.35,1.4,1.4,0,0,1-.305-.548,2.464,2.464,0,0,1-.1-.719v-.718a2.167,2.167,0,0,1,.111-.715,1.438,1.438,0,0,1,.328-.542,1.467,1.467,0,0,1,.539-.347,2.1,2.1,0,0,1,.75-.122,1.78,1.78,0,0,1,.8.163,1.525,1.525,0,0,1,.529.422v-1.764Zm-.441,2.886a1.446,1.446,0,0,0-.082-.479,1.192,1.192,0,0,0-.246-.412,1.235,1.235,0,0,0-.4-.29,1.309,1.309,0,0,0-.554-.111,1.664,1.664,0,0,0-.627.1,1.12,1.12,0,0,0-.413.277,1,1,0,0,0-.224.4,1.675,1.675,0,0,0-.066.473v.838a1.551,1.551,0,0,0,.113.643.97.97,0,0,0,.3.381,1.076,1.076,0,0,0,.4.186,1.979,1.979,0,0,0,.441.05,1.436,1.436,0,0,0,.466-.082,1.394,1.394,0,0,0,.438-.246,1.322,1.322,0,0,0,.328-.41,1.213,1.213,0,0,0,.129-.573Z" transform="translate(-792.967 -609.521)" fill="#fff"/>
          <path id="패스_96" data-name="패스 96" d="M877.24,616.236a1.391,1.391,0,0,1-.211.548,1.294,1.294,0,0,1-.384.372,1.72,1.72,0,0,1-.526.215,2.8,2.8,0,0,1-.636.069,2.247,2.247,0,0,1-.766-.119,1.493,1.493,0,0,1-.554-.343,1.434,1.434,0,0,1-.337-.545,2.144,2.144,0,0,1-.113-.718v-.718a2.024,2.024,0,0,1,.12-.715,1.476,1.476,0,0,1,.907-.895,2.462,2.462,0,0,1,1.534,0,1.57,1.57,0,0,1,.567.347,1.46,1.46,0,0,1,.35.542,2.019,2.019,0,0,1,.12.715v.51h-3.157v.145a2.609,2.609,0,0,0,.05.52,1.1,1.1,0,0,0,.192.441.959.959,0,0,0,.4.306,1.742,1.742,0,0,0,.684.113,1.811,1.811,0,0,0,.57-.079,1.41,1.41,0,0,0,.394-.2.922.922,0,0,0,.243-.255.822.822,0,0,0,.11-.258Zm-3.087-1.153h2.69v-.2a1.242,1.242,0,0,0-.095-.489,1.1,1.1,0,0,0-.268-.384,1.217,1.217,0,0,0-.422-.249,1.647,1.647,0,0,0-.551-.088,1.674,1.674,0,0,0-.554.088,1.268,1.268,0,0,0-.428.246,1.1,1.1,0,0,0-.274.378,1.182,1.182,0,0,0-.1.485Z" transform="translate(-801.994 -612.083)" fill="#fff"/>
          <path id="패스_97" data-name="패스 97" d="M889.726,614.018l-2.066.592v2.974h-.447V613.64h.4l.025.529,2.085-.567Z" transform="translate(-811.242 -612.316)" fill="#fff"/>
          <path id="패스_98" data-name="패스 98" d="M899,613.407v3.459a2.643,2.643,0,0,1-.161,1.015,1.441,1.441,0,0,1-.419.582,1.33,1.33,0,0,1-.58.268,3.288,3.288,0,0,1-.637.063,2.224,2.224,0,0,1-.611-.079,1.5,1.5,0,0,1-.492-.239,1.249,1.249,0,0,1-.346-.4,1.506,1.506,0,0,1-.17-.554h.435a1.007,1.007,0,0,0,.094.328.792.792,0,0,0,.221.274,1.1,1.1,0,0,0,.362.186,1.765,1.765,0,0,0,.532.07,2.1,2.1,0,0,0,.548-.066.982.982,0,0,0,.419-.227,1.048,1.048,0,0,0,.267-.425,1.982,1.982,0,0,0,.095-.662v-.441a1.63,1.63,0,0,1-1.342.63,2.191,2.191,0,0,1-.778-.123,1.337,1.337,0,0,1-.529-.349,1.42,1.42,0,0,1-.3-.548,2.459,2.459,0,0,1-.1-.718v-.46a2.175,2.175,0,0,1,.11-.715,1.463,1.463,0,0,1,.324-.542,1.442,1.442,0,0,1,.536-.347,2.1,2.1,0,0,1,.75-.123,1.779,1.779,0,0,1,.8.164,1.526,1.526,0,0,1,.529.422v-.441Zm-.441,1.563a1.431,1.431,0,0,0-.082-.479,1.185,1.185,0,0,0-.245-.412,1.239,1.239,0,0,0-.4-.29,1.311,1.311,0,0,0-.554-.111,1.664,1.664,0,0,0-.627.1,1.09,1.09,0,0,0-.41.277,1.024,1.024,0,0,0-.221.4,1.664,1.664,0,0,0-.066.473v.579a1.55,1.55,0,0,0,.113.643.979.979,0,0,0,.293.381,1.038,1.038,0,0,0,.4.186,1.967,1.967,0,0,0,.441.05,1.619,1.619,0,0,0,.466-.072,1.343,1.343,0,0,0,.438-.227,1.225,1.225,0,0,0,.328-.394,1.177,1.177,0,0,0,.129-.567Z" transform="translate(-816.927 -612.083)" fill="#fff"/>
          <path id="패스_99" data-name="패스 99" d="M911.666,614.018l-2.067.592v2.974h-.447V613.64h.4l.026.529,2.085-.567Z" transform="translate(-826.27 -612.316)" fill="#fff"/>
          <path id="패스_100" data-name="패스 100" d="M917.251,616.227a1.04,1.04,0,0,1,.391-.9,2.056,2.056,0,0,1,1.21-.286h1.392v-.365a1.332,1.332,0,0,0-.038-.277.849.849,0,0,0-.161-.331,1.015,1.015,0,0,0-.35-.277,1.349,1.349,0,0,0-.611-.117,1.672,1.672,0,0,0-.523.07,1,1,0,0,0-.34.183.807.807,0,0,0-.2.261,1.774,1.774,0,0,0-.117.306h-.473a1.352,1.352,0,0,1,.51-.92,1.748,1.748,0,0,1,1.153-.315,1.769,1.769,0,0,1,1.2.387,1.481,1.481,0,0,1,.394,1.131v2.571h-.391l-.038-.473a1.739,1.739,0,0,1-.725.435,3.2,3.2,0,0,1-.958.132,1.929,1.929,0,0,1-.532-.069,1.127,1.127,0,0,1-.419-.217.987.987,0,0,1-.274-.378A1.407,1.407,0,0,1,917.251,616.227Zm1.411.8a2.236,2.236,0,0,0,.665-.091,1.59,1.59,0,0,0,.5-.249,1.093,1.093,0,0,0,.312-.366.948.948,0,0,0,.107-.441v-.422h-1.468a1.76,1.76,0,0,0-.523.066.963.963,0,0,0-.334.174.587.587,0,0,0-.176.242.8.8,0,0,0-.05.28,1.142,1.142,0,0,0,.035.274.619.619,0,0,0,.139.261.748.748,0,0,0,.293.2A1.377,1.377,0,0,0,918.662,617.027Z" transform="translate(-831.818 -612.081)" fill="#fff"/>
          <path id="패스_101" data-name="패스 101" d="M933.728,609.521v5.267h-.365l-.076-.51v-.057a1.7,1.7,0,0,1-.542.473,1.6,1.6,0,0,1-.8.189,2.2,2.2,0,0,1-.778-.123,1.356,1.356,0,0,1-.532-.35,1.392,1.392,0,0,1-.306-.548,2.466,2.466,0,0,1-.1-.719v-.718a2.169,2.169,0,0,1,.111-.715,1.439,1.439,0,0,1,.328-.542,1.467,1.467,0,0,1,.539-.347,2.1,2.1,0,0,1,.75-.122,1.78,1.78,0,0,1,.8.163,1.525,1.525,0,0,1,.529.422v-1.764Zm-.441,2.886a1.439,1.439,0,0,0-.082-.479,1.191,1.191,0,0,0-.246-.412,1.235,1.235,0,0,0-.4-.29,1.31,1.31,0,0,0-.554-.111,1.664,1.664,0,0,0-.627.1,1.119,1.119,0,0,0-.412.277,1,1,0,0,0-.224.4,1.664,1.664,0,0,0-.066.473v.838a1.553,1.553,0,0,0,.113.643.97.97,0,0,0,.3.381,1.077,1.077,0,0,0,.4.186,1.982,1.982,0,0,0,.441.05,1.438,1.438,0,0,0,.466-.082,1.4,1.4,0,0,0,.438-.246,1.322,1.322,0,0,0,.328-.41,1.214,1.214,0,0,0,.129-.573Z" transform="translate(-840.709 -609.521)" fill="#fff"/>
          <path id="패스_102" data-name="패스 102" d="M946.94,617.149a1.1,1.1,0,0,1-.267.264,1.721,1.721,0,0,1-.359.192,2.111,2.111,0,0,1-.416.117,2.516,2.516,0,0,1-.432.037,1.8,1.8,0,0,1-.63-.107,1.433,1.433,0,0,1-.5-.308,1.377,1.377,0,0,1-.328-.492,1.739,1.739,0,0,1-.117-.655v-2.476h.441v2.426a1.627,1.627,0,0,0,.06.441,1.037,1.037,0,0,0,.2.381.984.984,0,0,0,.362.271,1.349,1.349,0,0,0,.561.1,1.591,1.591,0,0,0,.69-.132,1.293,1.293,0,0,0,.441-.334,1.172,1.172,0,0,0,.233-.444,1.76,1.76,0,0,0,.066-.463v-2.249h.441v3.944h-.416Z" transform="translate(-850.065 -612.399)" fill="#fff"/>
          <path id="패스_103" data-name="패스 103" d="M957.051,616.227a1.04,1.04,0,0,1,.391-.9,2.055,2.055,0,0,1,1.21-.286h1.392v-.365a1.333,1.333,0,0,0-.038-.277.853.853,0,0,0-.161-.331,1.014,1.014,0,0,0-.35-.277,1.348,1.348,0,0,0-.611-.117,1.672,1.672,0,0,0-.523.07,1,1,0,0,0-.34.183.8.8,0,0,0-.2.261,1.774,1.774,0,0,0-.117.306h-.473a1.352,1.352,0,0,1,.51-.92,1.748,1.748,0,0,1,1.153-.315,1.769,1.769,0,0,1,1.2.387,1.481,1.481,0,0,1,.394,1.131v2.571h-.391l-.038-.473a1.741,1.741,0,0,1-.725.435,3.2,3.2,0,0,1-.958.132,1.932,1.932,0,0,1-.533-.069,1.126,1.126,0,0,1-.419-.217.988.988,0,0,1-.274-.378A1.407,1.407,0,0,1,957.051,616.227Zm1.411.8a2.233,2.233,0,0,0,.664-.091,1.587,1.587,0,0,0,.5-.249,1.092,1.092,0,0,0,.312-.366.951.951,0,0,0,.107-.441v-.422h-1.468a1.758,1.758,0,0,0-.523.066.961.961,0,0,0-.334.174.587.587,0,0,0-.176.242.8.8,0,0,0-.05.28,1.16,1.16,0,0,0,.034.274.624.624,0,0,0,.139.261.748.748,0,0,0,.293.2A1.377,1.377,0,0,0,958.462,617.027Z" transform="translate(-859.08 -612.081)" fill="#fff"/>
          <path id="패스_104" data-name="패스 104" d="M970.6,609.521v1.537h1.04v.416H970.6v2.293a.776.776,0,0,0,.158.488.612.612,0,0,0,.517.2h.435v.4h-.365a1.564,1.564,0,0,1-.589-.095.866.866,0,0,1-.551-.652,2.371,2.371,0,0,1-.05-.507v-2.129h-.92v-.416h.92v-1.537Z" transform="translate(-867.423 -609.521)" fill="#fff"/>
          <path id="패스_105" data-name="패스 105" d="M981.419,616.236a1.39,1.39,0,0,1-.211.548,1.3,1.3,0,0,1-.384.372,1.72,1.72,0,0,1-.526.215,2.8,2.8,0,0,1-.636.069,2.247,2.247,0,0,1-.766-.119,1.494,1.494,0,0,1-.554-.343,1.434,1.434,0,0,1-.337-.545,2.143,2.143,0,0,1-.114-.718v-.718a2.024,2.024,0,0,1,.12-.715,1.478,1.478,0,0,1,.907-.895,2.462,2.462,0,0,1,1.534,0,1.571,1.571,0,0,1,.567.347,1.465,1.465,0,0,1,.35.542,2.026,2.026,0,0,1,.119.715v.51h-3.156v.145a2.609,2.609,0,0,0,.05.52,1.1,1.1,0,0,0,.192.441.961.961,0,0,0,.4.306,1.741,1.741,0,0,0,.684.113,1.81,1.81,0,0,0,.57-.079,1.409,1.409,0,0,0,.394-.2.92.92,0,0,0,.243-.255.82.82,0,0,0,.11-.258Zm-3.087-1.153h2.69v-.2a1.249,1.249,0,0,0-.095-.489,1.1,1.1,0,0,0-.268-.384,1.22,1.22,0,0,0-.422-.249,1.649,1.649,0,0,0-.551-.088,1.674,1.674,0,0,0-.555.088,1.267,1.267,0,0,0-.428.246,1.1,1.1,0,0,0-.274.378,1.183,1.183,0,0,0-.1.485Z" transform="translate(-873.354 -612.083)" fill="#fff"/>
          <path id="패스_106" data-name="패스 106" d="M1000.281,613.311a1.685,1.685,0,0,1-.495,1.257,1.959,1.959,0,0,1-1.345.413,1.811,1.811,0,0,1-1.415-.508,2.211,2.211,0,0,1-.457-1.522v-1.361a2.613,2.613,0,0,1,.136-.882,1.7,1.7,0,0,1,.387-.633,1.614,1.614,0,0,1,.612-.384,2.387,2.387,0,0,1,.813-.129,1.747,1.747,0,0,1,1.269.432,1.77,1.77,0,0,1,.495,1.207h-.441a4.1,4.1,0,0,0-.1-.422,1.2,1.2,0,0,0-.2-.394,1.01,1.01,0,0,0-.381-.293,1.527,1.527,0,0,0-.639-.113,1.373,1.373,0,0,0-1.506,1.5v1.613a1.529,1.529,0,0,0,.362,1.083,1.385,1.385,0,0,0,1.068.391,1.906,1.906,0,0,0,.658-.1,1.065,1.065,0,0,0,.419-.268,1.042,1.042,0,0,0,.23-.4,2.125,2.125,0,0,0,.091-.491Z" transform="translate(-886.149 -609.549)" fill="#fff"/>
          <path id="패스_107" data-name="패스 107" d="M1009.93,616.227a1.04,1.04,0,0,1,.391-.9,2.055,2.055,0,0,1,1.21-.286h1.392v-.365a1.315,1.315,0,0,0-.038-.277.853.853,0,0,0-.16-.331,1.014,1.014,0,0,0-.35-.277,1.348,1.348,0,0,0-.611-.117,1.673,1.673,0,0,0-.523.07,1,1,0,0,0-.34.183.8.8,0,0,0-.2.261,1.769,1.769,0,0,0-.117.306h-.473a1.353,1.353,0,0,1,.51-.92,1.747,1.747,0,0,1,1.153-.315,1.77,1.77,0,0,1,1.2.387,1.48,1.48,0,0,1,.394,1.131v2.571h-.391l-.038-.473a1.741,1.741,0,0,1-.725.435,3.2,3.2,0,0,1-.958.132,1.931,1.931,0,0,1-.533-.069,1.125,1.125,0,0,1-.419-.217.987.987,0,0,1-.274-.378A1.406,1.406,0,0,1,1009.93,616.227Zm1.411.8a2.234,2.234,0,0,0,.664-.091,1.582,1.582,0,0,0,.5-.249,1.092,1.092,0,0,0,.312-.366.952.952,0,0,0,.107-.441v-.422h-1.468a1.758,1.758,0,0,0-.523.066.961.961,0,0,0-.334.174.588.588,0,0,0-.176.242.8.8,0,0,0-.05.28,1.157,1.157,0,0,0,.034.274.623.623,0,0,0,.139.261.747.747,0,0,0,.293.2A1.38,1.38,0,0,0,1011.341,617.027Z" transform="translate(-895.3 -612.081)" fill="#fff"/>
          <path id="패스_108" data-name="패스 108" d="M1023.831,613.753a.862.862,0,0,1,.428-.359,1.627,1.627,0,0,1,.661-.132,1.144,1.144,0,0,1,.359.054,1.209,1.209,0,0,1,.293.138,1.09,1.09,0,0,1,.221.189.982.982,0,0,1,.142.2.846.846,0,0,1,.22-.261,1.425,1.425,0,0,1,.3-.182,1.561,1.561,0,0,1,.334-.107,1.685,1.685,0,0,1,.324-.034,1.255,1.255,0,0,1,.964.334,1.313,1.313,0,0,1,.309.927v2.829h-.441v-2.866a.806.806,0,0,0-.211-.6.862.862,0,0,0-.634-.211,1.1,1.1,0,0,0-.372.063.976.976,0,0,0-.312.18.835.835,0,0,0-.214.29,1.008,1.008,0,0,0-.085.394v2.747h-.448v-2.766a1.61,1.61,0,0,0-.031-.312.77.77,0,0,0-.123-.293.678.678,0,0,0-.258-.217.964.964,0,0,0-.437-.085,1.161,1.161,0,0,0-.369.06.926.926,0,0,0-.315.176.9.9,0,0,0-.221.29.88.88,0,0,0-.085.394v2.753h-.441v-3.944h.4Z" transform="translate(-904.52 -612.083)" fill="#fff"/>
          <path id="패스_109" data-name="패스 109" d="M1042.22,613.407l.025.491a1.674,1.674,0,0,1,.564-.46,1.723,1.723,0,0,1,.8-.176,2.056,2.056,0,0,1,.74.123,1.443,1.443,0,0,1,.532.347,1.4,1.4,0,0,1,.318.542,2.293,2.293,0,0,1,.1.715v.718a2.466,2.466,0,0,1-.1.719,1.362,1.362,0,0,1-.312.548,1.4,1.4,0,0,1-.548.35,2.365,2.365,0,0,1-.813.123,1.5,1.5,0,0,1-1.279-.623v1.852h-.441v-5.267Zm1.342.271a1.282,1.282,0,0,0-.932.381,1.362,1.362,0,0,0-.271.4,1.192,1.192,0,0,0-.107.463v.8a1.27,1.27,0,0,0,.425.983,1.271,1.271,0,0,0,.416.246,1.357,1.357,0,0,0,.457.082,2.135,2.135,0,0,0,.447-.05,1.161,1.161,0,0,0,.425-.186,1,1,0,0,0,.315-.381,1.441,1.441,0,0,0,.123-.643v-.838a1.75,1.75,0,0,0-.063-.473,1.007,1.007,0,0,0-.214-.4,1.07,1.07,0,0,0-.4-.277A1.615,1.615,0,0,0,1043.562,613.678Z" transform="translate(-917.137 -612.083)" fill="#fff"/>
          <path id="패스_110" data-name="패스 110" d="M1063.175,614.4v.416h-3.585l1.468-1.594q.46-.491.74-.828a5.272,5.272,0,0,0,.432-.583,1.759,1.759,0,0,0,.2-.438,1.469,1.469,0,0,0,.054-.394,1.07,1.07,0,0,0-.06-.391.937.937,0,0,0-.551-.573,1.309,1.309,0,0,0-.5-.088,1.324,1.324,0,0,0-.63.129,1,1,0,0,0-.533.677,1.538,1.538,0,0,0-.041.309h-.441a1.693,1.693,0,0,1,.173-.734,1.3,1.3,0,0,1,.885-.684,2.451,2.451,0,0,1,.548-.063,2.335,2.335,0,0,1,.652.085,1.351,1.351,0,0,1,.5.261,1.205,1.205,0,0,1,.324.447,1.606,1.606,0,0,1,.116.637,1.892,1.892,0,0,1-.056.473,1.944,1.944,0,0,1-.2.469,4.364,4.364,0,0,1-.384.551q-.243.3-.621.718l-1.09,1.2Z" transform="translate(-929.316 -609.549)" fill="#fff"/>
          <path id="패스_111" data-name="패스 111" d="M1072.029,611.528a1.989,1.989,0,0,1,.494-1.487,2.439,2.439,0,0,1,2.9,0,1.981,1.981,0,0,1,.5,1.487v1.5a1.968,1.968,0,0,1-.495,1.477,2.455,2.455,0,0,1-2.9,0,1.968,1.968,0,0,1-.494-1.477Zm.441,1.619a1.34,1.34,0,0,0,.406,1.055,1.849,1.849,0,0,0,2.2,0,1.34,1.34,0,0,0,.406-1.055V611.4a1.6,1.6,0,0,0-.11-.614,1.194,1.194,0,0,0-.309-.444,1.336,1.336,0,0,0-.476-.267,1.947,1.947,0,0,0-.611-.091,1.969,1.969,0,0,0-.617.091,1.333,1.333,0,0,0-.476.267,1.163,1.163,0,0,0-.306.444,1.641,1.641,0,0,0-.107.614Z" transform="translate(-937.837 -609.549)" fill="#fff"/>
          <path id="패스_112" data-name="패스 112" d="M1089.174,614.4v.416h-3.585l1.468-1.594q.46-.491.74-.828a5.288,5.288,0,0,0,.432-.583,1.754,1.754,0,0,0,.2-.438,1.464,1.464,0,0,0,.054-.394,1.068,1.068,0,0,0-.06-.391.937.937,0,0,0-.551-.573,1.309,1.309,0,0,0-.5-.088,1.323,1.323,0,0,0-.63.129,1,1,0,0,0-.533.677,1.54,1.54,0,0,0-.041.309h-.441a1.693,1.693,0,0,1,.173-.734,1.3,1.3,0,0,1,.885-.684,2.452,2.452,0,0,1,.548-.063,2.336,2.336,0,0,1,.652.085,1.35,1.35,0,0,1,.5.261,1.2,1.2,0,0,1,.324.447,1.606,1.606,0,0,1,.116.637,1.892,1.892,0,0,1-.056.473,1.944,1.944,0,0,1-.2.469,4.377,4.377,0,0,1-.384.551q-.243.3-.621.718l-1.09,1.2Z" transform="translate(-947.125 -609.549)" fill="#fff"/>
          <path id="패스_113" data-name="패스 113" d="M1098.029,611.528a1.989,1.989,0,0,1,.494-1.487,2.439,2.439,0,0,1,2.9,0,1.981,1.981,0,0,1,.5,1.487v1.5a1.968,1.968,0,0,1-.495,1.477,2.455,2.455,0,0,1-2.9,0,1.968,1.968,0,0,1-.494-1.477Zm.441,1.619a1.34,1.34,0,0,0,.406,1.055,1.849,1.849,0,0,0,2.2,0,1.34,1.34,0,0,0,.406-1.055V611.4a1.6,1.6,0,0,0-.11-.614,1.194,1.194,0,0,0-.309-.444,1.336,1.336,0,0,0-.476-.267,1.947,1.947,0,0,0-.611-.091,1.969,1.969,0,0,0-.617.091,1.333,1.333,0,0,0-.476.267,1.163,1.163,0,0,0-.306.444,1.641,1.641,0,0,0-.107.614Z" transform="translate(-955.646 -609.549)" fill="#fff"/>
        </g>
      </g>
    </g>
  </g>
</svg>
