<?xml version="1.0" encoding="utf-8"?>
<!-- Generator: Adobe Illustrator 23.0.1, SVG Export Plug-In . SVG Version: 6.00 Build 0)  -->
<svg version="1.1" id="레이어_1" xmlns="http://www.w3.org/2000/svg" xmlns:xlink="http://www.w3.org/1999/xlink" x="0px"
	 y="0px" viewBox="0 0 219.1 149.2" style="enable-background:new 0 0 219.1 149.2;" xml:space="preserve">
<style type="text/css">
	.st0{fill:#FFFFFF;}
</style>
<g>
	<path class="st0" d="M11.1,121.7H9v4.6c-0.5,0.3-1.2,0.5-2.3,0.5H2.1v-5H0v6.8h6.2c1.6,0,2.4-0.2,2.9-0.6v1.5h2.1v-3h1.9v-1.8h-1.9
		V121.7z"/>
	<path class="st0" d="M0.8,135.8h10.4v-5.7H0.8V135.8z M2.8,132H9v2.1H2.8V132z"/>
	<polygon class="st0" points="13.1,130.4 18.4,130.4 18.4,131.6 13.9,131.6 13.9,133.3 22.7,133.3 22.7,135.9 24.8,135.9 
		24.8,131.6 20.4,131.6 20.4,130.4 25.7,130.4 25.7,128.6 13.1,128.6 	"/>
	<path class="st0" d="M24.8,121.9h-2.1v1.3h-6.6v-1.3H14v5.8h10.8V121.9z M22.7,126h-6.6v-1h6.6V126z"/>
	<path class="st0" d="M36.2,127.3c0,1.3-0.1,2.9-0.4,4h2.1c0.3-1.2,0.4-2.9,0.4-4.4V122H27.2v1.8h9V127.3z"/>
	<polygon class="st0" points="34.6,127.2 32.5,127.2 32.5,133.3 31.1,133.3 31.1,127.2 29,127.2 29,133.3 26.6,133.3 26.6,135.1 
		39,135.1 39,133.3 34.6,133.3 	"/>
	<polygon class="st0" points="51.8,128 42.7,128 42.7,126.7 51.6,126.7 51.6,121.9 40.6,121.9 40.6,123.7 49.6,123.7 49.6,124.9 
		40.6,124.9 40.6,129.8 51.8,129.8 	"/>
	<polygon class="st0" points="39.9,132.8 42.5,132.8 42.5,135.8 44.6,135.8 44.6,132.8 47.7,132.8 47.7,135.8 49.8,135.8 
		49.8,132.8 52.3,132.8 52.3,131 39.9,131 	"/>
	<polygon class="st0" points="56.2,121.3 56.2,122.6 53.2,122.6 53.2,124.3 61.1,124.3 61.1,122.6 58.3,122.6 58.3,121.3 	"/>
	<path class="st0" d="M57.2,129.7c1.1,0,2-0.2,2.7-0.7c0.6-0.4,0.9-1,0.9-1.8c0-0.8-0.3-1.4-0.9-1.8c-0.6-0.5-1.6-0.7-2.7-0.7
		s-2,0.2-2.7,0.7c-0.6,0.4-0.9,1-0.9,1.8c0,0.8,0.3,1.4,0.9,1.8C55.2,129.4,56.1,129.7,57.2,129.7z M55.9,126.6
		c0.3-0.2,0.8-0.3,1.3-0.3s1,0.1,1.3,0.3c0.2,0.1,0.3,0.3,0.3,0.6c0,0.2-0.1,0.4-0.3,0.6c-0.3,0.2-0.8,0.3-1.3,0.3s-1-0.1-1.3-0.3
		c-0.2-0.2-0.3-0.4-0.3-0.6C55.6,126.9,55.7,126.7,55.9,126.6z"/>
	<path class="st0" d="M62.9,131.4h-6.3v-1.2h-2.1v5.6H65v-5.6h-2.1V131.4z M62.9,134.1h-6.3v-1h6.3V134.1z"/>
	<polygon class="st0" points="62.9,124.6 61.1,124.6 61.1,126.2 62.9,126.2 62.9,127.1 61.1,127.1 61.1,128.7 62.9,128.7 
		62.9,129.7 65,129.7 65,121.7 62.9,121.7 	"/>
	<polygon class="st0" points="76.3,123.2 74,123.2 74,125 76.3,125 76.3,125.8 74,125.8 74,127.6 76.3,127.6 76.3,130.3 78.4,130.3 
		78.4,121.7 76.3,121.7 	"/>
	<path class="st0" d="M67.1,125v4.9h5.9c0.8,0,1.5-0.1,2.1-0.3V128c-0.6,0.2-1.3,0.2-2,0.2h-3.9v-1.4h4.4v-4.8h-6.4v1.7h4.4v1.4
		H67.1z"/>
	<polygon class="st0" points="67.7,132.8 76.3,132.8 76.3,135.9 78.4,135.9 78.4,131 67.7,131 	"/>
	<path class="st0" d="M85.2,126.9v-3.1H88V122h-7.6v1.8h2.8v3.1c0,3.9-1.3,5.2-2.9,5.9v1.9c1.7-0.5,3.2-1.7,4-3
		c0.8,1.3,2.3,2.5,3.9,3v-1.9C86.5,132.1,85.2,130.8,85.2,126.9z"/>
	<rect x="89.7" y="121.7" class="st0" width="2.1" height="14"/>
	<polygon class="st0" points="105.1,132.3 105.1,121.7 103.1,121.7 103.1,129.8 100.2,129.8 100.2,131.4 103.1,131.4 103.1,132.3 	
		"/>
	<polygon class="st0" points="96.7,131.7 94.6,131.7 94.6,135.8 105.4,135.8 105.4,134 96.7,134 	"/>
	<path class="st0" d="M93.4,129.3h2.8v2.1h2.1v-2.1h2.1c0.8,0,1.5-0.1,2.1-0.3v-1.6c-0.6,0.2-1.3,0.2-2,0.2h-7.1V129.3z"/>
	<path class="st0" d="M100.8,126.2c0.5-0.4,0.9-1,0.9-1.8c0-0.8-0.3-1.4-0.9-1.8c-0.7-0.6-1.9-0.8-3.1-0.8c-1.2,0-2.3,0.3-3.1,0.8
		c-0.5,0.4-0.8,1-0.8,1.8c0,0.8,0.3,1.4,0.8,1.8c0.7,0.6,1.9,0.9,3.1,0.9C98.9,127.1,100.1,126.8,100.8,126.2z M95.8,124.4
		c0-0.3,0.1-0.5,0.3-0.7c0.3-0.3,0.9-0.4,1.6-0.4c0.7,0,1.3,0.1,1.6,0.4c0.2,0.2,0.3,0.4,0.3,0.7c0,0.3-0.1,0.5-0.3,0.7
		c-0.3,0.3-0.9,0.4-1.6,0.4c-0.7,0-1.3-0.1-1.6-0.4C95.9,124.9,95.8,124.6,95.8,124.4z"/>
	<polygon class="st0" points="116.4,124.6 114.6,124.6 114.6,126.2 116.4,126.2 116.4,127.1 114.6,127.1 114.6,128.7 116.4,128.7 
		116.4,129.7 118.5,129.7 118.5,121.7 116.4,121.7 	"/>
	<path class="st0" d="M116.4,131.4h-6.4v-1.2H108v5.6h10.5v-5.6h-2.1V131.4z M116.4,134.1h-6.4v-1h6.4V134.1z"/>
	<polygon class="st0" points="109.7,121.3 109.7,122.6 106.7,122.6 106.7,124.3 114.6,124.3 114.6,122.6 111.8,122.6 111.8,121.3 	
		"/>
	<path class="st0" d="M110.7,129.7c1.1,0,2-0.2,2.7-0.7c0.6-0.4,0.9-1,0.9-1.8c0-0.8-0.3-1.4-0.9-1.8c-0.6-0.5-1.6-0.7-2.7-0.7
		c-1.1,0-2,0.2-2.7,0.7c-0.6,0.4-0.9,1-0.9,1.8c0,0.8,0.3,1.4,0.9,1.8C108.7,129.4,109.6,129.7,110.7,129.7z M109.4,126.6
		c0.3-0.2,0.8-0.3,1.3-0.3c0.5,0,1,0.1,1.3,0.3c0.2,0.1,0.3,0.3,0.3,0.6c0,0.2-0.1,0.4-0.3,0.6c-0.3,0.2-0.8,0.3-1.3,0.3
		c-0.5,0-1-0.1-1.3-0.3c-0.2-0.2-0.3-0.4-0.3-0.6C109.1,126.9,109.3,126.7,109.4,126.6z"/>
	<path class="st0" d="M129.8,132.5c-0.4,0.4-1.3,0.6-2.4,0.6h-1.9v-1.5c0.5-0.1,1-0.3,1.3-0.6c0.7-0.6,1.2-1.4,1.2-2.5
		c0-1.1-0.5-1.9-1.2-2.5c-0.6-0.5-1.5-0.7-2.4-0.7c-0.9,0-1.8,0.3-2.4,0.7c-0.7,0.6-1.2,1.4-1.2,2.5c0,1.1,0.5,1.9,1.2,2.5
		c0.4,0.3,0.9,0.5,1.4,0.6v1.5h-3.2v1.8h6.7c1.3,0,2.4-0.2,2.8-0.7v1.5h2.1v-14h-2.1V132.5z M123.4,129.6c-0.3-0.3-0.5-0.7-0.5-1.1
		s0.2-0.8,0.5-1.1c0.3-0.2,0.6-0.4,1.1-0.4c0.4,0,0.8,0.1,1.1,0.4c0.3,0.3,0.5,0.7,0.5,1.1s-0.2,0.8-0.5,1.1
		c-0.3,0.3-0.6,0.4-1.1,0.4C124,130,123.7,129.8,123.4,129.6z"/>
	<polygon class="st0" points="128.5,122.9 125.5,122.9 125.5,121.3 123.4,121.3 123.4,122.9 120.5,122.9 120.5,124.7 128.5,124.7 	
		"/>
	<path class="st0" d="M146.6,131.6h-6.4v-0.9h-2.1v5.2h10.6v-5.2h-2.1V131.6z M146.6,134.1h-6.4v-0.8h6.4V134.1z"/>
	<rect x="146.7" y="121.7" class="st0" width="2" height="8.5"/>
	<polygon class="st0" points="145.9,130.3 145.9,121.8 143.9,121.8 143.9,128.5 142,128.5 142,130 143.9,130 143.9,130.3 	"/>
	<path class="st0" d="M136.7,128.2h2.1v1.9h2v-1.9h0.5c0.8,0,1.5-0.1,2.1-0.3v-1.6c-0.6,0.2-1.3,0.2-2,0.2h-4.8V128.2z"/>
	<path class="st0" d="M140.2,126.3c0.9,0,1.7-0.2,2.2-0.7c0.5-0.4,0.8-1,0.8-1.7c0-0.7-0.3-1.3-0.8-1.7c-0.5-0.4-1.3-0.6-2.2-0.6
		c-0.9,0-1.7,0.2-2.2,0.6c-0.5,0.4-0.8,1-0.8,1.7c0,0.7,0.3,1.3,0.8,1.7C138.5,126.1,139.3,126.3,140.2,126.3z M139.3,123.5
		c0.2-0.2,0.5-0.3,0.9-0.3c0.4,0,0.7,0.1,0.9,0.3c0.1,0.1,0.2,0.3,0.2,0.5c0,0.2-0.1,0.4-0.2,0.5c-0.2,0.2-0.5,0.3-0.9,0.3
		c-0.4,0-0.7-0.1-0.9-0.3c-0.1-0.1-0.2-0.3-0.2-0.5C139.1,123.8,139.1,123.6,139.3,123.5z"/>
	<polygon class="st0" points="153.5,130.8 151.4,130.8 151.4,135.8 162.2,135.8 162.2,133.9 153.5,133.9 	"/>
	<rect x="159.8" y="121.7" class="st0" width="2.1" height="9.8"/>
	<path class="st0" d="M150.3,128.4v1.8c1.6-0.2,3.1-1.1,4-2.2c0.8,1.1,2.2,1.8,3.9,2.1v-1.8c-1.8-0.4-2.9-1.4-2.9-3.8v-0.8h2.6v-1.8
		h-7.3v1.8h2.6v0.8C153.2,126.9,152.1,128,150.3,128.4z"/>
	<path class="st0" d="M81,69.7c0-0.8-0.8-1.6,0-2.4c0.4-0.8-0.1-1.1-0.7-1.4c0,0,0-0.1,0-0.1c0,0,0,0,0-0.1c-0.1-0.7,0.8-1.5-0.4-2
		c0,0,0-0.2,0-0.2c0.3-0.8-0.3-1.4-0.4-2.1c-0.2-1.3-1.7-1.8-1.8-3.1c0-0.3-0.3,0.1-0.4,0.2c-0.6-0.1-1-0.6-1-1.1
		c0-0.9-0.5-0.7-0.9-0.6c0,0,0,0,0,0c-0.1-0.2-0.2-0.3-0.3-0.4c-0.4-0.8-1.2-1-1.9-1.5c0,0,0,0,0,0c0,0,0,0,0,0
		c0.1-0.1,0.1-0.3,0-0.5c-0.4-0.3-0.5-0.7-0.5-1.2c0.2-0.6-0.1-1.2-0.1-1.8c0-0.1-0.1-0.2-0.2-0.4c0.1-0.2,0.1-0.5,0.1-0.8
		c0.1-0.4-0.1-1,0.7-0.8c0.2,0.1,0.4,0.3,0.6,0c0.1-0.2,0.1-0.4-0.1-0.6c-0.3-0.2-0.1-0.8-0.7-0.7c-0.1-0.2-0.3-0.3-0.4-0.5
		c0.4-0.7,0.9-1.5,1.5-2.1c0.4-0.4,0.7-1.1-0.2-1.5c-0.6-0.2-0.4-0.5-0.2-0.9c0.3-0.8,0.3-1.5-0.9-1.3c-0.4-0.5-0.9-0.7-1.4-0.1
		C71,42,70.8,42.1,70.5,42c-0.3-0.3-0.7-0.6-1.1-0.5c-1.1-0.2-1.7-1.2-2.7-1.4c-0.3-0.8-0.9-0.3-1.4-0.4c-1.4-0.3-2.8-0.6-4.2-0.1
		c-1.4,0.3-2.8,0.6-3.8,1.7c0,0,0,0,0,0c0,0,0,0,0,0c-0.9-0.1-1.1,0.6-1.4,1.1c0,0,0,0,0,0c-0.9,0.1-1.4,0.6-1.6,1.5c0,0,0,0,0,0
		c0,0.1-0.1,0.1-0.1,0.2c0,0,0,0,0,0c-0.8,0.2-0.9,1-1.3,1.4c-1.3,1.3-2.6,2.7-3.2,4.6c0,0,0,0,0,0c0,0,0,0,0,0
		c-1.3,1.8-2.1,3.8-2.9,5.8c-0.6,1.5-1.2,3-1.7,4.5c-0.7,2-1.1,4.1-1.8,6.1c-1,2.8-1.3,5.7-1.5,8.6c0,0,0,0,0,0
		c-0.4,1.1,0.1,2.2,0,3.3c-0.3,0.5-0.1,1.1-0.1,1.6c-0.1,1.4,1,2.5,1.3,3.8c0.2,1.1,0.5,2.3,1.4,3.1c0.6,0.6,1,1.2,1.1,2
		c0.3,0.3,0.9,0.3,0.9,1c0,0.9,0.6,0.9,1.2,0.5c0,0,0,0,0,0c0.2,0.5,0.5,0.8,1.1,1c1.6,0.5,3,1.6,4.8,1.5c0.1,0,0.2,0.1,0.3,0.2
		c0.5,0.7,1.4,0.6,2.1,0.6c3.7-0.1,7-1.8,10.3-3c0.1,0,0.2-0.1,0.3-0.2c1.3-1.1,2.9-1.6,4.4-2.5c2.6-1.6,4.6-3.6,6-6.3c0,0,0,0,0,0
		c0,0,0,0,0,0c0.2,0,0.5-0.1,0.6-0.3c1-1.7,1.9-3.5,2.2-5.5c1-1.9,0.8-4.1,1.5-6.1C81.2,70.1,81,69.9,81,69.7z M69.9,72.4
		c-1.3,3.7-4.3,5.3-7.8,6.2c-1,0.3-2,0.8-3.1,0.7c-0.2-1.4,0.2-2.7-0.1-4.1c0.2-0.5,0.4-0.9,0.5-1.4c0.8-0.7,0.8-1.9,1.4-2.7
		c1.3-3,2.6-6,4.9-8.4c0.5-0.6,0.9-0.3,1.3-0.1c1.1,0.8,2.3,1.4,2.8,2.8c0,0.1,0.2,0.2,0.4,0.3c0.5,1.4,0.2,2.9,0.5,4.3
		C70.4,70.7,70.2,71.6,69.9,72.4z"/>
	<path class="st0" d="M136.2,41c-0.1,1.4,1,2.5,1.3,3.8c0.2,1.1,0.5,2.3,1.4,3.1c0.6,0.6,1,1.2,1.1,2c0.3,0.3,0.9,0.3,0.9,1
		c0,0.9,0.6,0.9,1.2,0.5c0.2,0.5,0.5,0.8,1.1,1c1.6,0.5,3,1.6,4.8,1.5c0.1,0,0.2,0.1,0.3,0.2c0.5,0.7,1.3,0.6,2.1,0.6
		c3.7-0.1,7-1.8,10.3-3c0.1,0,0.2-0.1,0.3-0.2c1.3-1.1,2.9-1.6,4.4-2.5c2.6-1.6,4.6-3.6,6-6.3c0,0,0,0,0,0c0,0,0,0,0,0
		c0.2,0,0.5-0.1,0.6-0.3c1-1.7,1.9-3.5,2.2-5.5c1-1.9,0.8-4.1,1.5-6.1c0.1-0.3-0.1-0.5-0.1-0.6c0-0.8-0.8-1.6,0-2.4
		c0.4-0.8-0.1-1.1-0.7-1.4c-0.3-0.7,0.9-1.7-0.4-2.2c0,0,0-0.2,0-0.2c0.3-0.8-0.3-1.4-0.4-2.1c-0.2-1.3-1.7-1.8-1.8-3.1
		c0-0.3-0.3,0.1-0.4,0.2c-0.6-0.1-1-0.6-1-1.1c0-0.9-0.4-0.7-0.9-0.6c0,0,0,0,0,0h0c0,0,0,0,0,0c-0.1-0.1-0.2-0.3-0.3-0.4
		c-0.4-0.8-1.2-1-1.9-1.5c0,0,0,0,0,0c0,0,0,0,0,0c0.1-0.1,0.1-0.3,0-0.5c-0.4-0.3-0.5-0.7-0.5-1.2c0.2-0.6-0.1-1.2-0.1-1.8
		c0-0.1-0.1-0.2-0.2-0.4c0.1-0.2,0.1-0.5,0.1-0.8c0.1-0.4-0.1-1,0.7-0.8c0.2,0.1,0.4,0.3,0.6,0c0.1-0.2,0.1-0.4-0.1-0.6
		c-0.3-0.2-0.1-0.8-0.7-0.7c-0.1-0.2-0.3-0.3-0.4-0.5c0.4-0.7,0.9-1.5,1.5-2.1c0.4-0.4,0.7-1.1-0.2-1.5c-0.6-0.2-0.4-0.5-0.2-0.9
		c0.3-0.8,0.3-1.5-0.9-1.3c-0.4-0.5-0.9-0.7-1.4-0.1c-0.2,0.2-0.4,0.3-0.7,0.3c-0.3-0.3-0.7-0.6-1.1-0.5c-1.1-0.2-1.7-1.2-2.7-1.4
		c-0.3-0.8-0.9-0.3-1.4-0.4c-1.4-0.3-2.8-0.6-4.2-0.1c-1.4,0.3-2.8,0.6-3.8,1.7c-0.9-0.1-1.1,0.6-1.4,1.2c0,0,0,0,0,0c0,0,0,0,0,0
		c-0.9,0.1-1.4,0.6-1.6,1.5c0,0,0,0,0,0c0,0.1-0.1,0.1,0,0.2c0,0,0,0,0,0c0,0,0,0,0,0c-0.8,0.2-0.9,1-1.3,1.4
		c-1.3,1.3-2.6,2.7-3.2,4.6c0,0,0,0,0,0c-1.3,1.8-2.1,3.8-2.9,5.8c-0.6,1.5-1.2,3-1.7,4.6c-0.7,2-1.1,4.1-1.8,6.1
		c-1,2.8-1.3,5.7-1.5,8.6c0,0,0,0,0,0c-0.4,1.1,0.1,2.2,0,3.3C136,39.9,136.2,40.4,136.2,41z M164.5,33c-1.3,3.7-4.3,5.3-7.8,6.2
		c-1,0.3-2,0.8-3.1,0.7c-0.2-1.4,0.2-2.7,0-4.1c0.2-0.5,0.4-0.9,0.5-1.4c0.8-0.7,0.8-1.9,1.4-2.7c1.3-3,2.6-6,4.9-8.4
		c0.5-0.6,0.9-0.3,1.3-0.1c1.1,0.8,2.3,1.4,2.8,2.8c0,0.1,0.3,0.2,0.4,0.3c0.5,1.4,0.2,2.9,0.5,4.3C165.1,31.3,164.8,32.2,164.5,33z
		"/>
	<path class="st0" d="M218,30.9L218,30.9c-0.4-1.2-1.2-1.4-2.2-0.9c-0.3-0.2-0.5-0.5-0.7-0.8c0.3-0.3,0.8-0.6-0.1-0.8
		c-0.5-0.1-1-0.1-1.6,0c-0.2-0.2-0.5-0.5-0.7-0.7c0-0.5-0.3-1.4-0.7-1.1c-0.7,0.5-1.6,0.3-2.1,1c-0.2-0.2-0.4-0.1-0.7,0
		c-1.9,0.3-3.6,1-5.3,1.8c-0.4,0.6-1,0.6-1.5,0.7c-0.8,0.1-1,1.4-2,1.1c-0.9,0.6-1.9,1.2-2.8,1.7c-0.8,0.6-1.9,0.9-2.3,2
		c-1.4,0.1-2.3,0.9-2.4,1.9c-1.8,1.7-4.1,2.6-6.1,4c-1.1,0.8-1.6,2.2-3,2.6c-0.1,0-0.1,0.2-0.1,0.3c-1.1-0.1-1.8,0.2-1.9,1.4
		c-1,0.5-1.7,1.3-2.6,1.9c-1-0.7-1.1,0-1.1,0.8l0,0c-1.2-0.3-1.6,0.6-2.2,1.4c-0.2,0.2-0.5,0.5-0.8,0.5c-0.8,0-0.9,0.4-0.8,1.1l0,0
		c0,0,0,0,0,0c-0.2,0.2-0.4,0.5-0.7,0.5c-0.9,0-1.2,1-2.1,1.4c-0.5,0.2-1.2,1.2-1.8,1.7c-2.1,1.9-4.6,3.3-6.6,5.4
		c-0.7,0.8-2,1.3-2.6,2c-0.7,0.9-1.7,1.6-2.4,2.4c-2.4,2.4-5.1,4.5-7.7,6.7c-1.8,1.5-3.6,3.1-5.5,4.5c-2.1,1.6-4.3,3.1-6.4,4.6
		c0,0,0,0,0,0c0,0,0,0,0,0c-0.5-0.1-1,0.1-1.5,0.3c-1,0.3-2,0.7-3,1.1c-1,0.4-2.2-0.2-3.1,0.5c-0.2,0.1-0.4,0-0.5-0.1
		c-0.4-0.7-0.8-0.3-1.2-0.1l0,0c-0.9-0.7-1.8-1.5-3.1-1.4c-0.6,0-0.8,0.6-1.4,0.8c-1.2,0.3-1.5,1.2-1.2,2.4c0.2,0.6,0.4,1.3,0.2,1.9
		c-0.3,1,0,1.6,0.7,2.1c0.8,1.4,2,2.5,3.5,3.1c0.5,0.2,0.9,0.9,1.5,0.3c1.5,0.7,3.2,0.4,4.8,0.4c0.5,0,1.2,0.2,1.6-0.3
		c3.5-0.3,6.5-1.9,9.5-3.8c2.8-1.5,5.4-3.5,8-5.4c3.4-2.4,6.6-5.1,9.9-7.7c2.8-2.3,5.6-4.6,8.4-6.8c0.3-0.2,0.9-0.1,0.9-0.7
		c2.3-1.7,4.6-3.5,6.9-5.2c4.1-3.2,8.5-6,12.7-9.1c0.6-0.2,1.2-0.3,1.7-0.8c0.7-0.3,1.3-0.9,2-1.4c0.1-0.3,0.4-0.5,0.5-0.8
		c0.3-0.2,0.7-0.5,1-0.7c1.1,0.3,1.2-1.1,2.1-1.2c0.2-0.4,0.7-0.1,0.8-0.4c0.6-1.1,1.9-1.3,2.8-2c1.1-0.2,2-0.9,3-1.3
		c0.2-0.3,0.5-0.4,0.8-0.6c1.3-0.6,2.8-0.8,4-1.7c0,0,0,0,0.1,0c0,0,0.1,0.1,0.2,0.1c1.2-0.3,2.6-0.2,3.4-1.4
		c0.7-0.3,1.2-0.8,1.8-1.3c0.5-0.5,0.6-1.3,1.1-1.6c0.8-0.3,1.1-0.9,1.3-1.6c0.6-1.1,0.2-2.3,0.3-3.5
		C219.1,31.9,219.2,30.7,218,30.9z"/>
	<path class="st0" d="M118.6,18.7c0.2-1.5-0.1-2.9-0.7-4.1c-0.1-0.3-0.2-0.4,0-0.7c0.5-0.9,0.1-1.3-0.6-1.4
		c-0.6-1.7-1.3-3.3-2.8-4.1c-0.2-0.2-0.4-0.3-0.6-0.5c-2.1-1.4-4,0-6,0.5c-0.8,0.1-1.3,0.9-1.8,1.6l0,0c-0.3,0.3-0.5,0.5-0.8,0.8
		c-0.2,0.8,0,1.9-0.9,2.3c-0.1,0,0.1,0.3,0.3,0.4c0,0.1,0,0.1,0,0.2h0c-0.6,0.5-0.6,1.4-1,2v0l0,0c-0.4,0.1-0.4,0.7-0.6,1
		c0.1,1.2,0.6,2.2,1.1,3.2c0.1,0.1,0,0.5,0.3,0.3c1-0.8,0.5,0.5,0.8,0.8c0.6-1.1,1.5-0.5,2.3-0.7c0,0,0,0.1,0,0.1
		c-0.1,0.2-0.1,0.4,0,0.6c0,0.2-0.1,0.5-0.1,0.7c-0.1,0.1-0.2,0.2-0.2,0.3c-0.2,0.5-0.5,0.9-0.5,1.4c0,0.9-0.9,1.8-0.1,2.7
		c-0.3,0.2-0.3,0.5-0.4,0.7c-0.7,0.5-0.7,1.3-0.6,2.1c-0.2,0.1-0.1,0.3-0.2,0.5c-0.6,0.5-0.6,1.2-0.6,2c0,0.9-0.1,1.8-0.5,2.4
		c-0.4,0.7-0.5,1.1-0.2,1.8c0,0,0,0,0,0l0,0v0c0,0,0,0,0,0l0,0c-0.6,0.9-0.8,2-1,3c-0.1,0.7-0.8,1.4-0.4,2.3
		c-0.1,0.1-0.1,0.1-0.2,0.2c-0.8,0.6,0,1.7-0.4,2.4c-0.4,0.3-0.6,0.7-0.6,1.2c-0.2,2-1.2,3.7-1.2,5.7c-0.9,0.7-0.7,1.9-0.8,2.9
		c0,0.9-0.5,1.6-0.7,2.5c-0.3,1.4-0.2,3.1-1.2,4.3c-0.2,0.2-0.4,0.6-0.1,0.9c-0.5,0.8-0.5,1.8-0.8,2.7c-0.1,0.5,0.1,0.5,0.4,0.6
		c0,0.1,0,0.1,0,0.2c-1,1.4-1.2,3.1-1.4,4.8c-0.3,0.5,0.1,1-0.1,1.5c-0.6,1.5-0.8,3.1-0.9,4.7c-0.3,0.3-0.5,0.7-0.4,1.2
		c0.1,0.4,0.2,0.7,0,1.1c-0.5,1.2-0.8,2.4-0.5,3.7c0-0.1,0.1-0.3,0.1-0.4c0,0.1,0,0.3-0.1,0.4c-0.2,0.1-0.1,0.3-0.1,0.5
		c-0.4,0.9-0.4,1.8,0,2.7c-0.8,0.8-0.7,1.8-0.6,2.9c-0.2,0.3-0.5,0.7-0.3,0.9c0.4,0.6,0.1,1.1,0,1.6c-0.1,0.5-0.1,1-0.1,1.4
		c0.1,1.2-0.1,2.5,0.2,3.7l0,0c-0.3,0.8,0.2,1.5,0.2,2.2c0,0.1,0,0.1,0,0.2c-0.1,1.5,0.3,2.5,1.6,2.9c0.1,0.2,0.1,0.4,0.2,0.7
		c-0.1,0.6,0,1.3,0.2,1.9c0.1,0.5,0.4,0.8,0.7,1.2c0.1,0.1,0.2,0.2,0.3,0.3c0.1,0,0.2,0,0.3,0.1c0,0.2,0.1,0.3,0.1,0.5
		c0.5,0.2-0.1,1.2,0.6,1.4c0.3,0.3,0.4,0.7,0.6,1.1c0.5,0.9,1.2,1.5,2.1,1.5c0.5,0,0.7-0.9,1.3-0.6c0.1,0,0.1,0.1,0.2,0.1
		c0,0.1,0,0.1,0,0.2c0,0.8,0.6,1.2,1,1.7c1.1,0.7,2.1,0.5,2.8-0.7c0.1-0.1,0.2-0.1,0.3-0.2c0.9-0.2,1.5-0.6,2-1.7
		c0.3-0.6,0.5-1,0.2-1.7l0,0c0.6-0.4,1.2-0.2,1.8,0.2v0c0.5,0.1,1,0,1.1-0.6c0.1-0.6,0.7-1.2,0-1.7v0c0.2-0.6,0.6-0.9,1-0.9
		c0.7,0,0.3-0.5,0.4-0.7c0,0-0.1,0-0.1-0.1l0,0c0,0,0,0,0,0c0,0,0,0.1,0,0.1c1.8,0,2.2-0.3,2.6-1.8c0.1-0.4,0.1-0.9-0.3-0.9
		c-0.9-0.1-1.2-0.4-1-1.5c0.1-0.4-0.4-0.5-0.8-0.5c0.4-1.2-0.3-2.1-0.6-3.1c-0.3-1.2-1.4-2-1.3-3.5c0-0.3-0.3-0.4-0.5-0.3
		c0.4-1.7,0.1-3.3,0-5c0.1-0.2,0.1-0.4,0-0.7c0-0.9,0-1.8,0-2.7c0.5-1,0.3-2.1,0.3-3.2c0-0.9,0.7-1.7,0.3-2.5
		c-0.4-0.9-0.2-1.5,0.4-2.2c0.1-0.2,0.1-0.5,0.1-0.8c0.4-1.1,0.1-2.3,0.5-3.4c0.1-0.3-0.1-0.4-0.3-0.5c0-0.1,0-0.1,0-0.2
		c0.7-0.3,0.3-0.7,0.1-1.1c-0.4-0.6-0.2-1,0.2-1.4c0.6-0.7,0.9-1.6,0.6-2.6c0.1-0.1,0.1-0.3,0.2-0.4c0-0.5,0.4-0.9,0.2-1.4
		c0.3-1.4,0.5-2.7,0.8-4.1c0.3-0.4,0.2-0.9,0.2-1.4c0.5-0.7,0.2-1.6,0.6-2.4c0.1-0.7,0-1.3-0.6-1.7c0.3-0.2,0.9-0.3,0.8-0.8
		c-0.1-0.8,0.3-1.4,0.3-2.1c0-0.1,0.2-0.4,0.1-0.4c-0.5-0.6-0.2-1.1,0.2-1.6c0.1-0.1,0.1-0.3,0.1-0.4c-0.1-0.5,0.1-0.8,0.3-1.2
		c0.2-0.5,0.1-0.9-0.5-0.9c-0.3-0.8,0.5-0.8,0.6-1.2c0.4-1,0.4-2.1,0.5-3.1c0.2-0.5-0.4-0.9-0.2-1.1c0.9-0.9,0.5-2.2,0.9-3.2
		c0.1-0.7-0.6-0.8-0.6-1.4c1.1-0.6,1.4-1.7,0.8-2.7c0.1-0.1,0.1-0.3,0.2-0.4c0.7-0.4,0.2-1.1,0.5-1.7c0.1-0.7,0.5-1.6,0-2
		c-0.9-0.8-0.3-1.3,0.1-1.9c0.2-0.3,0.4-0.5,0.5-0.9c0.1-1.4,0.1-2.9,0.2-4.3c0,0,0,0,0,0C119,20.5,118.6,19.6,118.6,18.7z"/>
	<path class="st0" d="M197.7,64c-1.6-0.4-3.5-0.7-4.7,0c-1.8,0.9-3.9,1.3-5.4,2.6c-1.9,1.5-4.1,2.8-5.8,4.5c-1.1,0.4-1.6,1.3-2.3,2
		c-0.4,0.2,0,0.5-0.3,0.7c-1.4,1-2.2,2.5-3.5,3.5c-1.1,0.9-2,2.1-2.8,3.2c-0.1,0.1-0.2,0.2-0.3,0.2c-1,0.9-1.6,2-2.5,2.9
		c-1,1.1-1,1.2,0.2,1.5c0.1,0.5-0.7,0.8-0.5,1.4c-0.3,0.2-0.5,0.3-0.4,0.8c0.4,1.3-0.1,3,1.9,3.6c0.1,0,0.1,0.1,0.1,0.2
		c0.8,1.5,2,1.9,3.9,1.3c0.1-0.1,0.3-0.1,0.4-0.1c-0.1,0-0.3,0.1-0.4,0.1c0.6,0.1,1.2,0.1,1.8,0.2c0.6,0.1,1.1,0,1.1-0.7
		c0.1,0,0.2,0,0.2-0.1c0.7-0.1,1.4,1.7,2.2,0c0,0,0.2,0,0.4,0.1c0.4,0,0.8-0.2,1-0.5c0.7-0.9,1.3-1.9,2-2.8c0.2-0.6,0.7-1.1,1-1.6
		c1-1.8,2.3-3.4,3.7-4.9c0.1-0.7,0.2-1.4,1.2-1.5c0.2,0,0.4-0.3,0.6-0.4l0,0c0.6-0.4,0.6-1.3,1.5-1.5c0.1-0.1,0.2-0.1,0.3-0.2
		c0.5-0.5,0.8-1.2,1.5-1.5c0.2-0.1,0.3-0.2,0.6-0.2c0.4,0.1,0.4,0.4,0.5,0.7c-0.2,0.5-0.2,0.9-0.2,1.4c0.3,2.2-0.3,4.3-0.9,6.3
		c-0.5,0.6-0.2,1.3-0.4,2c-0.2,0.8-0.2,1.6-1,2.2c-0.3,0.5-0.4,1.1-0.3,1.6c-0.3,0.3,0.2,0.7-0.2,1c-0.9,0.7-0.9,1.8-1.2,2.7
		c0.1,1.7-1,3.1-1.7,4.6c-0.5,1.1-1.1,2.1-1.2,3.3c-0.3,0.8-0.7,1.6-1,2.4c-0.9,0.7-1.1,1.7-1.2,2.7c-0.4,0.6-0.8,1.2-0.8,1.9
		c-0.3-0.2-0.6-0.5-1.1-0.4l0,0c0.8-0.7,0.3-1.2-0.3-1.7c-0.1-0.1-0.2-0.2-0.3-0.2c-0.9-1-2.4-1.3-3.2-2.3c-0.5-0.6-0.9,0.3-1.3,0.1
		c-0.2-0.4,0.3-1-0.3-1.3c-0.8-0.6-1.7-1-2.1-1.9c-0.4-0.7-1.4-0.8-1.7-1.6c-0.6-0.2-0.9-0.6-1-1.1c-0.2-0.6-0.6-1.1-1.1-1.5
		c-0.2-0.7-0.6-1.3-1.3-1.7c-0.1-0.4,0.1-0.9-0.5-1c-1.2-0.2-1.6-1.4-1.6-1.8c-0.3-2.1-1.9-3.5-2.9-5.2c-0.8-0.5-1.4-1.2-1.7-2.1
		c-0.7-0.2-0.8-1.1-1.6-1.2c-1-1.2-2-1.5-3.3-0.8c-3.2-0.9-5.8,0.3-7.1,3.1c-0.1,0.3-0.3,0.6-0.5,0.9c-1,2-1.6,4.1-1.1,6.2
		c0.5,1.9,1.3,3.6,2.3,5.3c1,1.6,2.2,3,3.3,4.4c0.9,1.1,1.9,2.1,2.8,3.1c0.8,1,1.7,1.9,3,2.3l0,0c0,0.4,0.2,0.7,0.6,1
		c1.1,0.8,2.3,1.4,3.5,2c0.3,0.4,0.5,0.7,1.2,0.8c1.2,0.2,2.4,0.6,3.1,1.7c0.6,0,1.1,0.2,1.7,0.3c0.9,0.2,1.8,0.7,2.8,0.3
		c1.9,0,3.9,0.6,5.7-0.4c0.4-0.2,0.9-0.6,1.3-0.2c0.3,0.4-0.2,0.7-0.5,1c-0.1,0.1-0.1,0.4-0.1,0.6c-0.3,1.5-1.4,2.8-1.8,4.2
		c-0.5,1.5-1.3,2.9-1.8,4.3c-1,1-1.2,2.4-1.8,3.6c-0.4,0.4,0,1-0.3,1.4c-1,0.6-1,1.5-1.2,2.5l0,0c-0.9,0.4-0.4,1.3-0.7,2
		c-0.3,0.7-0.6,1.4-0.8,2.1c-1.1,2.8-2.4,5.6-3.3,8.5c-0.5,1.6-0.2,2.7,1.5,3.9c0,0.1,0,0.2,0,0.2c1.4,0,2.8-0.1,4.2-0.1
		c0.3-0.2,0.7-0.4,0.8-0.7c0.2-0.6,0.7-1.5,0.9-1.5c1-0.3,1.1-1.1,1.6-1.7c0.7-1,1.4-2,2.1-2.9c-0.1-0.5-0.2-0.9,0.4-1.3
		c0.5-0.4,0.8-1.1,0.9-1.7c0-0.2,0-0.4,0.3-0.5c0.9-0.4,0.9-1.1,0.9-1.9c1.4-0.5,1.3-1.7,1.5-2.7c0.5-0.9,1-1.8,1.5-2.7
		c0.8-1.5,1.7-3,2.2-4.6l0,0c0.5-0.9,1.1-1.9,1.6-2.8c0.2-0.4,0.1-0.8-0.2-1.1c0.8-0.9,1.5-1.8,1.5-2.9c0.6-0.7,1.3-1.3,1.4-2.3
		c0-0.2,0-0.3,0-0.5c0.6-0.8,1.5-1.5,1.1-2.7c0.2-0.2,0.5-0.4,0.5-0.7c0.7-0.7,1.1-1.7,1.5-2.5c0.2-0.4,0.2-0.6-0.3-0.7
		c0.8-1.4,1.5-2.9,2.5-4.2c0.4-0.6-0.2-1.2,0.3-1.7c1.4-1.3,1.2-3.1,2.1-4.6c0.5-0.9,0.3-2,1.1-2.8c0.6-0.5,0.6-1,0.5-1.6
		c0.6-0.8,1-1.7,0.9-2.7c0.1-0.1,0.2-0.2,0.3-0.3c0.2-0.4-0.2-1,0.3-1.2c0.9-0.3,0.6-1,0.6-1.5c-0.1-0.5,0-0.9,0.3-1.4
		c0.2-0.5,0.6-1,0.6-1.5c-0.1-2.5,0.9-4.9,0.8-7.4c0-2.2,0.4-4.4,0.1-6.5C205.5,67.9,202.7,65.3,197.7,64z"/>
</g>
</svg>
