<svg id="레이어_1" data-name="레이어 1" xmlns="http://www.w3.org/2000/svg" viewBox="0 0 188.99 40.92"><defs><style>.cls-1{fill:#6d6e70;}.cls-2{fill:#00b2ef;}.cls-3{fill:#344ea1;}</style></defs><title>logo_sonosa</title><path class="cls-1" d="M0,26l1.64-.59.87,2.44-1.64.59Zm1.35.24-.6.21.41,1.16.6-.21Zm2,.44-.51.18a16.19,16.19,0,0,1-.76-1.62l-.27-.75L4,23.77l.23.64L2.61,25l.11.3A10.64,10.64,0,0,0,3.39,26.72Zm.9.55.21.6-.54.2-.21-.61-1.06.38-.23-.64L5,26.29l.23.63Z"/><path class="cls-1" d="M4.29,30.7l-1-1.48.45-.32,2.49,3.54-.45.31-1-1.47-.29.21.59.83-1.29.91-.39-.55.84-.59L2.91,30.34,3.37,30l.62.89Zm1.63-2.39.39.55L6,29.07l.79,1.13L7.1,30l.39.55L6,31.61,4.39,29.39Zm-.37,1.08-.33.23L6,30.74l.33-.23Z"/><path class="cls-1" d="M7.07,34.18l.8-1,.5.41-.8,1,.33.26.79-1,.5.4-.8,1,1.22,1-.35.44L5.93,34l.35-.44Zm2.15,1.34-.5-.41A15.34,15.34,0,0,0,10,33.76L8.21,32.34l.35-.44,2.28,1.84A19.29,19.29,0,0,1,9.22,35.52Z"/><path class="cls-1" d="M11.35,37.39l-1-.43.22-.5,3.94,1.71-.21.5-1-.44-.4,1-.64-.27.41-.95L12,37.67l-.4.94-.65-.27Zm2.47-1.33.11-.27L12.05,35l.21-.5,2.53,1.09-.53,1.24L12.38,36l-.12.27,2,.85-.22.51L11.39,36.5l.54-1.25Z"/><path class="cls-1" d="M17.48,36.37l1,.14-.07.52.33,0,.12-.87.67.09-.35,2.58-.67-.1.06-.39-.51-.07.07-.52.51.07,0-.28-.51-.07.07-.49L18,37a.92.92,0,0,1,.13.61,1.17,1.17,0,0,1-2.31-.32,1,1,0,0,1,.28-.55l-.46-.06.08-.54,1.06.14.07-.5.71.1Zm-.9,2.31.67.09-.05.38,1.23.17.05-.39.67.1-.25,1.89-2.57-.35Zm.89-1.19a.51.51,0,1,0-1-.14.55.55,0,0,0,.43.6A.56.56,0,0,0,17.47,37.49Zm.89,2.36-1.23-.16-.06.43,1.23.16Z"/><path class="cls-1" d="M23.46,37.93l.07.52a16.1,16.1,0,0,1-2,.45l-.74.11-.22-1.54,1.32-.19-.06-.45L20.53,37l-.07-.54,2-.28.21,1.5-1.32.19.07.47.37,0A16.47,16.47,0,0,0,23.46,37.93Zm-1.64,1.78-.08-.54,2.65-.38.24,1.69-.67.1-.16-1.15Zm1.58-3.29-.08-.52.67-.09.4,2.81-.67.09-.13-1-.74.11-.08-.53.74-.11,0-.28-.74.11-.07-.53Z"/><path class="cls-1" d="M26,36l-.77.34L25,35.78l2.18-1,.23.53-.79.35a2.62,2.62,0,0,0,.56.75,2.43,2.43,0,0,0,1.17.44l-.16.56a2.5,2.5,0,0,1-.68-.14,3.42,3.42,0,0,1-.66-.29,3.09,3.09,0,0,1-.21.66,3.88,3.88,0,0,1-.38.69l-.55-.24a3,3,0,0,0,.48-1.28A2,2,0,0,0,26,36Zm3.11,2.13-1.62-3.69.62-.27,1.62,3.69Z"/><path class="cls-1" d="M29.8,32.93a1,1,0,1,1-.27,1.53A1.11,1.11,0,0,1,29.8,32.93Zm.94,1.14a.49.49,0,0,0,.08-.66.48.48,0,0,0-.75.61A.48.48,0,0,0,30.74,34.07Zm.48,1.14-.1.09-.79.65-.33-.4.65-.54c.48-.39,1.36-1.21,1.66-1.53l.33.4c-.17.19-.53.53-.9.88l.39.47-.53.44Zm1.94-.89-.74.61-.32-.39.74-.61-1.71-2.08.52-.43,2.27,2.77-.52.42Zm-1.47,1.46.53-.43.45.54,1.61-1.32.36.44L32.5,36.76Z"/><path class="cls-1" d="M33.4,29.74l.6-.86.43.3.2-.28-.72-.5.38-.55,2.14,1.48-.39.55-.33-.23-.29.43-.43-.3.3-.42-.23-.16-.3.42-.41-.28-.16.23a.87.87,0,0,1,.6.16,1.17,1.17,0,0,1-1.33,1.91,1,1,0,0,1-.36-.5l-.27.38-.45-.31.61-.88L32.58,30l.41-.59Zm1,.52a.5.5,0,1,0,.16.72A.56.56,0,0,0,34.39,30.26Zm.66,1.33.39-.56.32.22.7-1L36.14,30l.39-.56,1.57,1.09-1.48,2.13Zm1.86-1-.71,1,.36.25.7-1Z"/><path class="cls-1" d="M35.58,25.65l.3-.85.52.18-.14.4a.94.94,0,0,1,.68,0,1,1,0,0,1,.69,1l.25.09c.12-.44.23-.86.28-1.11l.51.18c-.07.35-.37,1.44-.55,2l-.3.85-.51-.18.24-.68.14-.43L37.44,27a1,1,0,0,1-1.21.41,1,1,0,0,1-.52-.43l-.15.42L35,27.21l.32-.9-.48-.17.23-.65Zm3.88,0-3.79-1.31.22-.63L39.68,25Zm-2.74.31a.5.5,0,0,0-.62.27.49.49,0,0,0,.93.33A.5.5,0,0,0,36.72,25.94Z"/><path class="cls-1" d="M1.13,17.47h0a.25.25,0,0,0,.33-.22.25.25,0,0,0-.21-.33c-.36-.05-.43.67-.91.6A.43.43,0,0,1,0,17a.41.41,0,0,1,.54-.37l0,.21c-.18,0-.3,0-.33.21a.22.22,0,0,0,.2.28c.35.05.41-.68.92-.6.34.05.41.3.37.57a.43.43,0,0,1-.58.39Z"/><path class="cls-1" d="M1.21,16.53C.88,16.46.62,16.37.7,16s.36-.36.69-.29c.49.1.52.3.47.54S1.7,16.63,1.21,16.53Zm.06-.67c-.3-.07-.39,0-.42.15s0,.25.32.32.5.05.54-.13S1.63,15.94,1.27,15.86Z"/><path class="cls-1" d="M1,14.76l0-.17.87.23.23,0,0,.19L2,15H2a.34.34,0,0,1,.08.32.27.27,0,0,1-.36.22l-.84-.23.05-.17.76.2c.13,0,.24,0,.27-.13s0-.23-.2-.28Z"/><path class="cls-1" d="M1.15,14.33,1,14.26l0-.2.29.09.07-.23.14,0-.08.23L2,14.4c.06,0,.15,0,.2-.11,0,0,0,0,0-.08l.13,0a1.13,1.13,0,0,1,0,.18c-.06.17-.15.22-.27.18l-.77-.24-.06.18-.13,0Z"/><path class="cls-1" d="M2.59,13.63l-.73-.26c-.13,0-.24,0-.29.11s.06.27.24.33l.63.23-.06.17L.85,13.66l.06-.17.6.21h0a.29.29,0,0,1-.05-.34c.06-.18.19-.25.43-.17l.76.27Z"/><path class="cls-1" d="M2.07,13l.18-.46.16.07-.18.46Z"/><path class="cls-1" d="M2,11l1.47.69-.12.25-1.55,0h0l1.27.6L3,12.65,1.51,12l.12-.26,1.53,0h0l-1.26-.6Z"/><path class="cls-1" d="M3.06,11.21c-.29-.16-.52-.33-.33-.67s.45-.25.74-.09.41.45.3.66S3.5,11.45,3.06,11.21Zm.25-.63c-.27-.15-.38-.1-.44,0s-.06.24.21.39.46.2.56,0S3.64,10.76,3.31,10.58Z"/><path class="cls-1" d="M3.33,9.9h0c-.11-.16-.08-.25,0-.4l.16.1-.06.07c-.11.18,0,.3.13.38l.57.35-.1.16-1-.59.09-.16Z"/><path class="cls-1" d="M3.45,9.39l-.18-.12,0-.2.25.16L3.69,9l.11.07-.13.21.58.38c.06,0,.13.09.23,0l0-.07.12.07c0,.06,0,.12-.08.17s-.2.17-.31.1l-.68-.45-.1.16-.11-.08Z"/><path class="cls-1" d="M5,9.1,4.4,8.65c-.11-.08-.22-.1-.31,0s0,.27.14.38l.54.39-.11.15L3.35,8.66l.1-.15L4,8.88H4a.3.3,0,0,1,0-.35c.11-.16.25-.19.46,0L5.13,9Z"/><path class="cls-1" d="M5.51,8.46l-1.24-1,.14-.16L5,7.72H5l-.17-.89.15-.18.18.92,1.08.1L6,7.87,5,7.75H5l.64.55Z"/><path class="cls-1" d="M5.8,7.28c-.24-.23-.41-.45-.14-.74s.5-.12.74.11.28.53.12.71S6.17,7.62,5.8,7.28Zm.41-.54c-.23-.22-.34-.19-.44-.09s-.12.22.11.43.4.31.53.17S6.48,7,6.21,6.74Z"/><path class="cls-1" d="M6.4,6.08h0c-.07-.18,0-.26.12-.39l.13.14-.08.06c-.15.14-.08.29,0,.4l.46.48-.13.13-.79-.82L6.28,6Z"/><path class="cls-1" d="M7.19,6c.2.23.31.23.42.13a.2.2,0,0,0,0-.29l.16-.14a.35.35,0,0,1-.06.54c-.18.16-.37.23-.7-.14s-.37-.49-.08-.75.42-.13.67.15l.07.08Zm.24-.4c-.22-.25-.32-.22-.42-.13s-.12.18.08.42Z"/><path class="cls-1" d="M8.49,5.33h0a.28.28,0,0,1-.11.32c-.19.15-.34.07-.48-.1s0-.49.25-.65c-.09-.12-.19-.25-.34-.12A.15.15,0,0,0,7.8,5l-.16.13a.32.32,0,0,1,.09-.51.31.31,0,0,1,.5,0l.34.43a1.71,1.71,0,0,0,.18.2l-.16.13Zm-.43.12a.18.18,0,0,0,.27,0c.09-.07.15-.21-.09-.49C8.1,5.12,7.91,5.26,8.06,5.45Z"/><path class="cls-1" d="M9.26,5l-.9-1.35.69-.47.1.15-.52.35.29.44.49-.33.1.15L9,4.23l.31.46.54-.35.1.15Z"/><path class="cls-1" d="M10.78,4l-.21.12-.47-.26,0,.53L10,4.5V3.81l-.55-.3.2-.12.39.24V3.16L10.16,3v.64Z"/><path class="cls-1" d="M11,3c-.08-.17-.19-.17-.25-.14s-.18.18,0,.45.27.42.44.33.13-.12,0-.3l.17-.09a.35.35,0,0,1-.13.52c-.21.12-.41.14-.65-.3s-.25-.55.1-.74a.32.32,0,0,1,.49.18Z"/><path class="cls-1" d="M12.25,3.26l-.32-.7c-.06-.13-.14-.2-.29-.13s-.14.23-.06.4l.28.61-.17.08L11,2.05,11.17,2l.27.57h0a.29.29,0,0,1,.21-.28c.17-.09.31,0,.42.19l.34.73Z"/><path class="cls-1" d="M13.08,2.73h0a.27.27,0,0,1-.19.28c-.23.09-.35,0-.43-.23s.18-.46.42-.55c0-.14-.11-.29-.29-.22a.17.17,0,0,0-.09.26l-.19.07c-.09-.24,0-.37.23-.46s.4,0,.47.18l.2.51c0,.08.08.16.13.24l-.19.07Zm-.45,0a.17.17,0,0,0,.24.12c.1,0,.21-.16.05-.49C12.76,2.43,12.54,2.5,12.63,2.73Z"/><path class="cls-1" d="M14.1,2.54l-.25-.75a.2.2,0,0,0-.27-.14c-.19.06-.16.24-.11.39l.22.64-.17.06-.29-.86-.09-.22.18-.06,0,.14h0a.3.3,0,0,1,.23-.26c.23-.08.34,0,.41.25l.25.75Z"/><path class="cls-1" d="M14.73,1.16l.17,0,.34,1.21c.07.24-.07.34-.31.41s-.38,0-.42-.2l.2,0a.16.16,0,0,0,.21.11.18.18,0,0,0,.14-.24L15,2.12h0a.3.3,0,0,1-.2.21c-.3.08-.43-.16-.52-.48-.14-.51.1-.61.19-.64a.29.29,0,0,1,.3.09h0Zm-.18.19c-.2,0-.14.3-.09.44.09.35.2.41.33.38s.14-.32.09-.47S14.78,1.28,14.55,1.35Z"/><path class="cls-1" d="M15.48,1.62c.07.31.16.35.3.32a.2.2,0,0,0,.15-.26l.2,0a.35.35,0,0,1-.31.44c-.23.06-.44,0-.55-.46-.07-.32-.09-.6.29-.69s.43.09.52.45l0,.1Zm.4-.24c-.08-.32-.17-.34-.31-.31s-.19.1-.12.41Z"/><path class="cls-1" d="M16.72,1.91c-.25,0-.41,0-.45-.3l.2,0c0,.07,0,.22.23.19a.17.17,0,0,0,.16-.21c0-.2-.59-.1-.65-.44,0-.12,0-.32.33-.37s.39,0,.41.25l-.2,0a.16.16,0,0,0-.21-.15c-.1,0-.16.08-.14.18s.59.1.65.44S16.94,1.87,16.72,1.91Z"/><path class="cls-1" d="M17.86.09l.26,0,.68,1.57-.23,0-.16-.37-.62.06-.09.39-.2,0ZM18,.27h0l-.18.88.52,0Z"/><path class="cls-1" d="M19.47,1.62l0-.79c0-.12-.05-.22-.21-.21S19,.8,19,1l0,.67h-.18l0-.9a1.94,1.94,0,0,0,0-.24H19V.64h0a.31.31,0,0,1,.3-.18c.24,0,.3.14.31.36l0,.79Z"/><path class="cls-1" d="M20.48,0h.19l0,1.63h-.18V1.49h0a.31.31,0,0,1-.27.15c-.18,0-.36-.08-.35-.58,0-.28,0-.61.39-.6a.27.27,0,0,1,.24.14h0Zm-.22.61c-.2,0-.23.15-.24.46s0,.42.22.42.22-.25.22-.48S20.46.62,20.26.61Z"/><path class="cls-1" d="M22.06.56a.32.32,0,0,0,0-.24.27.27,0,0,0-.17-.08.26.26,0,0,0-.26.1s-.05,0-.08.33l0,.43c0,.4.08.46.24.47s.26,0,.29-.31l.21,0c0,.51-.4.48-.51.47s-.5-.07-.44-.7l0-.45c.05-.46.27-.57.58-.54s.43.21.38.53Z"/><path class="cls-1" d="M22.38,1.23c.05-.33.13-.59.52-.53s.39.34.33.67c-.08.49-.28.53-.51.5S22.3,1.73,22.38,1.23Zm.67,0c.05-.31,0-.39-.17-.41s-.25,0-.3.33,0,.51.16.54S23,1.62,23.05,1.26Z"/><path class="cls-1" d="M23.39,1.4c.07-.33.16-.59.55-.51s.36.36.29.69c-.1.49-.31.52-.54.47S23.28,1.89,23.39,1.4Zm.67.06c.06-.3,0-.39-.15-.42s-.25,0-.32.32-.06.5.13.54S24,1.82,24.06,1.46Z"/><path class="cls-1" d="M24.73,1.24h0A.29.29,0,0,1,25,1.16c.18.05.34.17.21.65-.08.27-.17.58-.52.49a.3.3,0,0,1-.21-.2h0l-.14.52-.18-.05.41-1.51.18.05Zm.31.52c.05-.17.11-.41-.11-.47s-.28.25-.33.42-.09.38.1.43S25,2.05,25,1.76Z"/><path class="cls-1" d="M25.56,2c-.1.31,0,.39.1.44a.2.2,0,0,0,.25-.15l.19.07a.34.34,0,0,1-.49.22c-.23-.07-.39-.2-.23-.68.11-.31.23-.56.6-.44s.33.3.21.65l0,.09ZM26,2c.1-.31,0-.38-.1-.42s-.22,0-.32.28Z"/><path class="cls-1" d="M26.7,1.91h0a.32.32,0,0,1,.4-.06L27,2l-.09,0c-.19-.08-.29.05-.35.19l-.23.63-.18-.06.41-1.07.17.07Z"/><path class="cls-1" d="M27.37,3.05h0a.31.31,0,0,1-.34.06c-.22-.1-.22-.27-.14-.47s.46-.2.69-.09c.06-.14.13-.29,0-.36a.16.16,0,0,0-.24.11l-.19-.08c.11-.23.27-.25.49-.16s.28.29.2.46l-.21.5a1.34,1.34,0,0,0-.09.26l-.18-.08Zm-.31-.32a.17.17,0,0,0,.08.26c.1,0,.26,0,.39-.31C27.36,2.61,27.15,2.5,27.06,2.73Z"/><path class="cls-1" d="M28.2,2.36l.1-.2h.2l-.13.27.22.11-.06.12-.22-.1-.3.62c0,.07-.07.15.08.22l.08,0-.06.13-.18-.06c-.15-.08-.19-.18-.14-.3l.35-.72L28,2.41,28,2.28Z"/><path class="cls-1" d="M28.31,3.68l-.16-.08.51-1,.17.08Zm.57-1.53.18.09L29,2.42l-.18-.1Z"/><path class="cls-1" d="M28.74,3.28c.16-.29.33-.51.67-.32s.24.45.08.74-.45.41-.66.29S28.49,3.72,28.74,3.28Zm.62.26c.15-.27.1-.38,0-.45s-.24-.06-.4.21-.2.46,0,.56S29.18,3.86,29.36,3.54Z"/><path class="cls-1" d="M29.88,4.59l.42-.66c.06-.11.08-.21-.05-.3s-.29,0-.38.16l-.36.57-.15-.1.48-.76L30,3.3l.16.1L30,3.52h0a.3.3,0,0,1,.35,0c.2.13.18.29.06.48L30,4.69Z"/><path class="cls-1" d="M31,4.75l0,0a.27.27,0,0,0,0,.4.25.25,0,0,0,.39,0c.22-.28-.39-.69-.09-1.08A.43.43,0,0,1,31.91,4a.4.4,0,0,1,.08.65l-.18-.13c.11-.14.14-.26,0-.38a.22.22,0,0,0-.34,0c-.22.28.4.68.09,1.09a.44.44,0,0,1-.68.06.44.44,0,0,1-.07-.7Z"/><path class="cls-1" d="M32.61,5.23l.14.12L32.17,6,32,6.22l-.15-.13L32,6h0a.31.31,0,0,1-.32-.06.27.27,0,0,1-.05-.42l.56-.66.14.12-.51.6c-.08.1-.1.22,0,.3a.23.23,0,0,0,.34-.06Z"/><path class="cls-1" d="M33,5.76h0a.28.28,0,0,1,.3.06c.13.13.22.31-.12.67-.2.21-.43.44-.7.19a.32.32,0,0,1-.08-.28h0L32,6.8l-.14-.13L33,5.53l.13.13Zm0,.6c.12-.13.29-.31.12-.47s-.36.09-.48.22-.26.29-.11.43S32.83,6.58,33,6.36Z"/><path class="cls-1" d="M33.75,6.48h0a.26.26,0,0,1,.29.08c.13.13.21.31-.16.66-.2.19-.44.41-.7.15a.31.31,0,0,1-.07-.28h0l-.4.37-.13-.13,1.14-1.08.13.13Zm0,.61c.12-.12.3-.29.15-.46s-.38.07-.5.19-.28.27-.14.42S33.53,7.3,33.75,7.09Z"/><path class="cls-1" d="M34,7.37c.26-.22.49-.37.75-.07s.07.51-.19.73-.56.22-.71,0S33.58,7.7,34,7.37Zm.5.46c.23-.2.22-.32.13-.43s-.21-.14-.44.07-.35.36-.23.5S34.18,8.07,34.46,7.83Z"/><path class="cls-1" d="M35.08,8.07h0c.18,0,.25,0,.36.16l-.15.12a.41.41,0,0,0,0-.09c-.13-.16-.28-.1-.4,0l-.53.41-.11-.14.89-.7.12.15Z"/><path class="cls-1" d="M35.52,8.36l.18-.13.17.1-.24.18.15.2-.12.08-.14-.2L35,9c-.06.05-.14.1,0,.24L35,9.3l-.11.08-.13-.13c-.1-.14-.09-.25,0-.33l.65-.47-.11-.16.11-.08Z"/><path class="cls-1" d="M36.69,9.19l.14.23-1.09,1.31-.13-.2.27-.3-.34-.53-.39.1L35,9.63Zm-.1.21h0l-.87.25.28.44Z"/><path class="cls-1" d="M35.9,11.09a.34.34,0,0,1,.14-.52l.1.18A.18.18,0,0,0,36,11a.17.17,0,0,0,.25.09c.17-.1-.1-.59.2-.76.1-.06.3-.09.46.19s.1.38-.11.47l-.1-.18a.16.16,0,0,0,.08-.24.16.16,0,0,0-.22-.08c-.18.1.1.59-.2.76A.34.34,0,0,1,35.9,11.09Z"/><path class="cls-1" d="M36.31,11.86a.34.34,0,0,1,.15-.52l.1.19c-.06,0-.2.1-.11.27a.17.17,0,0,0,.24.1c.18-.09-.07-.6.24-.75.1-.06.31-.08.45.21s.08.38-.13.46l-.09-.18a.16.16,0,0,0,.08-.24.15.15,0,0,0-.21-.09c-.18.09.07.6-.24.75S36.41,12.06,36.31,11.86Z"/><path class="cls-1" d="M37.05,12.08c.31-.13.58-.21.73.15s-.08.51-.38.64c-.46.2-.61.05-.7-.17S36.59,12.28,37.05,12.08Zm.34.58c.29-.12.31-.24.25-.37s-.15-.19-.44-.07-.44.25-.36.42S37.05,12.81,37.39,12.66Z"/><path class="cls-1" d="M37.88,13.53c.18-.06.19-.17.17-.23s-.15-.2-.44-.1-.45.22-.39.4.1.15.29.07l.07.18a.36.36,0,0,1-.5-.19c-.08-.23-.08-.43.39-.61.31-.12.58-.17.72.19a.33.33,0,0,1-.24.47Z"/><path class="cls-1" d="M37.35,14.36l-.06-.17,1.08-.36.06.18Zm1.48-.69.07.19-.19.07-.07-.2Z"/><path class="cls-1" d="M37.74,15.07h0a.28.28,0,0,1-.26-.22c-.07-.23.06-.34.27-.4s.44.22.5.47c.15,0,.31-.08.25-.27a.16.16,0,0,0-.24-.11l-.06-.2c.25-.06.37.05.44.28s0,.39-.23.45l-.52.15a2.67,2.67,0,0,0-.26.09l-.05-.19Zm0-.44c-.11,0-.19.11-.15.23s.13.22.48.1C38.07,14.79,38,14.56,37.79,14.63Z"/><path class="cls-1" d="M38.79,15.27l.21,0,.13.16-.29.07,0,.24-.13,0-.06-.24-.67.17c-.07,0-.16,0-.12.2l0,.08-.13,0a1.15,1.15,0,0,1-.06-.17c-.05-.17,0-.27.13-.3l.79-.19,0-.18.14,0Z"/><path class="cls-1" d="M37.84,16.19l0-.18,1.11-.24L39,16Zm1.55-.54,0,.21-.19,0-.05-.2Z"/><path class="cls-1" d="M38.42,16.27c.33-.06.61-.07.68.32s-.2.47-.52.53c-.5.09-.6-.09-.64-.33S37.93,16.36,38.42,16.27Zm.2.64c.3-.05.35-.16.33-.3s-.11-.22-.41-.17-.49.14-.46.33S38.26,17,38.62,16.91Z"/><path class="cls-1" d="M38.13,18l.78-.09c.12,0,.22-.07.2-.23s-.21-.21-.36-.19l-.67.08,0-.18.89-.11.23,0,0,.2h-.15a.31.31,0,0,1,.21.28c0,.24-.11.32-.33.35l-.78.1Z"/><path class="cls-2" d="M18,21.18a.4.4,0,0,1-.18.54.41.41,0,0,1-.54-.18.4.4,0,0,1,.72-.36Z"/><path class="cls-2" d="M17.7,21.84a.43.43,0,0,1-.19.57.42.42,0,0,1-.57-.19.42.42,0,1,1,.76-.38Z"/><path class="cls-2" d="M17.39,22.56a.42.42,0,0,1-.76.37.42.42,0,1,1,.76-.37Z"/><path class="cls-2" d="M17.08,23.26a.39.39,0,0,1-.18.53.4.4,0,0,1-.36-.72A.41.41,0,0,1,17.08,23.26Z"/><path class="cls-2" d="M18.07,22.82a.41.41,0,1,1-.71.39.41.41,0,1,1,.71-.39Z"/><path class="cls-2" d="M17.77,23.55a.41.41,0,1,1-.72.38.41.41,0,1,1,.72-.38Z"/><path class="cls-2" d="M18.37,22.12a.4.4,0,1,1-.7.38.4.4,0,0,1,.16-.54A.39.39,0,0,1,18.37,22.12Z"/><path class="cls-2" d="M18.67,21.42a.4.4,0,1,1-.54-.15A.4.4,0,0,1,18.67,21.42Z"/><path class="cls-2" d="M19.63,21.48a.35.35,0,0,1-.69,0,.35.35,0,0,1,.35-.34A.35.35,0,0,1,19.63,21.48Z"/><path class="cls-2" d="M19.42,22.32a.35.35,0,0,1-.35.34.35.35,0,1,1,0-.69A.35.35,0,0,1,19.42,22.32Z"/><path class="cls-2" d="M19.1,23.15a.35.35,0,0,1-.35.34.35.35,0,0,1-.34-.35.33.33,0,0,1,.35-.33A.34.34,0,0,1,19.1,23.15Z"/><path class="cls-2" d="M18.77,23.92a.35.35,0,1,1-.69,0,.35.35,0,1,1,.69,0Z"/><path class="cls-2" d="M20.84,20.94a.15.15,0,1,1-.3,0,.15.15,0,1,1,.3,0Z"/><path class="cls-2" d="M20.85,21.8a.15.15,0,0,1-.15.15.15.15,0,0,1-.15-.15.14.14,0,0,1,.15-.15A.15.15,0,0,1,20.85,21.8Z"/><path class="cls-2" d="M20.7,22.65a.15.15,0,0,1-.15.15.16.16,0,0,1-.16-.16.16.16,0,1,1,.31,0Z"/><path class="cls-2" d="M20.44,23.35a.15.15,0,0,1-.16.15.15.15,0,0,1-.15-.15.14.14,0,0,1,.16-.15A.15.15,0,0,1,20.44,23.35Z"/><path class="cls-2" d="M20.28,21.3a.23.23,0,0,1-.23.21.22.22,0,0,1-.21-.24.21.21,0,0,1,.23-.2A.22.22,0,0,1,20.28,21.3Z"/><path class="cls-2" d="M20.26,22.12a.22.22,0,0,1-.23.21.21.21,0,0,1-.21-.23.22.22,0,0,1,.23-.21A.23.23,0,0,1,20.26,22.12Z"/><path class="cls-2" d="M20,22.93a.22.22,0,0,1-.23.21.23.23,0,0,1-.21-.23.22.22,0,0,1,.23-.21A.21.21,0,0,1,20,22.93Z"/><path class="cls-2" d="M19.72,23.68a.22.22,0,0,1-.24.21.21.21,0,0,1-.2-.23.21.21,0,0,1,.23-.21A.23.23,0,0,1,19.72,23.68Z"/><path class="cls-3" d="M20,20.12a.4.4,0,1,1,.54.18A.4.4,0,0,1,20,20.12Z"/><path class="cls-3" d="M20.22,19.44a.42.42,0,1,1,.57.19A.43.43,0,0,1,20.22,19.44Z"/><path class="cls-3" d="M20.53,18.73a.42.42,0,1,1,.76-.38.44.44,0,0,1-.19.57A.43.43,0,0,1,20.53,18.73Z"/><path class="cls-3" d="M20.84,18a.4.4,0,1,1,.72-.36.41.41,0,0,1-.19.54A.4.4,0,0,1,20.84,18Z"/><path class="cls-3" d="M19.84,18.46a.41.41,0,0,1,.17-.55.4.4,0,1,1,.38.71A.41.41,0,0,1,19.84,18.46Z"/><path class="cls-3" d="M20.15,17.73a.41.41,0,1,1,.55.17A.4.4,0,0,1,20.15,17.73Z"/><path class="cls-3" d="M19.55,19.16a.4.4,0,0,1,.16-.54.39.39,0,0,1,.53.17.38.38,0,0,1-.16.53A.38.38,0,0,1,19.55,19.16Z"/><path class="cls-3" d="M19.25,19.86a.4.4,0,0,1,.15-.54.4.4,0,0,1,.54.15.4.4,0,1,1-.69.39Z"/><path class="cls-3" d="M18.3,19.73a.35.35,0,1,1,.34.35A.35.35,0,0,1,18.3,19.73Z"/><path class="cls-3" d="M18.49,18.93a.34.34,0,0,1,.34-.34.35.35,0,1,1-.34.34Z"/><path class="cls-3" d="M18.79,18.17a.35.35,0,1,1,.69,0,.35.35,0,1,1-.69,0Z"/><path class="cls-3" d="M19.12,17.36a.33.33,0,0,1,.35-.33.34.34,0,1,1,0,.68A.35.35,0,0,1,19.12,17.36Z"/><path class="cls-3" d="M17,20.4a.16.16,0,0,1,.16-.16.16.16,0,0,1,.15.16.16.16,0,0,1-.16.15A.15.15,0,0,1,17,20.4Z"/><path class="cls-3" d="M17,19.57a.15.15,0,0,1,.16-.15.15.15,0,0,1,.15.15.14.14,0,0,1-.16.15A.15.15,0,0,1,17,19.57Z"/><path class="cls-3" d="M17.11,18.75a.17.17,0,0,1,.16-.15.15.15,0,0,1,.15.15.16.16,0,0,1-.15.16A.16.16,0,0,1,17.11,18.75Z"/><path class="cls-3" d="M17.45,18a.15.15,0,0,1,.15-.15.15.15,0,1,1,0,.3A.15.15,0,0,1,17.45,18Z"/><path class="cls-3" d="M17.64,20a.21.21,0,0,1,.23-.2.21.21,0,0,1,.21.23.23.23,0,0,1-.23.21A.22.22,0,0,1,17.64,20Z"/><path class="cls-3" d="M17.72,19.22A.21.21,0,0,1,18,19a.22.22,0,0,1,.21.23.23.23,0,0,1-.23.21A.22.22,0,0,1,17.72,19.22Z"/><path class="cls-3" d="M17.94,18.42a.21.21,0,0,1,.23-.2.22.22,0,0,1,.21.23.23.23,0,0,1-.23.21A.22.22,0,0,1,17.94,18.42Z"/><path class="cls-3" d="M18.23,17.6a.22.22,0,1,1,.44,0,.22.22,0,0,1-.23.21A.23.23,0,0,1,18.23,17.6Z"/><path class="cls-2" d="M16.61,23.81A4.61,4.61,0,0,1,14,22.14c-.86-1.29-.44-2.41.19-3.82a1.48,1.48,0,0,0-1.93-2c-.09,0-.35-.67-.17-1.62A3.29,3.29,0,0,1,13,13a7.8,7.8,0,0,1,3.53-1.38,14,14,0,0,0,4-1.21,6.4,6.4,0,0,0,3.31-4.16l2.07.81A11.32,11.32,0,0,1,25.68,10a7.55,7.55,0,0,1-1.28,3.1,6.84,6.84,0,0,1-2.71,2.26c-.81.4-1.49.65-2.33,1a6.4,6.4,0,0,0-2.24,1.39,6.48,6.48,0,0,0-.56.71,1.78,1.78,0,0,0-.13,1.73,1.7,1.7,0,0,0,1.24.81"/><path class="cls-3" d="M20.81,18.88l.54-1.39c5.59,2,5,9.41,5,9.41-1.39,3.74-8.73,4.92-10.57,5.1l-.32-.82A6.07,6.07,0,0,0,17.81,25s-.06-.46-.1-.46c3.28.43,4.56-2,3.82-3.43a1.56,1.56,0,0,0-1.26-.83Z"/><path class="cls-1" d="M58,15.05v1.59a47.91,47.91,0,0,1-5.25.51H50.46V10.49h2v5h.93A37.63,37.63,0,0,0,58,15.05Zm-5.23,8.69v-5.1h7.6v5.1Zm2-3.48v1.87h3.62V20.26Zm5.64-7.15h1.88v1.67H60.44v3.31h-2v-8h2Z"/><path class="cls-1" d="M69,18.28H63.68V16.67H76.37v1.61H71.09v1h3V24h-2V21H65.82V19.33H69Zm-3-8h2v1.11h4V10.31h2v5.5H66ZM68,13V14.2h4V13Z"/><path class="cls-1" d="M80.93,18.69V15H82.8v3.71h1.25V15h1.87v3.71h4.6v1.66H77.94V18.69Zm7.38-.9h-1.9a42,42,0,0,0,.33-5.39H80.13V10.74h8.6A62.42,62.42,0,0,1,88.31,17.79Z"/><path class="cls-1" d="M95.33,19.41H92.15V17.8h12.62v1.61h-3.21v3h-2v-3H97.38v3h-2Zm5.08-6.47V12.1h-6V10.5h8.08v3.95h-6v.89h6.27V17H94.4v-4Z"/><path class="cls-1" d="M111.68,11.06h3.07v1.55h1V10h2v7.63h-2V16.49h-1.51V15h1.51v-.82h-1.53V12.67h-.81a2.76,2.76,0,0,1,.62,1.71,3.43,3.43,0,0,1-6.84,0,2.86,2.86,0,0,1,.6-1.71h-1.36V11.06h3.14V9.59h2.11Zm.4,3.26a1.48,1.48,0,1,0-1.48,1.57A1.62,1.62,0,0,0,112.08,14.32ZM110,18.13h2v1.14h3.64V18.13h2v5.61H110Zm5.63,2.73H112v1.27h3.64Z"/><path class="cls-1" d="M129.51,16v1.55a51.94,51.94,0,0,1-5.91.47h-2.21V13.45h3.92V12.13h-3.92v-1.6h5.94V15h-3.92v1.39h1.09A49.71,49.71,0,0,0,129.51,16ZM124,20.48V18.87h7.84v5h-2v-3.4Zm5.94-8.9V10h2v8.32h-2V15.55h-2.2V14H130v-.82h-2.2V11.58Z"/><path class="cls-1" d="M138.34,12.48h-2.47V10.79h7v1.69h-2.52a7.24,7.24,0,0,0,.61,2.68,7.42,7.42,0,0,0,2.62,2.59l-1.1,1.31a8.89,8.89,0,0,1-1.66-1.2,11.24,11.24,0,0,1-1.45-1.55A9.52,9.52,0,0,1,138,17.83a10.14,10.14,0,0,1-1.83,1.41L135,17.94a8.73,8.73,0,0,0,2.8-2.86A5.85,5.85,0,0,0,138.34,12.48Zm5.84,9.41V10.05h2V21.89Z"/><path class="cls-1" d="M152.35,17.85h-3.42V16.32h2.5c1.8,0,5.33-.22,6.6-.37v1.51c-.73.11-2.18.21-3.67.31v1.82h-2Zm1-7.84a3.29,3.29,0,0,1,3.47,3,3.49,3.49,0,0,1-6.92,0A3.29,3.29,0,0,1,153.36,10Zm0,4.35A1.44,1.44,0,0,0,154.8,13a1.43,1.43,0,0,0-2.86,0A1.43,1.43,0,0,0,153.36,14.36Zm-1,5.64h2v2.08h6.12v1.66h-8.11Zm6-.56h-2.81V18h2.81V10.05h2V20.56h-2Z"/><path class="cls-1" d="M168.53,11.06h3.07v1.55h1V10h2v7.63h-2V16.49h-1.51V15h1.51v-.82h-1.52V12.67h-.81a2.81,2.81,0,0,1,.61,1.71,3.43,3.43,0,0,1-6.84,0,2.86,2.86,0,0,1,.6-1.71h-1.36V11.06h3.14V9.59h2.11Zm.41,3.26a1.48,1.48,0,1,0-1.48,1.57A1.63,1.63,0,0,0,168.94,14.32Zm-2.11,3.81h2v1.14h3.63V18.13h2v5.61h-7.61Zm5.62,2.73h-3.63v1.27h3.63Z"/><path class="cls-1" d="M183.06,11.1h2.65v1.62h-1.26a2.67,2.67,0,0,1,.74,1.85,3,3,0,0,1-2.1,2.89v.76c1.33-.07,2.6-.19,3.34-.27v1.58c-1.05.14-4.36.37-6.08.38l-2.65,0v-1.6h2.13l1.32,0v-.77a3.06,3.06,0,0,1-2.32-3,2.83,2.83,0,0,1,.7-1.85h-1.32V11.1H181V9.64h2Zm.3,3.43A1.36,1.36,0,1,0,182,16,1.5,1.5,0,0,0,183.36,14.53Zm3.49,7.31V10.07h2V21.84Z"/><path class="cls-1" d="M50.92,31.1v.12a.65.65,0,0,0,.69.74c.42,0,.74-.18.74-.67,0-.91-1.86-.81-1.86-2.05a1.09,1.09,0,0,1,1.22-1.12,1,1,0,0,1,1.14,1.2H52.3c0-.45-.14-.75-.63-.75a.58.58,0,0,0-.64.61c0,.91,1.86.78,1.86,2.09,0,.87-.61,1.15-1.29,1.15a1.09,1.09,0,0,1-1.2-1.32Z"/><path class="cls-1" d="M53.28,30.93c0-.85.1-1.54,1.1-1.54s1.1.69,1.1,1.54c0,1.28-.49,1.46-1.1,1.46S53.28,32.21,53.28,30.93Zm1.71-.2c0-.79-.25-1-.61-1s-.61.17-.61,1c0,.94.12,1.28.61,1.28S55,31.67,55,30.73Z"/><path class="cls-1" d="M57.48,29.44H58v2.29q0,.3,0,.6h-.5V32h0a.83.83,0,0,1-.74.41.68.68,0,0,1-.78-.74V29.44h.47v2c0,.35.16.58.5.58a.59.59,0,0,0,.56-.67Z"/><path class="cls-1" d="M58.56,29.44v-.55l.47-.21v.76h.63v.36H59v1.77c0,.18,0,.41.43.41l.22,0v.36c-.16,0-.31,0-.47,0-.44,0-.65-.18-.65-.52V29.8h-.47v-.36Z"/><path class="cls-1" d="M61.39,32.33V30.38c0-.36-.12-.61-.52-.61s-.59.38-.59.86v1.7h-.47V28.2h.47v1.62h0a.74.74,0,0,1,.78-.43c.49,0,.77.24.77.89v2Z"/><path class="cls-1" d="M62.3,31h1.26v-.44H62.3Z"/><path class="cls-1" d="M66.93,28.2v4.13h-.72l-1.63-3.58h0v3.58H64.1V28.2h.74l1.61,3.54h0V28.2Z"/><path class="cls-1" d="M68.57,32.39c.61,0,1.09-.18,1.09-1.46,0-.85-.09-1.54-1.09-1.54s-1.1.69-1.1,1.54C67.47,32.21,68,32.39,68.57,32.39Zm0-.38c-.49,0-.61-.34-.61-1.28,0-.79.25-1,.61-1s.6.17.6,1C69.17,31.67,69.05,32,68.57,32Z"/><path class="cls-1" d="M70.61,29.44h-.47v2.89h.47v-1.7c0-.39.13-.79.65-.79a1.9,1.9,0,0,1,.25,0v-.48c-.45,0-.69.05-.89.49h0Z"/><path class="cls-1" d="M71.32,29.44v.36h.47v2.05c0,.34.2.52.65.52.16,0,.31,0,.46,0V32l-.21,0c-.43,0-.43-.23-.43-.41V29.8h.63v-.36h-.63v-.76l-.47.21v.55Z"/><path class="cls-1" d="M75.09,32.33v-2c0-.65-.28-.89-.77-.89a.77.77,0,0,0-.79.43h0V28.2H73v4.13h.47v-1.7c0-.48.12-.86.59-.86s.52.25.52.61v1.95Z"/><path class="cls-1" d="M76.66,32.33V28.2h.53V30h0l1.45-1.82h.59l-1.5,1.87,1.59,2.26h-.68L77.2,30.18h0v2.15Z"/><path class="cls-1" d="M80.52,32.39c.62,0,1.1-.18,1.1-1.46,0-.85-.09-1.54-1.1-1.54s-1.09.69-1.09,1.54C79.43,32.21,79.91,32.39,80.52,32.39Zm0-.38c-.48,0-.6-.34-.6-1.28,0-.79.24-1,.6-1s.61.17.61,1C81.13,31.67,81,32,80.52,32Z"/><path class="cls-1" d="M82.57,29.88h0c.19-.44.44-.49.89-.49v.48a1.9,1.9,0,0,0-.25,0c-.52,0-.65.4-.65.79v1.7H82.1V29.44h.47Z"/><path class="cls-1" d="M84.16,31c0,.81.22,1,.58,1a.53.53,0,0,0,.51-.55h.51a.87.87,0,0,1-1,.93c-.62,0-1.1-.18-1.1-1.46,0-.85.09-1.54,1.1-1.54.82,0,1,.45,1,1.4V31Zm1.13-.35c0-.85-.24-1-.58-1s-.54.14-.55,1Z"/><path class="cls-1" d="M87.77,31.92h0a.7.7,0,0,1-.72.47c-.61,0-.79-.39-.79-.95,0-.87.86-.91,1.51-.9,0-.38,0-.8-.48-.8a.42.42,0,0,0-.45.52h-.51c0-.65.36-.87,1-.87s.93.38.93.87v1.39a5.05,5.05,0,0,0,.06.68h-.51Zm-1.06-.44c0,.28.13.53.45.53s.64-.18.59-1.11C87.31,30.9,86.71,30.86,86.71,31.48Z"/><path class="cls-1" d="M89.89,32.33V28.2H92v.46h-1.6V30H91.9v.46H90.42v1.43h1.63v.45Z"/><path class="cls-1" d="M94.5,32.33h-.61l-.67-1.18-.63,1.18H92l.9-1.51-.83-1.38h.6l.55,1,.59-1h.56l-.86,1.38Z"/><path class="cls-1" d="M96.67,30.37a.82.82,0,0,0-.89-1c-1,0-1.1.69-1.1,1.54,0,1.28.49,1.46,1.1,1.46a.91.91,0,0,0,.91-1H96.2c0,.52-.31.64-.42.64-.49,0-.61-.34-.61-1.28,0-.79.25-1,.61-1,.18,0,.41.13.4.6Z"/><path class="cls-1" d="M98.81,32.33V30.38c0-.36-.11-.61-.51-.61s-.59.38-.59.86v1.7h-.47V28.2h.47v1.62h0a.77.77,0,0,1,.79-.43c.49,0,.76.24.76.89v2Z"/><path class="cls-1" d="M101.31,32.33h.52a3.82,3.82,0,0,1-.06-.68V30.26c0-.49-.2-.87-.94-.87s-1,.22-1,.87h.51a.43.43,0,0,1,.45-.52c.51,0,.5.42.49.8-.66,0-1.52,0-1.52.9,0,.56.18.95.79.95a.71.71,0,0,0,.73-.47h0Zm0-1.43c0,.93-.31,1.11-.6,1.11s-.45-.25-.45-.53C100.25,30.86,100.85,30.9,101.3,30.9Z"/><path class="cls-1" d="M104.44,32.33v-2c0-.57-.16-.94-.78-.94a.75.75,0,0,0-.77.43h0v-.38h-.5q0,.3,0,.6v2.29h.47V30.62c0-.39.07-.85.59-.85s.51.25.51.56v2Z"/><path class="cls-1" d="M106.5,29.44H107v3.19c0,.64-.43.8-1.06.8-.48,0-.92-.24-.88-.78h.53a.4.4,0,0,0,.44.42.46.46,0,0,0,.5-.5V32h0a.73.73,0,0,1-.64.36c-.78,0-.94-.67-.94-1.53,0-1.33.67-1.41.91-1.41a.69.69,0,0,1,.67.41h0Zm-.55.34c-.53,0-.55.64-.55,1,0,.93.22,1.14.57,1.14.56,0,.54-.66.54-1.07S106.54,29.78,106,29.78Z"/><path class="cls-1" d="M108,31c0,.81.22,1,.58,1a.53.53,0,0,0,.51-.55h.51c0,.64-.4.93-1,.93s-1.1-.18-1.1-1.46c0-.85.1-1.54,1.1-1.54.83,0,1,.45,1,1.4V31Zm1.13-.35c0-.85-.24-1-.58-1s-.55.14-.55,1Z"/><path class="cls-1" d="M111,32.39c-.62,0-1-.27-1-.94h.54c0,.17,0,.56.48.56a.43.43,0,0,0,.49-.44c0-.52-1.44-.53-1.44-1.39,0-.31.19-.79,1-.79.51,0,1,.24.91.81h-.52a.45.45,0,0,0-.9-.07c0,.51,1.45.5,1.45,1.38C112,32.15,111.55,32.39,111,32.39Z"/><path class="cls-1" d="M114.35,28.2H115l1.35,4.13h-.59l-.3-1h-1.6l-.31,1H113Zm.32.49h0l-.65,2.2h1.33Z"/><path class="cls-1" d="M118.15,32.33v-2c0-.31-.11-.56-.51-.56s-.59.46-.59.85v1.71h-.47V30q0-.3,0-.6h.5v.38h0a.75.75,0,0,1,.77-.43c.62,0,.78.37.78.94v2Z"/><path class="cls-1" d="M120.68,28.2h.47v4.13h-.47V32h0a.71.71,0,0,1-.66.4c-.47,0-.94-.18-.94-1.45,0-.72,0-1.55,1-1.55a.73.73,0,0,1,.64.35h0Zm-.54,1.57c-.5,0-.57.4-.57,1.17,0,.44,0,1.07.59,1.07s.52-.65.52-1.24C120.68,30.39,120.66,29.77,120.14,29.77Z"/><path class="cls-1" d="M124.59,29.34a1,1,0,0,0-.12-.6.72.72,0,0,0-.47-.18.66.66,0,0,0-.62.32c0,.05-.12.15-.12.86v1.11c0,1,.33,1.13.74,1.13.16,0,.64-.06.65-.87h.54c0,1.31-.89,1.31-1.16,1.31-.52,0-1.31,0-1.31-1.64V29.62c0-1.17.52-1.5,1.33-1.5s1.13.42,1.08,1.22Z"/><path class="cls-1" d="M126.63,32.39c.61,0,1.1-.18,1.1-1.46,0-.85-.1-1.54-1.1-1.54s-1.1.69-1.1,1.54C125.53,32.21,126,32.39,126.63,32.39Zm0-.38c-.49,0-.61-.34-.61-1.28,0-.79.25-1,.61-1s.61.17.61,1C127.24,31.67,127.12,32,126.63,32Z"/><path class="cls-1" d="M128.11,30.93c0-.85.1-1.54,1.1-1.54s1.1.69,1.1,1.54c0,1.28-.49,1.46-1.1,1.46S128.11,32.21,128.11,30.93Zm1.7-.2c0-.79-.24-1-.6-1s-.61.17-.61,1c0,.94.12,1.28.61,1.28S129.81,31.67,129.81,30.73Z"/><path class="cls-1" d="M131.27,29.79h0a.73.73,0,0,1,.67-.4c.46,0,.93.18.93,1.45,0,.72,0,1.55-.95,1.55a.73.73,0,0,1-.64-.35h0v1.39h-.47v-4h.47Zm1.12,1.05c0-.44,0-1.07-.59-1.07s-.53.8-.53,1.24,0,1,.55,1S132.39,31.61,132.39,30.84Z"/><path class="cls-1" d="M133.8,31c0,.81.22,1,.58,1a.53.53,0,0,0,.51-.55h.51a.88.88,0,0,1-1,.93c-.61,0-1.1-.18-1.1-1.46,0-.85.1-1.54,1.1-1.54.83,0,1,.45,1,1.4V31Zm1.13-.35c0-.85-.24-1-.58-1s-.55.14-.55,1Z"/><path class="cls-1" d="M136.4,29.88h0c.2-.44.44-.49.9-.49v.48l-.25,0c-.53,0-.66.4-.66.79v1.7h-.47V29.44h.47Z"/><path class="cls-1" d="M139,31.92h0a.7.7,0,0,1-.72.47c-.62,0-.79-.39-.79-.95,0-.87.85-.91,1.51-.9,0-.38,0-.8-.48-.8a.44.44,0,0,0-.46.52h-.51c0-.65.37-.87,1-.87s.94.38.94.87v1.39a5.05,5.05,0,0,0,.06.68H139ZM138,31.48c0,.28.13.53.45.53s.64-.18.59-1.11C138.57,30.9,138,30.86,138,31.48Z"/><path class="cls-1" d="M140.16,29.44v-.55l.47-.21v.76h.63v.36h-.63v1.77c0,.18,0,.41.43.41l.21,0v.36c-.15,0-.3,0-.46,0-.45,0-.65-.18-.65-.52V29.8h-.47v-.36Z"/><path class="cls-1" d="M141.38,28.2h.52v.5h-.52Zm.5,4.13h-.47V29.44h.47Z"/><path class="cls-1" d="M142.32,30.93c0-.85.1-1.54,1.1-1.54s1.1.69,1.1,1.54c0,1.28-.49,1.46-1.1,1.46S142.32,32.21,142.32,30.93Zm1.71-.2c0-.79-.25-1-.61-1s-.61.17-.61,1c0,.94.12,1.28.61,1.28S144,31.67,144,30.73Z"/><path class="cls-1" d="M146.55,32.33v-2c0-.31-.11-.56-.51-.56s-.59.46-.59.85v1.71H145V30q0-.3,0-.6h.5v.38h0a.75.75,0,0,1,.77-.43c.62,0,.78.37.78.94v2Z"/><path class="cls-1" d="M149,31.1v.12a.66.66,0,0,0,.69.74c.42,0,.74-.18.74-.67,0-.91-1.85-.81-1.85-2.05a1.09,1.09,0,0,1,1.21-1.12,1,1,0,0,1,1.15,1.2h-.55c0-.45-.14-.75-.64-.75a.57.57,0,0,0-.63.61c0,.91,1.85.78,1.85,2.09,0,.87-.6,1.15-1.28,1.15-1.22,0-1.22-.92-1.21-1.32Z"/><path class="cls-1" d="M153,29.44h.47v2.29q0,.3,0,.6H153V32h0a.81.81,0,0,1-.73.41.68.68,0,0,1-.78-.74V29.44h.47v2c0,.35.16.58.49.58a.59.59,0,0,0,.57-.67Z"/><path class="cls-1" d="M154.52,29.79h0a.72.72,0,0,1,.67-.4c.46,0,.93.18.93,1.45,0,.72,0,1.55-1,1.55a.73.73,0,0,1-.63-.35h0v1.39h-.47v-4h.47Zm1.12,1.05c0-.44,0-1.07-.59-1.07s-.53.8-.53,1.24,0,1,.54,1S155.64,31.61,155.64,30.84Z"/><path class="cls-1" d="M157.1,29.79h0a.71.71,0,0,1,.66-.4c.47,0,.94.18.94,1.45,0,.72,0,1.55-1,1.55a.74.74,0,0,1-.64-.35h0v1.39h-.47v-4h.47Zm1.11,1.05c0-.44,0-1.07-.59-1.07s-.52.8-.52,1.24,0,1,.54,1S158.21,31.61,158.21,30.84Z"/><path class="cls-1" d="M159.08,30.93c0-.85.1-1.54,1.1-1.54s1.1.69,1.1,1.54c0,1.28-.48,1.46-1.1,1.46S159.08,32.21,159.08,30.93Zm1.71-.2c0-.79-.25-1-.61-1s-.6.17-.6,1c0,.94.12,1.28.6,1.28S160.79,31.67,160.79,30.73Z"/><path class="cls-1" d="M162.23,29.88h0c.19-.44.43-.49.89-.49v.48a1.9,1.9,0,0,0-.25,0c-.52,0-.65.4-.65.79v1.7h-.47V29.44h.47Z"/><path class="cls-1" d="M163.41,29.44v-.55l.47-.21v.76h.63v.36h-.63v1.77c0,.18,0,.41.43.41l.21,0v.36c-.15,0-.31,0-.46,0-.45,0-.65-.18-.65-.52V29.8h-.47v-.36Z"/><path class="cls-1" d="M166.63,28.2h.67l1.35,4.13h-.59l-.3-1h-1.59l-.31,1h-.54Zm.33.49h0l-.64,2.2h1.32Z"/><path class="cls-1" d="M170.72,31.51c0-.88-1.44-.87-1.44-1.38a.4.4,0,0,1,.45-.39.41.41,0,0,1,.45.46h.52c0-.57-.4-.81-.92-.81-.81,0-1,.48-1,.79,0,.86,1.44.87,1.44,1.39a.44.44,0,0,1-.5.44c-.47,0-.48-.39-.48-.56h-.53c0,.67.37.94,1,.94S170.72,32.15,170.72,31.51Z"/><path class="cls-1" d="M172,32.39c-.62,0-1-.27-1-.94h.54c0,.17,0,.56.48.56a.43.43,0,0,0,.49-.44c0-.52-1.44-.53-1.44-1.39,0-.31.19-.79,1-.79.51,0,1,.24.91.81h-.52a.45.45,0,0,0-.9-.07c0,.51,1.45.5,1.45,1.38C173,32.15,172.54,32.39,172,32.39Z"/><path class="cls-1" d="M174.39,32.39c.61,0,1.1-.18,1.1-1.46,0-.85-.1-1.54-1.1-1.54s-1.1.69-1.1,1.54C173.29,32.21,173.78,32.39,174.39,32.39Zm0-.38c-.49,0-.61-.34-.61-1.28,0-.79.25-1,.61-1s.61.17.61,1C175,31.67,174.88,32,174.39,32Z"/><path class="cls-1" d="M178,30.37a.82.82,0,0,0-.89-1c-1,0-1.1.69-1.1,1.54,0,1.28.49,1.46,1.1,1.46a.91.91,0,0,0,.91-1h-.49c0,.52-.31.64-.42.64-.49,0-.61-.34-.61-1.28,0-.79.25-1,.61-1,.18,0,.41.13.4.6Z"/><path class="cls-1" d="M178.48,28.2H179v.5h-.53Zm.5,4.13h-.47V29.44H179Z"/><path class="cls-1" d="M181,31.92h0a.72.72,0,0,1-.73.47c-.61,0-.79-.39-.79-.95,0-.87.86-.91,1.52-.9,0-.38,0-.8-.49-.8a.42.42,0,0,0-.45.52h-.51c0-.65.36-.87,1-.87s.94.38.94.87v1.39a5.06,5.06,0,0,0,0,.68H181Zm-1.06-.44c0,.28.14.53.45.53s.64-.18.6-1.11C180.54,30.9,179.94,30.86,179.94,31.48Z"/><path class="cls-1" d="M182.14,29.44v-.55l.47-.21v.76h.63v.36h-.63v1.77c0,.18,0,.41.43.41l.21,0v.36c-.16,0-.31,0-.47,0-.44,0-.64-.18-.64-.52V29.8h-.48v-.36Z"/><path class="cls-1" d="M183.35,28.2h.53v.5h-.53Zm.5,4.13h-.47V29.44h.47Z"/><path class="cls-1" d="M184.3,30.93c0-.85.09-1.54,1.09-1.54s1.1.69,1.1,1.54c0,1.28-.48,1.46-1.1,1.46S184.3,32.21,184.3,30.93Zm1.7-.2c0-.79-.25-1-.61-1s-.6.17-.6,1c0,.94.12,1.28.6,1.28S186,31.67,186,30.73Z"/><path class="cls-1" d="M188.52,32.33v-2c0-.31-.11-.56-.51-.56s-.59.46-.59.85v1.71H187V30q0-.3,0-.6h.5v.38h0a.77.77,0,0,1,.78-.43c.61,0,.77.37.77.94v2Z"/></svg>