<?xml version="1.0" encoding="utf-8"?>
<!-- Generator: Adobe Illustrator 23.0.1, SVG Export Plug-In . SVG Version: 6.00 Build 0)  -->
<svg version="1.1" id="레이어_1" xmlns="http://www.w3.org/2000/svg" xmlns:xlink="http://www.w3.org/1999/xlink" x="0px"
	 y="0px" viewBox="0 0 422.1 156.1" style="enable-background:new 0 0 422.1 156.1;" xml:space="preserve">
<style type="text/css">
	.st0{fill:#555555;}
	.st1{fill:#334EA2;}
	.st2{fill:#5E73B6;}
	.st3{fill:#435CA9;}
	.st4{fill:#8797C8;}
	.st5{fill:#455EAA;}
	.st6{fill:#4961AC;}
	.st7{fill:#415AA9;}
	.st8{fill:#3B55A6;}
	.st9{fill:#546AB1;}
	.st10{fill:#687CBA;}
	.st11{fill:#788AC2;}
	.st12{fill:#3752A4;}
	.st13{fill:#FEFEFE;}
	.st14{fill:#3953A5;}
	.st15{fill:#99A7D1;}
	.st16{fill:#8393C6;}
	.st17{fill:#3F59A8;}
	.st18{fill:#B1BCDC;}
	.st19{fill:#AFBADB;}
	.st20{fill:#4E65AE;}
	.st21{fill:#8595C7;}
	.st22{fill:#8F9ECC;}
	.st23{fill:#9BA8D1;}
	.st24{fill:#4B63AD;}
	.st25{fill:#7285BF;}
	.st26{fill:#ABB6D9;}
	.st27{fill:#6075B6;}
	.st28{fill:#7E8FC4;}
	.st29{fill:#3D57A7;}
	.st30{fill:#3550A3;}
	.st31{fill:#4760AB;}
	.st32{fill:#5A70B4;}
	.st33{fill:#93A1CE;}
	.st34{fill:#6A7EBB;}
	.st35{fill:#8D9CCB;}
	.st36{fill:#667AB9;}
	.st37{fill:#5269B0;}
	.st38{fill:#5067AF;}
	.st39{fill:#5C71B5;}
	.st40{fill:#586EB3;}
	.st41{fill:#566CB2;}
	.st42{fill:#A7B3D7;}
	.st43{fill:#6C80BC;}
	.st44{fill:#9DAAD2;}
	.st45{fill:#A5B1D6;}
	.st46{fill:#97A5D0;}
	.st47{fill:#CAD1E7;}
	.st48{fill:#7688C1;}
	.st49{fill:#C4CCE4;}
	.st50{fill:#C0C8E2;}
</style>
<g>
	<path class="st0" d="M24.5,131.4v-6.6h-4.6V135c-1,0.7-2.6,1.1-5.1,1.1H4.5V125H0v15.1h13.6c3.5,0,5.3-0.4,6.3-1.3v3.3h4.6v-6.6
		h4.3v-4H24.5z M1.6,143.4v12.5h22.9v-12.5H1.6z M19.9,152H6.2v-4.6h13.7V152z"/>
	<path class="st0" d="M56.6,143.8v-3.9H28.9v3.9h11.6v2.7h-9.8v3.9H50v5.7h4.6v-9.6H45v-2.7H56.6z M50,125.2v2.9H35.4v-2.9h-4.6
		v12.9h23.8v-12.9H50z M50,134.2H35.4v-2.3H50V134.2z"/>
	<path class="st0" d="M76.3,150.2v-13.4h-4.6v13.4h-3.2v-13.4H64v13.4h-5.4v4h27.3v-4H76.3z M59.9,125.3v4h19.8v7.8
		c0,2.9-0.3,6.3-0.8,8.8h4.6c0.5-2.7,0.8-6.3,0.8-9.8v-10.9H59.9z"/>
	<path class="st0" d="M88.1,145.3v4h5.8v6.6h4.5v-6.6h6.9v6.6h4.5v-6.6h5.6v-4H88.1z M94.2,138.6v-2.8h19.7v-10.6H89.6v4h19.7v2.7
		H89.6v10.8h24.6v-4H94.2z"/>
	<path class="st0" d="M128.5,126.6v-2.7h-4.6v2.7h-6.6v3.7h17.4v-3.7H128.5z M132,132.7c-1.4-1-3.5-1.6-5.9-1.6
		c-2.4,0-4.5,0.5-5.9,1.6c-1.3,0.9-2,2.3-2,4c0,1.7,0.7,3.1,2,4c1.4,1,3.4,1.6,5.9,1.6c2.4,0,4.5-0.5,5.9-1.6c1.3-0.9,2-2.3,2-4
		C134.1,135,133.3,133.7,132,132.7z M129,138c-0.6,0.5-1.7,0.7-2.9,0.7c-1.2,0-2.3-0.2-2.9-0.7c-0.4-0.3-0.6-0.8-0.6-1.3
		c0-0.5,0.3-0.9,0.6-1.2c0.6-0.5,1.7-0.8,2.9-0.8c1.2,0,2.2,0.3,2.9,0.8c0.4,0.3,0.6,0.7,0.6,1.2C129.7,137.2,129.4,137.7,129,138z
		 M138.8,143.5v2.6h-14v-2.6h-4.6v12.4h23.2v-12.4H138.8z M138.8,152.1h-14v-2.1h14V152.1z M138.8,124.8v6.2h-4.1v3.7h4.1v1.8h-4.1
		v3.7h4.1v2.2h4.6v-17.7H138.8z"/>
	<path class="st0" d="M161,139h-8.6v-3.2h9.6v-10.6h-14.2v3.8h9.6v3h-9.6v10.8h12.9c1.8,0,3.3-0.1,4.7-0.6v-3.6
		C164.1,139,162.7,139,161,139z M149.3,145.2v4h18.9v6.9h4.6v-10.9H149.3z M168.3,124.8v3.3h-5.1v3.9h5.1v1.9h-5.1v3.9h5.1v6h4.6
		v-18.9H168.3z"/>
	<path class="st0" d="M187.9,136.2v-6.9h6.2v-4h-16.8v4h6.1v6.9c0,8.7-2.9,11.5-6.4,13.1v4.2c3.7-1.1,7-3.7,8.7-6.5
		c1.7,2.9,5,5.5,8.7,6.5v-4.2C190.8,147.7,187.9,144.9,187.9,136.2z M197.7,124.8v30.8h4.6v-30.8H197.7z"/>
	<path class="st0" d="M221.5,137.6h-15.6v3.8h6.1v4.6h4.6v-4.6h4.7c1.7,0,3.3-0.1,4.7-0.6v-3.6C224.5,137.6,223.1,137.6,221.5,137.6
		z M222.3,126.5c-1.6-1.3-4.1-1.9-6.7-1.9c-2.6,0-5.1,0.6-6.7,1.9c-1.2,0.9-1.9,2.3-1.9,4c0,1.8,0.7,3.1,1.9,4.1
		c1.6,1.3,4.1,1.9,6.7,1.9c2.7,0,5.1-0.6,6.7-1.9c1.1-0.9,1.9-2.3,1.9-4.1C224.1,128.8,223.4,127.5,222.3,126.5z M219,132.1
		c-0.7,0.6-2,0.9-3.5,0.9c-1.5,0-2.8-0.3-3.5-0.9c-0.5-0.4-0.7-0.9-0.7-1.5s0.3-1.1,0.7-1.5c0.7-0.6,2-0.8,3.5-0.8
		c1.6,0,2.8,0.3,3.5,0.8c0.5,0.4,0.7,0.9,0.7,1.5S219.5,131.7,219,132.1z M213.3,151.9v-5.1h-4.6v9h23.7v-4H213.3z M227.3,124.8
		v17.7h-6.4v3.6h6.4v2h4.6v-23.3H227.3z"/>
	<path class="st0" d="M246.5,126.6v-2.7h-4.6v2.7h-6.6v3.7h17.4v-3.7H246.5z M250,132.7c-1.4-1-3.5-1.6-5.9-1.6
		c-2.5,0-4.5,0.5-5.9,1.6c-1.3,0.9-2,2.3-2,4c0,1.7,0.7,3.1,2,4c1.4,1,3.4,1.6,5.9,1.6c2.4,0,4.5-0.5,5.9-1.6c1.3-0.9,2-2.3,2-4
		C252.1,135,251.3,133.7,250,132.7z M247,138c-0.6,0.5-1.7,0.7-2.9,0.7c-1.2,0-2.3-0.2-2.9-0.7c-0.4-0.3-0.6-0.8-0.6-1.3
		c0-0.5,0.3-0.9,0.6-1.2c0.6-0.5,1.7-0.8,2.9-0.8c1.2,0,2.2,0.3,2.9,0.8c0.4,0.3,0.6,0.7,0.6,1.2C247.7,137.2,247.4,137.7,247,138z
		 M256.8,143.5v2.6h-14v-2.6h-4.6v12.4h23.2v-12.4H256.8z M256.8,152.1h-14v-2.1h14V152.1z M256.8,124.8v6.2h-4.1v3.7h4.1v1.8h-4.1
		v3.7h4.1v2.2h4.6v-17.7H256.8z"/>
	<path class="st0" d="M286.2,124.8v23.8c-1,0.9-2.8,1.3-5.3,1.3h-4.1v-3.3c1.1-0.3,2.1-0.7,3-1.4c1.6-1.2,2.6-3.1,2.6-5.5
		s-1-4.2-2.6-5.5c-1.4-1.1-3.3-1.7-5.3-1.7c-2,0-3.9,0.6-5.3,1.7c-1.6,1.2-2.6,3.1-2.6,5.5s1,4.2,2.6,5.5c0.9,0.7,1.9,1.1,3,1.4v3.3
		h-7v4h14.9c2.9,0,5.2-0.5,6.2-1.5v3.2h4.6v-30.8H286.2z M272.1,142.1c-0.6-0.6-1-1.4-1-2.4c0-1,0.4-1.8,1-2.4
		c0.6-0.5,1.4-0.8,2.4-0.8c1,0,1.7,0.3,2.3,0.8c0.6,0.6,1,1.4,1,2.4c0,1-0.4,1.8-1,2.4c-0.6,0.5-1.4,0.8-2.3,0.8
		C273.5,143,272.7,142.7,272.1,142.1z M276.7,127.5v-3.6h-4.6v3.6h-6.4v3.9h17.5v-3.9H276.7z"/>
	<path class="st0" d="M312,135.5h-10.5v3.6h4.7v4.3h4.5v-4.3h1.1c1.7,0,3.3-0.1,4.7-0.6v-3.4C315.1,135.5,313.7,135.5,312,135.5z
		 M314,126.1c-1.2-0.9-3-1.4-4.9-1.4c-2,0-3.7,0.5-4.9,1.4c-1.1,0.9-1.7,2.1-1.7,3.7c0,1.5,0.6,2.8,1.7,3.6c1.2,1,3,1.5,4.9,1.5
		c1.9,0,3.7-0.5,4.9-1.5c1.1-0.9,1.8-2.1,1.8-3.6C315.7,128.2,315.1,127,314,126.1z M311,130.9c-0.4,0.4-1.1,0.6-1.9,0.6
		c-0.8,0-1.5-0.2-2-0.6c-0.3-0.3-0.5-0.7-0.5-1.1c0-0.4,0.2-0.8,0.5-1.1c0.4-0.4,1.1-0.6,2-0.6c0.8,0,1.5,0.2,1.9,0.6
		c0.3,0.3,0.5,0.7,0.5,1.1C311.4,130.2,311.3,130.6,311,130.9z M323.3,144.5v2.1h-14.2v-2.1h-4.6v11.4h23.4v-11.4H323.3z
		 M323.3,152.1h-14.2v-1.7h14.2V152.1z M317.4,125v14.7h-4.3v3.4h4.3v0.5h4.4V125H317.4z M323.5,124.8v18.8h4.5v-18.8H323.5z"/>
	<path class="st0" d="M342.4,130.9v-1.8h5.8v-3.9h-16.1v3.9h5.8v1.8c0,5.3-2.3,7.8-6.3,8.6v4.1c3.6-0.5,6.9-2.5,8.7-4.9
		c1.7,2.4,4.9,4,8.5,4.6v-4.1C344.8,138.4,342.4,136.2,342.4,130.9z M338.4,151.7v-6.9h-4.6v10.9h23.7v-4H338.4z M352.4,124.8v21.6
		h4.6v-21.6H352.4z"/>
</g>
<g>
	<path class="st1" d="M276.7,72.9c-0.1-1.5,0-3-0.3-4.5c0,0,0-0.1,0-0.1c-0.1-0.3-0.2-0.6-0.3-0.9c-0.4-1.1-0.4-2.4-1.1-3.5
		c-0.3-0.4-0.6-0.8-0.9-1.2c0-0.1-0.1-0.2-0.2-0.2c-0.1-0.2-0.1-0.3-0.2-0.5c-0.2-0.2-0.3-0.5-0.4-0.8c-0.1,0-0.1-0.1-0.2-0.1
		c0,0-0.1-0.1-0.1-0.1c-0.8-0.6-1.3-1.3-1.9-2.1c-0.1-0.2-0.2-0.3-0.3-0.4c-0.4-0.8-1.3-1.1-2-1.6c0,0,0,0,0,0
		c-1.6-1.3-2.4-3.7-1.4-5.2c0.1-0.2,0.3-0.3,0.4-0.5c0,0,0,0,0,0c0,0,0,0,0,0c0.1-0.2,0.3-0.4,0.3-0.7c0,0,0-0.1,0-0.1
		c0-0.1,0-0.2-0.1-0.3c-0.1-0.4-0.2-0.8-0.3-1.3c-0.1-0.3-0.1-0.7-0.1-1c0-0.4,0.1-0.7,0.3-1.1c0,0,0-0.1,0-0.1
		c0.1-0.2,0.1-0.4,0-0.6c0-0.1,0-0.2,0-0.4c0-0.3-0.1-0.5-0.3-0.7l-0.1-0.1c-0.1-0.1-0.1-0.1-0.2-0.2c0,0,0,0,0,0
		c-0.1-0.1-0.1-0.1-0.2-0.1c-0.1-0.1-0.2-0.2-0.3-0.2c-0.2-0.2-0.3-0.4-0.5-0.5c0,0-0.1-0.1-0.1-0.1c0,0-0.1,0-0.1,0
		c-0.8-0.3-1.5-0.6-2.3-0.8c-0.7-0.2-1.5-0.2-2.1-0.5c-1.5-0.8-3-1.2-4.7-1.1c-1.8,0-3.2,0.8-4.7,1.4c-0.9-0.1-1.2,0.6-1.5,1.2
		c-0.6,0.4-1.1,1.1-1.7,1.6c0,0.1-0.1,0.1-0.1,0.2c-1.5,2.2-3.6,3.9-4.8,6.3c-1.4,1.8-2.2,4-3,6.1c-0.6,1.6-1.3,3.2-1.8,4.8
		c-0.7,2.1-1.2,4.3-1.9,6.4c-1,3-1.4,6-1.6,9.1c-0.3,1.3,0.3,2.6,0.2,3.9c0,0.1,0,0.2,0,0.3c0,0.2-0.1,0.3-0.1,0.5
		c-0.2,1.7,0.9,2.9,1.5,4.4c0.3,0.7,0.1,1.6,0.7,2.2c0.8,0.9,1.6,1.8,1.9,3c0,0,0,0,0,0c0.1,0,0.2,0.1,0.2,0.2
		c0.3,0.3,0.5,0.6,0.7,0.9c0.2,0.5,0.6,0.7,1,0.8c0.3,0.5,0.5,0.8,1.2,1c1.7,0.5,3.2,1.7,5,1.6c0.1,0,0.2,0.1,0.3,0.2
		c0.6,0.8,1.4,0.7,2.2,0.7c3.9-0.1,7.3-1.9,10.8-3.1c0.1,0,0.2-0.1,0.3-0.2c1.4-1.1,3.1-1.7,4.6-2.6c2.8-1.7,4.9-3.8,6.3-6.6
		c0.7-1,1.3-2,1.8-3.2c0.4-1,0.6-2,1.1-2.9c0,0,0-0.1,0.1-0.1c0-0.1,0.1-0.1,0.1-0.2c0-0.6,0.1-1.3,0.4-1.8
		C276.8,76,276.8,74.4,276.7,72.9z M265.5,75.3c-1.3,3.9-4.5,5.6-8.2,6.5c-1.1,0.3-2.1,0.9-3.2,0.8c-0.2-1.4,0.2-2.9-0.1-4.3
		c0.2-0.5,0.4-1,0.6-1.5c0.9-0.7,0.8-2,1.5-2.8c1.3-3.1,2.7-6.3,5.1-8.8c0.6-0.6,1-0.4,1.4-0.1c1.2,0.8,2.5,1.4,3,2.9
		c0,0.1,0.3,0.2,0.4,0.3c0.5,1.5,0.2,3,0.5,4.5C266,73.6,265.8,74.5,265.5,75.3z"/>
	<path class="st2" d="M273.4,62.1c-0.1-0.2-0.2-0.5-0.3-0.7c-0.1-0.3-0.2-0.5,0-0.8c0.1-0.2,0.4-0.5,0.5-0.2
		c0.1,1.4,1.7,1.9,1.9,3.3c0.1,0.7,0.8,1.4,0.5,2.2c0,0.1,0,0.2,0,0.2c1.3,0.6,0.1,1.6,0.4,2.3c0.6,0.3,1.1,0.7,0.7,1.5
		c-0.9,0.8,0,1.7,0,2.6c0,0.2,0.3,0.4,0.1,0.7c-0.8,2.1-0.5,4.4-1.6,6.4c-0.2,0.1-0.3,0-0.2-0.2c0-0.6,0-1.2,0.3-1.7
		c1-1.6,0.8-3.4,0.7-5.1c-0.1-2.7-0.5-5.3-1.6-7.7c-0.1-0.2-0.3-0.4-0.4-0.6C273.9,63.6,274.1,62.6,273.4,62.1z"/>
	<path class="st3" d="M266.1,44c-1.9-0.5-3.9-0.8-5.7-1.7c-0.8-0.4-1.9-1.2-3-0.3c-0.1,0.1-0.5,0-0.7-0.1c-0.9-0.5-1.8-0.1-2.5,0.3
		c-0.6,0.4-1.2,0.5-1.9,0.6c1.1-1.1,2.6-1.5,4-1.8c1.9-0.3,3.7,0,5.4,0.5c1,0.6,1.9,1.5,3.2,1.5c0.5-0.1,0.8,0.2,1.2,0.5
		C266.2,43.6,266.8,43.9,266.1,44z"/>
	<path class="st4" d="M267.4,46c0-0.2,0-0.5,0-0.7c-0.2-0.4,0-0.7,0.1-1c0.2-0.4,0.2-0.9,0.8-1c1.2-0.1,1.2,0.6,0.9,1.4
		c-0.1,0.4-0.4,0.7,0.2,1c1,0.3,0.7,1.1,0.2,1.5c-0.7,0.6-1.1,1.4-1.6,2.2c-0.7-0.4-0.7-1-0.5-1.6C267.9,47.1,268.1,46.5,267.4,46z"
		/>
	<path class="st5" d="M268.6,57.1c-1.8-1.1-2.5-3.1-1.8-5.1c0.1-0.2,0.1-0.4,0.1-0.6c0-0.2-0.5-0.5,0-0.7c0.3-0.1,0.4,0.2,0.6,0.3
		c0.4,0.2,0.4,0.5,0.3,0.9c-0.1,0.5,0.2,0.8,0.3,1.3c0,0.6,0.3,1.2,0.1,1.9c0,0.5,0.2,0.9,0.6,1.3C269,56.7,268.9,56.9,268.6,57.1z"
		/>
	<path class="st6" d="M236.1,83.1c0.1,1,0.2,2,0.9,2.9c1,1.3,0.9,3.1,1.9,4.4c0.5,0.7,1,1.3,1.3,2.1c0.1,0.5-0.1,0.6-0.5,0.6
		c-0.1-0.9-0.5-1.5-1.1-2.1c-0.9-0.8-1.2-2.1-1.5-3.3c-0.3-1.4-1.4-2.5-1.3-4c0-0.6-0.2-1.2,0.1-1.7C236.2,82.3,236,82.7,236.1,83.1
		z"/>
	<path class="st5" d="M267.4,46c1.1,0.1,1.1,0.9,0.9,1.7c-0.1,0.6-0.3,1.1-0.1,1.7c0.1,0.2,0.3,0.3,0.4,0.5c0.1,0.6-0.4,0.7-0.8,0.7
		c-0.5-1-0.9-2.1-0.6-3.3C267.4,46.8,267.6,46.4,267.4,46z"/>
	<path class="st7" d="M275.4,79.3c0.1,0.1,0.2,0.2,0.2,0.2c-0.4,2.1-1.4,3.9-2.4,5.8c-0.1,0.2-0.4,0.3-0.6,0.3
		C273.6,83.5,274.5,81.4,275.4,79.3z"/>
	<path class="st6" d="M249,45.7c-0.3,1.2-1.2,1.9-2,2.7c-1,1.2-1.9,2.4-2.8,3.6c0.6-1.9,2-3.4,3.4-4.8
		C248.1,46.8,248.2,45.9,249,45.7z"/>
	<path class="st8" d="M268.4,43.3c0,0.5-0.2,0.9-0.5,1.3c-0.5-0.1-0.6,0.5-1,0.5c-0.5-0.1-0.7-0.5-0.8-1c0-0.2,0-0.4,0-0.6
		c0.3,0.1,0.6-0.1,0.8-0.3C267.4,42.5,267.9,42.7,268.4,43.3z"/>
	<path class="st9" d="M267.8,50.6c0.1-0.4,0.5-0.5,0.8-0.7c0.6-0.1,0.4,0.6,0.7,0.8c0.2,0.2,0.2,0.4,0.1,0.6c-0.2,0.3-0.4,0.1-0.6,0
		c-0.8-0.1-0.6,0.5-0.7,0.9c-0.1,0.5,0.1,1-0.5,1.3c-0.3-0.8-0.3-1.5,0-2.3C267.7,50.9,267.8,50.7,267.8,50.6z"/>
	<path class="st5" d="M270.6,58.7c0.2,0.1,0.3,0.2,0.5,0.2c0.5-0.1,1-0.4,1,0.6c0,0.5,0.4,1,1,1.1c0,0.3,0,0.5,0,0.8
		C271.9,60.8,271.3,59.7,270.6,58.7z"/>
	<path class="st10" d="M261.8,41.8c-1.8-0.6-3.7-0.8-5.6-0.8c1.5-0.5,2.9-0.2,4.4,0.1c0.5,0.1,1.1-0.4,1.4,0.4
		C262.2,41.7,262.1,41.8,261.8,41.8z"/>
	<path class="st11" d="M239.7,93.1c0.2-0.2,0.3-0.4,0.5-0.6c0.6,0.7,1.2,1.4,1.7,2.1c-0.7,0.4-1.2,0.4-1.3-0.5
		C240.6,93.5,240,93.5,239.7,93.1z"/>
	<path class="st8" d="M261.8,41.8c0.1-0.1,0.2-0.2,0.3-0.3c1.1,0.2,1.7,1.3,2.8,1.5C263.6,43.2,262.7,42.6,261.8,41.8z"/>
	<path class="st12" d="M236.1,83.1c-0.1-0.4-0.2-0.7-0.3-1.1c0.1-1.2-0.4-2.3,0-3.5C236.1,80,236.6,81.5,236.1,83.1z"/>
	<path class="st6" d="M250.7,44c-0.4,0.7-0.6,1.6-1.7,1.6C249.2,44.6,249.8,44.1,250.7,44z"/>
	<path class="st13" d="M254,82.5c-0.7-1.4-0.1-2.9-0.1-4.3C254.2,79.7,253.8,81.1,254,82.5z"/>
	<path class="st13" d="M254.5,76.8c0.6-0.9,0.6-2.1,1.5-2.8C255.3,74.8,255.4,76,254.5,76.8z"/>
	<path class="st13" d="M266.3,72.7c-0.3-1.5,0-3-0.5-4.5C266.7,69.6,266.6,71.2,266.3,72.7z"/>
	<path class="st14" d="M266.3,72.7c-0.3-1.5,0-3-0.5-4.5C267.1,69.3,267.3,71.3,266.3,72.7z"/>
	<path class="st15" d="M254,82.5c-0.2,0.1-0.5,0.2-0.7,0.2c0.1-1.5-0.1-3.1,0.6-4.5C254.2,79.7,253.8,81.1,254,82.5z"/>
	<path class="st16" d="M256,74c-0.7,0.8-0.6,2.1-1.5,2.8C254.9,75.8,254.8,74.5,256,74z"/>
	<path class="st5" d="M266.9,45c0.2-0.3-0.3-0.7,0.1-0.9c0.4-0.1,0.7-0.1,0.9,0.4c-0.2,0.2-0.3,0.5-0.5,0.7
		C267.2,45.2,267,45.1,266.9,45z"/>
	<path class="st5" d="M273.4,62.1c1,0.3,0.8,1.3,1,2C273.7,63.7,273.6,62.9,273.4,62.1z"/>
	<path class="st1" d="M376.1,31.6c-0.1-1.5,0-3-0.3-4.5c0,0,0,0,0-0.1l0-0.1c0,0,0,0,0,0c-0.1-0.3-0.1-0.6-0.3-0.8
		c-0.4-1.1-0.4-2.4-1.1-3.5c-0.5-0.6-1-1.1-1.3-1.9c-0.2-0.2-0.3-0.5-0.4-0.8c-0.1-0.1-0.2-0.2-0.3-0.2c-0.9-0.7-1.5-1.6-2.2-2.6
		c-0.5-0.8-1.3-1.1-2-1.6c-1.7-1.4-2.6-4.2-0.9-5.6c0.2-0.2,0.3-0.4,0.3-0.7c-0.3-1.3-0.9-2.5-0.2-3.8c0.1-0.3,0-0.7,0-1
		c0-0.3-0.1-0.5-0.3-0.7c-0.2-0.2-0.4-0.3-0.6-0.5c-0.4-0.2-0.6-0.6-0.9-0.8c-0.8-0.3-1.6-0.6-2.4-0.8c-0.7-0.2-1.5-0.2-2.2-0.5
		c-1.5-0.8-3-1.1-4.7-1.1c-1.8,0-3.2,0.8-4.7,1.4c-0.9-0.1-1.2,0.6-1.5,1.2c-0.6,0.5-1.1,1.1-1.7,1.6c0,0.1-0.1,0.1-0.1,0.2
		c-1.5,2.2-3.6,3.9-4.8,6.3c-1.4,1.8-2.2,4-3,6.1c-0.6,1.6-1.3,3.2-1.8,4.8c-0.7,2.1-1.2,4.3-1.9,6.4c-1,2.9-1.4,6-1.6,9.1
		c-0.3,1.3,0.3,2.6,0.2,3.9c0,0.1,0,0.2,0,0.3c0,0.2-0.1,0.3-0.1,0.5c-0.2,1.7,0.9,2.9,1.5,4.4c0.3,0.7,0.1,1.6,0.7,2.2
		c0.8,0.9,1.6,1.8,1.9,3c0,0,0,0,0,0c0.1,0,0.1,0.1,0.2,0.2c0.3,0.2,0.6,0.6,0.7,0.9c0.2,0.5,0.6,0.7,1,0.8c0.3,0.5,0.5,0.8,1.2,1
		c1.7,0.5,3.2,1.7,5,1.6c0.1,0,0.2,0.1,0.3,0.2c0.5,0.8,1.4,0.7,2.2,0.7c3.9-0.1,7.3-1.9,10.9-3.1c0.1,0,0.2-0.1,0.3-0.2
		c1.4-1.1,3.1-1.7,4.6-2.6c2.8-1.7,4.9-3.8,6.3-6.6c0.7-1,1.3-2,1.8-3.2c0.4-1,0.6-2,1.1-2.9c0,0,0-0.1,0.1-0.1
		c0-0.1,0.1-0.1,0.1-0.2c0-0.6,0.1-1.3,0.4-1.8C376.1,34.7,376.2,33,376.1,31.6z M364.8,34c-1.4,3.9-4.5,5.6-8.2,6.5
		c-1.1,0.3-2.1,0.8-3.3,0.8c-0.2-1.4,0.2-2.9,0-4.3c0.2-0.5,0.4-1,0.5-1.5c0.9-0.7,0.8-2,1.5-2.8c1.3-3.2,2.7-6.3,5.1-8.8
		c0.6-0.6,1-0.4,1.4-0.1c1.1,0.8,2.5,1.4,3,2.9c0,0.1,0.3,0.2,0.4,0.3c0.5,1.5,0.2,3,0.5,4.5C365.4,32.2,365.1,33.1,364.8,34z"/>
	<path class="st2" d="M372.8,20.8c-0.1-0.2-0.2-0.5-0.3-0.7c-0.1-0.3-0.2-0.5,0-0.8c0.1-0.2,0.4-0.5,0.5-0.2
		c0.1,1.4,1.7,1.9,1.9,3.3c0.1,0.7,0.8,1.4,0.5,2.2c0,0.1,0,0.2,0,0.2c1.3,0.6,0.1,1.6,0.4,2.3c0.6,0.3,1.1,0.7,0.7,1.5
		c-0.9,0.8,0,1.7,0,2.6c0,0.2,0.3,0.4,0.1,0.7c-0.8,2.1-0.5,4.4-1.6,6.4c-0.2,0.1-0.3,0-0.2-0.2c0-0.6,0-1.2,0.3-1.7
		c1-1.6,0.8-3.4,0.7-5.1c-0.1-2.7-0.5-5.3-1.6-7.7c-0.1-0.2-0.3-0.4-0.4-0.6C373.2,22.3,373.5,21.3,372.8,20.8z"/>
	<path class="st6" d="M335.5,41.7c0.1,1,0.2,2,0.9,2.9c1,1.3,0.9,3.1,1.9,4.4c0.5,0.7,1,1.3,1.3,2.1c0.1,0.5-0.1,0.6-0.5,0.6
		c-0.1-0.9-0.5-1.5-1.1-2.1c-0.9-0.8-1.2-2.1-1.5-3.3c-0.3-1.4-1.4-2.5-1.3-4c0-0.6-0.2-1.2,0.1-1.7
		C335.5,40.9,335.3,41.4,335.5,41.7z"/>
	<path class="st7" d="M374.8,37.9c0.1,0.1,0.2,0.2,0.2,0.2c-0.4,2.1-1.4,3.9-2.4,5.8c-0.1,0.2-0.4,0.3-0.6,0.3
		C372.9,42.2,373.9,40.1,374.8,37.9z"/>
	<path class="st11" d="M339,51.8c0.2-0.2,0.3-0.4,0.5-0.6c0.6,0.7,1.2,1.4,1.7,2.1c-0.7,0.4-1.2,0.4-1.3-0.5
		C339.9,52.1,339.3,52.1,339,51.8z"/>
	<path class="st12" d="M335.5,41.7c-0.1-0.4-0.2-0.7-0.3-1.1c0.1-1.2-0.4-2.3,0-3.5C335.4,38.7,335.9,40.2,335.5,41.7z"/>
	<path class="st13" d="M353.4,41.2c-0.7-1.4-0.1-2.9,0-4.3C353.6,38.3,353.1,39.8,353.4,41.2z"/>
	<path class="st13" d="M353.9,35.4c0.6-0.9,0.6-2.1,1.5-2.8C354.7,33.5,354.7,34.7,353.9,35.4z"/>
	<path class="st13" d="M365.7,31.4c-0.3-1.5,0-3-0.5-4.5C366.1,28.3,365.9,29.8,365.7,31.4z"/>
	<path class="st14" d="M365.7,31.4c-0.3-1.5,0-3-0.5-4.5C366.5,28,366.7,29.9,365.7,31.4z"/>
	<path class="st15" d="M353.4,41.2c-0.2,0.1-0.5,0.1-0.7,0.2c0.1-1.5-0.1-3.1,0.6-4.5C353.6,38.3,353.1,39.8,353.4,41.2z"/>
	<path class="st16" d="M355.3,32.6c-0.7,0.8-0.6,2.1-1.5,2.8C354.3,34.4,354.1,33.2,355.3,32.6z"/>
	<path class="st1" d="M380.1,48.7c0.9-0.7,1.7-1.5,2.7-2c0.5-0.8,1.2-1.3,2-1.5c0-0.1,0.1-0.3,0.1-0.3c1.4-0.4,2-1.9,3.1-2.7
		c2.1-1.5,4.5-2.4,6.4-4.2c0.6-1.2,1.9-1.2,2.8-2c0.7-0.6,1.3-1.2,2.1-1.6c1.2-0.4,2.2-1.1,3.1-2c0.6,0,1.2,0,1.8-0.7
		c0.5-0.6,1.6-0.7,2.4-1c1.8-1.2,4-1.5,6-2c0.7-0.6,1.4-0.7,2.2-0.1c0.4,0.4,0.8,0.8,1.1,1.2c0.5,1.1,1.7,1.4,2.6,1.7
		c2,0.6,2.7,1.6,2.6,3.8c0,0.5,0.1,1,0,1.5c0,0.4,0,0.8-0.3,1c-1.5,1.3-2.6,3.1-4.3,4.1c-1,0.6-2.2,0.7-3.3,1.1
		c-1.3,0.9-2.8,1.1-4.2,1.7c-0.3,0.2-0.6,0.3-0.8,0.6c-1,0.5-2,1.2-3.1,1.4c-0.9,0.7-2.2,0.9-2.9,2.1c-0.2,0.3-0.7,0-0.9,0.4
		c-0.9,0.1-1.1,1.6-2.2,1.3c-0.3,0.2-0.7,0.5-1,0.7c-0.2,0.3-0.5,0.5-0.6,0.8c-0.7,0.5-1.3,1.1-2.1,1.5c-0.5,0.5-1.2,0.6-1.8,0.9
		c-4.4,3.2-9,6.1-13.4,9.5c-2.4,1.9-4.8,3.7-7.3,5.5c-0.1,0.6-0.7,0.5-1,0.7c-3,2.4-5.9,4.8-8.9,7.2c-3.4,2.7-6.8,5.6-10.4,8.1
		c-2.8,1.9-5.4,4-8.4,5.6c-1.6,0.6-3,1.6-4.6,2.3c-1.9,0.8-3.8,1.1-5.8,1.6c-1.4,0.1-2.9,0.2-4.3,0.1c-0.4,0-0.7-0.1-1-0.4
		c-0.1-0.1-0.1-0.3-0.2-0.3c-2.9-1-2.9-3.5-3-6c0-0.6,0.5-0.9,0.9-1.3c0.6-0.5,1.2-0.9,1.9-1.2c2,0.3,3.8,0.1,5.6-0.9
		c0.4-0.2,0.8-0.4,1.2-0.6c0.8-0.2,1.3-0.9,2.2-1c2.2-1.6,4.5-3.1,6.7-4.8c2-1.5,3.9-3.1,5.8-4.8c2.7-2.3,5.6-4.5,8.1-7.1
		c0.8-0.8,1.8-1.6,2.6-2.5c0.6-0.8,1.9-1.3,2.7-2.1c2-2.3,4.6-3.7,6.9-5.7c0.6-0.6,1.4-1.6,1.9-1.8c0.9-0.3,1.2-1.4,2.2-1.4
		c0.2,0,0.5-0.3,0.7-0.5c0.2-1,1.2-0.8,1.7-1.4c0.7-0.6,1.3-1.5,2.3-1.7l0,0C379.2,49.1,379.6,48.8,380.1,48.7z"/>
	<path class="st17" d="M329.1,94.2c0.7,0.6,1.5,0.7,2.4,0.5c0.9-0.3,1.9,0.1,2.8,0c0.3,0,0.4,0.1,0.3,0.4c-0.5,0.6-1.1,0.4-1.7,0.4
		c-1.7,0-3.4,0.4-5-0.4c-1.5-0.3-2.8-0.9-3.6-2.3c-0.6-0.9-1.2-1.8-1.8-2.7c-0.1-0.5,0-1-0.1-1.5c-0.3-1.8,0.9-3.6,2.6-4
		c0.4-0.1,0.8,0.1,1.2,0.2c0.5,0.2,1,0.4,1.5,0.5l0,0c0.2,0.2,0.6,0.2,0.6,0.6c0,0.1,0,0.2-0.1,0.3c-0.5,0.3-1,0.4-1.4,0.7
		c-1.6,0.1-2.2,0.9-1.7,2.5c0.3,1.3,1.2,2.4,1.7,3.6C327.1,93.8,328.3,93.8,329.1,94.2z"/>
	<path class="st7" d="M413.2,42.6c0.4-0.3,0.7-0.5,1.2-0.6c2.3-0.3,3.6-1.9,5.3-3.5c1.5-1.5,1-3,1.1-4.5c0.1-1-1.1-1.8-2.2-2.2
		c-1.1-0.4-2.3-0.7-2.9-1.9c0.8-0.8,1.3,0.1,1.9,0.3c0.5,0.2,0.7,0.8,1.2,0.7c0.9-0.3,1.4,0.4,2.1,0.8l0,0c0.9,0.7,1.3,1.6,0.7,2.7
		c-0.5,0.8,0.3,1.6,0.1,2.5c-0.3,0.7-0.6,1.3-1.4,1.7c-0.6,0.2-0.6,1.2-1.2,1.6c-0.6,0.5-1.2,1-1.9,1.4c-0.9,1.3-2.3,1.1-3.6,1.5
		C413.4,43.1,413.3,42.8,413.2,42.6z"/>
	<path class="st18" d="M327.6,85.2c0,0-0.1,0-0.1,0c-1.6-0.7-2.9,0.1-4.1,1.1c-0.4,0.3-0.6,0.8-0.6,1.4c0,0.7,0.1,1.4,0.1,2.1
		c0.1,0.6,0.3,1.2-0.3,1.6c-0.7-0.6-1-1.2-0.7-2.2c0.2-0.6-0.1-1.4-0.2-2c-0.4-1.3,0-2.2,1.2-2.6c0.6-0.2,0.8-0.8,1.4-0.8
		C325.7,83.6,326.6,84.4,327.6,85.2z"/>
	<path class="st19" d="M328.1,85.7c-0.2-0.2-0.3-0.4-0.5-0.6c0.4-0.3,0.8-0.6,1.2,0.1c0.1,0.2,0.4,0.3,0.6,0.1
		c1-0.8,2.2-0.2,3.3-0.6c1-0.4,2.1-0.8,3.2-1.1c0.5-0.2,1-0.4,1.5-0.3c-0.7,0.4-1.4,0.9-2,1.3c-1.6,0.8-3.3,1.5-5.2,1.5
		C329.4,86.1,328.7,86.3,328.1,85.7z"/>
	<path class="st7" d="M334.6,95c-0.1-0.1-0.2-0.2-0.3-0.4c0.5-0.4,1.1-0.4,1.6-0.5c2.5-0.5,4.8-1.4,7-2.7c0.5-0.3,1-0.4,1.5-0.4
		C341.5,93,338.3,94.7,334.6,95z"/>
	<path class="st20" d="M412.7,29c-0.9,0.6-1.9,0.8-2.9,0.8c-1.1,0-1.9,0.8-2.8,1.2c-0.4-0.1-0.9-0.2-0.8-0.8
		c1.8-0.8,3.6-1.6,5.6-1.9c0.2,0,0.5-0.1,0.7,0C412.7,28.5,412.9,28.7,412.7,29z"/>
	<path class="st21" d="M322.6,91.3c0.1-0.5,0.2-1.1,0.3-1.6c0.6,0.9,1.5,1.5,1.7,2.8c0.1,0.8,0.9,1.3,1.6,1.6
		c0.6,0.2,1.1,0.5,1.6,0.9c-0.7,0.6-1.1-0.1-1.6-0.4C324.7,93.9,323.5,92.8,322.6,91.3z"/>
	<path class="st7" d="M406.2,30.2c0.3,0.3,0.5,0.6,0.8,0.8c-1,0.4-2.1,0.6-3,1.3c-0.5,0.4-1,0.2-1.5,0.2c-0.1-0.2-0.1-0.3,0-0.5
		c1,0.3,1.2-1,2.1-1.1C405.1,30.8,405.8,30.8,406.2,30.2z"/>
	<path class="st6" d="M418.7,31.2c-0.7,0.4-0.9-0.5-1.3-0.6c-0.6-0.2-1-0.7-1.7-0.7c-0.4-0.3-0.8-0.6-1-1.1c0-0.5,0.2-0.7,0.7-0.4
		c0.3,0.3,0.5,0.5,0.8,0.8c0.6,0.2,1.5-0.2,1.7,0.8c0.2,0.3,0.4,0.6,0.7,0.8C418.8,30.9,418.8,31,418.7,31.2z"/>
	<path class="st22" d="M402.5,32c0,0.2,0,0.3,0,0.5c-0.6,1.3-1.7,1.8-2.9,2.1c-0.2-0.3-0.2-0.5,0-0.8
		C400.5,33.2,401.5,32.6,402.5,32z"/>
	<path class="st23" d="M421.7,37c-0.4-0.9-0.7-1.8-0.1-2.9c0.5-0.9-0.7-1.4-0.7-2.3c1.2-0.1,1.2,1.1,1.1,1.6
		C421.9,34.5,422.3,35.8,421.7,37z"/>
	<path class="st24" d="M397.6,36.2c-0.9,0.8-2,1.2-3,1.8c0.1-1.1,1.1-1.9,2.6-2C397.4,35.8,397.5,35.9,397.6,36.2z"/>
	<path class="st2" d="M397.6,36.2c-0.1-0.1-0.3-0.2-0.4-0.2c0.4-1.2,1.5-1.5,2.4-2.1c0,0.3,0,0.5,0,0.8
		C398.9,35.1,398.2,35.6,397.6,36.2z"/>
	<path class="st25" d="M378.9,49.6c-0.7,0.7-1.3,1.4-2.2,1.9c-0.1-0.1-0.2-0.2-0.1-0.4C377.2,50.2,377.6,49.2,378.9,49.6z"/>
	<path class="st26" d="M418.7,31.2c0-0.1-0.1-0.3-0.1-0.4c1.1-0.5,1.9-0.2,2.3,1C420.2,31.6,419.5,31.4,418.7,31.2z"/>
	<path class="st27" d="M384.9,45.2c-0.6,0.6-1.3,1.1-2,1.5C383,45.4,383.7,45.1,384.9,45.2z"/>
	<path class="st28" d="M376.6,51c0,0.1,0,0.3,0.1,0.4c-0.6,0.4-1.2,0.8-1.8,1.2c-0.1-0.7,0-1.2,0.8-1.2
		C376.1,51.5,376.4,51.3,376.6,51z"/>
	<path class="st29" d="M380.1,48.7c-0.3,0.5-0.6,0.8-1.2,0.9C378.9,48.7,379,48,380.1,48.7z"/>
	<path class="st7" d="M329.1,94.2c-1.3-0.1-2.5-0.4-3.1-1.7c-0.2-0.4-0.4-0.9-0.8-1.1c-0.7-0.5-0.9-1.2-0.6-2c0.1-1.5,0.6-2.6,2-3.1
		c0.4-0.4,0.9-0.4,1.5-0.2c0.2,0,0.2,0.1,0.3,0.3c-0.2,0.2-0.5,0.4-0.7,0.5c-1.9,1.3-1.8,1.4-1.3,3.7c0.2,0.7,0.7,1.3,0.7,2.2
		c0,0.4,0.6,0.9,1.2,0.9C328.6,93.6,329.1,93.6,329.1,94.2z"/>
	<path class="st30" d="M328.4,86.2c-0.1-0.1-0.2-0.2-0.3-0.3c0-0.1,0-0.2,0-0.2c2,0.2,3.9,0.3,5.8-0.6c0.4-0.2,0.9-0.5,1.4-0.4
		C333.2,86.3,330.9,86.8,328.4,86.2z"/>
	<path class="st30" d="M326.6,86.2c-0.6,0.8-1.7,1.3-1.5,2.7c0,0.3-0.3,0.4-0.5,0.4C323.9,87.5,324.7,86.2,326.6,86.2z"/>
	<path class="st1" d="M299.8,42.3c0.1-0.1,0.1-0.1,0.2-0.2c0.4-1.9,1.2-3.6,1.5-5.6l0,0c0.7-2.1,0.7-4.4,1.3-6.5
		c0-0.2,0-0.4,0.2-0.5c0.4-0.7,0.1-1.6,0.7-2.2c0.1-0.3,0.1-0.6,0.4-0.8c-0.1-1.5,0.4-2.7,0.8-4c0.3-1.5,0.1-3.1,0.3-4.7
		c0.1-0.6-0.2-1.3-0.6-1.8c-0.4-0.5-1-0.8-1-1.6c0-1.1,0.2-2.1,0.7-3c0.1-0.2,0.2-0.4,0.3-0.6c0.1-0.2,0.2-0.3,0.3-0.4
		c0.6-0.3,1.1-0.9,1.3-1.6c0.3-0.6,0.6-0.8,1.1-0.9c0.2,0,0.3-0.1,0.5,0c1.5-0.2,3-0.1,4.4,0.3c1.6,0.9,2.3,2.5,2.9,4.3
		c0.8,0.7,0.3,1.8,0.6,2.6c0.4,1.4,0.9,3,0.6,4.6c0.2,1.6-0.1,3.1-0.2,4.6c0,0.5,0.1,0.9,0.2,1.3c0.1,0.5,0,0.9-0.3,1.3
		c-0.9,1-0.9,1.4-0.3,2.7c0.1,0.2,0.1,0.4,0.1,0.6c0,0.6-0.5,1-0.4,1.6c0,0.2,0.1,0.3,0,0.5c-0.3,1.3-0.3,1.3,0,2.3
		c-0.2,0.6-0.5,1-0.9,1.3c-0.4,1.1-0.3,2.2-0.2,3.3c0,0.1,0,0.2-0.1,0.3c-0.5,0.5-0.6,1.1-0.5,1.8c-0.1,0.5,0.3,0.8,0.5,1.2
		c0.1,0.8-0.4,1.2-0.6,1.9c-0.4,1.1-1.2,2.1-0.6,3.4c0.1,0.2-0.1,0.6-0.2,0.8c-0.2,0.8-0.7,1.7,0,2.6c0.1,0.1-0.1,0.3-0.1,0.5
		c-0.3,0.9-0.4,2-1.2,2.7c-0.3,0.3-0.3,1.1-0.3,1.6c0.3,1.2-0.2,2.5,0.2,3.8c0.2,0.6-0.5,1.2-0.6,1.9c0,0.1-0.1,0.2-0.1,0.3
		c-0.7,0.5-0.7,1.3-0.5,2.2c0,0.7,0.1,1.4,0.3,2c-0.1,0.2-0.1,0.3-0.2,0.5c-0.1,0.2-0.2,0.4-0.3,0.6c-0.3,0.9-1.4,1.2-1.3,2.4
		c0,0.8,0.8,1.4,0.5,2.3c0,0.1,0,0.1,0,0.2c0.4,0.7-0.3,1-0.3,1.5c-0.6,0.8-1.2,1.5-0.3,2.6c0.3,0.4,0,0.7-0.2,1
		c-0.5,0.6-1,1.1-0.2,1.9c0.3,0.3,0.2,0.9,0,1.3c-0.3,1-0.8,1.9-0.1,3.1c0.2,0.4-0.3,1.1-0.2,1.7c-0.1,0.4-0.7,0.7-0.1,1.2
		c0.2,0.1,0.3,0.5,0.1,0.6c-0.5,0.6-0.1,1.2,0.1,1.7c0.1,1.8,0.4,3.5,0,5.3c0.5,1.7,1.5,3.1,1.8,4.9c0.2,1.2,0.8,2.3,0.8,3.6
		c-0.1,0.4-0.2,0.8-0.2,1.2c0,0.4-0.1,0.7-0.3,0.9c-1.2,0.5-1.7,1.9-2.6,2.8c-0.5,0.5-0.9,1.2-1.7,1.4c-0.5,0.1-0.8,0.7-0.8,1.4
		c0,0.1-0.1,0.2-0.1,0.3c-0.9,0.5-1.3,1.7-2.2,2.2c-1,0.6-2,1.2-3.1,1.1c-0.1,0-0.2,0-0.3-0.1c-0.4-0.4,0-1.6-1-1.5
		c-0.5,0-1-0.2-1.5-0.1c-1.4-0.1-1.9-1.3-2.5-2.5c-0.1-0.7-0.5-0.9-1-1c-0.1-0.1-0.3-0.2-0.4-0.3c-0.2-0.4-0.6-0.7-0.7-1.2
		c-0.2-0.6-0.3-1.3-0.2-1.9c-0.1-0.2-0.2-0.5-0.2-0.7c-0.7-0.9-1.2-2-1.7-3c0-0.1,0-0.1,0-0.2c0.4-0.8-0.3-1.5-0.2-2.3l0,0
		c0.2-0.5,0.4-1.1,0-1.6c0-0.1-0.1-0.2-0.1-0.2c0.8-1.4-0.2-3,0.3-4.5c0.2-0.6-0.4-1.2,0-1.8c0-1.1-0.2-2.2,0.6-3
		c-0.1-0.9,0-1.9,0-2.8c0-0.2,0-0.4,0.2-0.5c0.3-0.8-0.1-1.8,0.3-2.6c0.5-1.1,0.6-2.4,0.6-3.7c0.1-1.7,0.4-3.4,1-4.9
		c0.2-0.6-0.2-1.1,0.1-1.6c0.5-1.7,0.9-3.4,1.4-5.1c0-0.1,0-0.1,0-0.2c-0.2-1-0.1-1.9,0.3-2.8c0.1-0.3,0.2-0.5,0.2-0.8
		c0-0.5,0.2-1,0.5-1.4c0.8-1.3,0.7-3,1.2-4.4c0.4-1.1,0.5-2.2,0.8-3.2c0.2-0.5,0.3-1,0.4-1.5c0.2-0.3,0.4-0.6,0.4-0.9
		c-0.1-2,0.9-3.7,1.1-5.6c0-0.5,0.4-0.8,0.4-1.3l0,0C300.1,44.2,299.4,43.1,299.8,42.3z"/>
	<path class="st31" d="M307.6,85.5c0-0.8,0.2-1.6-0.5-2.3c-0.3-0.3-0.1-1.1,0.2-1.6c0.4-0.6,0.8-1.2,0.1-2.1c-0.6-0.7,0-1.6,0.5-2.2
		c0.2-0.3,0.4-0.4,0.1-0.9c-0.6-1.2-0.5-1.8,0.5-2.8c0.4,0.3,0.3,0.8,0.3,1.2c-0.1,0.6,0,1.1,0.2,1.6c0,0.3,0,0.7-0.1,0.8
		c-0.6,0.7-0.8,1.3-0.4,2.3c0.4,0.9-0.2,1.7-0.3,2.6c0,1.1,0.2,2.3-0.3,3.3C307.7,85.6,307.6,85.6,307.6,85.5z"/>
	<path class="st32" d="M315.5,30.3c-0.6-1.3-1-2.6,0.4-3.7c0.4-0.3,0.2-0.8,0-1.1c-0.5-0.8-0.5-1.7-0.2-2.5c0.4-1,0.3-2,0-3
		c0.1-0.1,0.2-0.1,0.3-0.1c0.7,0.5,0.6,1.2,0.6,2c-0.1,1.5-0.1,3-0.2,4.5c0,0.4-0.3,0.6-0.5,0.9c-0.4,0.6-1,1.1-0.1,2
		c0.5,0.4,0.1,1.4,0,2.1C315.4,31.3,315.4,31.3,315.5,30.3z"/>
	<path class="st24" d="M309.9,102.6c0-0.3,0.2-0.6,0.1-0.8c-0.7-1.6-0.6-3.6-1.5-5.1c-0.4-0.7-0.5-1.6-0.6-2.4
		c0.3-0.1,0.6,0.1,0.6,0.4c-0.1,1.6,1.1,2.4,1.4,3.6c0.2,1.1,1,2,0.6,3.3c0.1,0.1,0.2,0.1,0.2,0.2c0.4,0.9,0.4,2,1.3,2.6
		c0.3,0.2,0,1.2-0.7,1.2C310.2,104.9,309.9,103.9,309.9,102.6z"/>
	<path class="st33" d="M305.3,110.7c0.3,0.7,0.1,1.1-0.2,1.8c-0.5,1.1-1.2,1.6-2.1,1.8c-0.1,0-0.2,0.1-0.3,0.2
		c-0.8,1.3-1.8,1.4-3,0.7c0-0.2,0.1-0.5,0.3-0.6c0.6-0.4,1.1-0.8,1.7-1c1.2-0.4,1.8-1.8,2.7-2.7c0.2-0.2,0.4-0.4,0.7-0.4
		C305.2,110.5,305.2,110.6,305.3,110.7z"/>
	<path class="st34" d="M310.7,56c0-1.1,0-2.2,1-2.8c0.4-0.3,0.3-1.1,0.6-1.5c0.1-0.1,0.3-0.1,0.4,0c0,0.7-0.4,1.4-0.3,2.2
		c0.1,0.5-0.5,0.6-0.9,0.8c-0.1,0.7,0.6,1.1,0.6,1.7c-0.3,0.8-0.1,1.8-0.6,2.5c-0.4,0.1-0.5-0.2-0.4-0.5
		C311.4,57.6,311,56.8,310.7,56z"/>
	<path class="st24" d="M297.8,52.8c-1,3.5-1.4,7.3-3,10.5c-0.1,0.2-0.1,0.2-0.2,0c-0.3-0.4-0.1-0.7,0.1-1c1-1.2,0.9-3,1.2-4.5
		c0.2-0.9,0.7-1.6,0.7-2.6c0.2-0.9,0.3-1.8,0.8-2.6C297.6,52.7,297.7,52.7,297.8,52.8z"/>
	<path class="st30" d="M312.8,51.7c-0.1,0-0.3,0-0.4,0c-0.7-2,0.1-4,0.2-6c0-0.6,0.5-1,0.7-1.5c1,0.2,0.2,1.1,0.4,1.5
		c-0.2,0.5-1,0.4-0.7,1.3c0.3,0.4,0.3,0.8,0.1,1.3c-0.2,0.4-0.2,0.7,0.1,1c0,0.2,0,0.4-0.1,0.5c-0.5,0.5-0.7,1-0.2,1.6
		C313,51.3,312.9,51.6,312.8,51.7z"/>
	<path class="st35" d="M311.2,105.4c0.6-0.2,0.4-1.1,0.3-1.2c-1-0.3-0.8-1.2-0.8-2c0-0.2-0.2-0.4-0.3-0.7c0.3,0,0.9,0.1,0.8,0.6
		c-0.3,1.2,0.1,1.5,1,1.6c0.4,0,0.4,0.5,0.3,1c-0.4,1.6-0.8,1.9-2.7,1.9c0,0-0.1-0.1-0.1-0.1c0-0.5,0.1-0.9,0.4-1.3
		C310.5,105,310.8,105.1,311.2,105.4z"/>
	<path class="st36" d="M290,91.3c0.3,0.7,0.4,1.4,0.1,2.2c-0.1,0.2-0.2,0.6-0.1,0.7c0.7,0.9,0.4,1.8,0.1,2.7c-0.1,0.2-0.2,0.5,0,0.7
		c0.6,0.8,0.1,1.3-0.3,1.8c-0.3-1.3,0-2.6-0.2-3.9c-0.1-0.5,0-1,0.1-1.5c0.1-0.6,0.5-1.1,0-1.7C289.5,92,289.7,91.5,290,91.3z"/>
	<path class="st24" d="M299.4,44.9c0.4,1-0.2,1.9-0.4,2.7c-0.5,1.6-0.5,3.2-0.9,4.8c0,0.2-0.2,0.3-0.2,0.4c0,0-0.1-0.1-0.1-0.1
		c-0.2-0.1-0.3-0.2-0.2-0.5c-0.1-2.1,1-4,1.2-6C298.8,45.6,299,45.2,299.4,44.9z"/>
	<path class="st5" d="M310.7,56c0.9,0.5,1.2,1.3,0.8,2.5c-0.1,0.2-0.1,0.4,0.1,0.6c0,0.5,0,1-0.2,1.5c-0.2,0.3-0.3,0.6-0.3,1
		c-0.1,0.6-0.3,0.6-0.7,0.3c0-0.4,0.1-0.7,0.3-1c0.3-0.4,0.5-0.8,0.1-1.2c-0.2-0.2-0.3-0.4-0.2-0.7C311,58,310.6,57,310.7,56z"/>
	<path class="st37" d="M314,42.7c-0.7-0.1-0.8-0.6-0.6-1.3c-0.2-0.8,0.4-1.3,0.4-2l0,0c0-1.4,0.1-1.6,1.1-1.5
		c-0.4,1.1,0,2.5-0.9,3.4c-0.2,0.2,0.5,0.6,0.2,1.1C314.2,42.5,314.2,42.8,314,42.7z"/>
	<path class="st31" d="M308.9,76.4c-0.8-0.4-1.1-1-0.6-1.9c0.1-0.2,0.1-0.6,0.2-0.8c0.3-0.4,0.5-0.8,0.6-1.3c0.2,0,0.4,0.2,0.3,0.5
		C309,74,309.3,75.3,308.9,76.4z"/>
	<path class="st38" d="M307.6,85.5c0.1,0,0.2,0,0.2,0c0,0.9,0,1.9,0.1,2.8c0,0.2,0.1,0.5-0.1,0.7c-0.4-0.1-0.8-0.2-1.2-0.4
		c0-0.4,0.1-0.6,0.3-0.8c0.2-0.2,0.4-0.4,0.6-0.6c-0.2-0.4-0.9,0-0.8-0.7C306.8,86,307.3,85.8,307.6,85.5z"/>
	<path class="st28" d="M309.7,106.7c-0.1,0.3,0.3,0.8-0.4,0.8c-0.4,0-0.9,0.4-1.1,1c0.1,0.3,0,0.6,0.1,0.9c0.1,0.4,0,0.9-0.3,1.1
		c-0.4,0.3-0.6-0.3-0.9-0.5c-0.3-0.4-0.1-0.9-0.1-1.4c0.3-1.3,1-2.2,2.2-2.4C309.4,106.2,309.5,106.4,309.7,106.7
		C309.6,106.6,309.7,106.6,309.7,106.7z"/>
	<path class="st39" d="M310.3,61.8c0.7,0,0.5-1.1,1-1.3c-0.3,1.4-0.5,2.9-0.8,4.3c-0.4,0.3-0.6,0.1-0.7-0.3c0-0.2,0.1-0.5,0-0.7
		C309.3,62.9,309.8,62.3,310.3,61.8L310.3,61.8z"/>
	<path class="st35" d="M290,101.8c0.4-0.2,0.8-0.7,0.8,0.5c0,0.9,1,1.5,0.9,2.6C290.3,104.5,289.9,103.4,290,101.8z"/>
	<path class="st7" d="M301.4,36.6c0.3,0.7,0,1.4-0.2,2c-0.4,1.2-0.6,2.5-1.3,3.5c-0.4-0.9,0.3-1.6,0.4-2.4
		C300.6,38.7,300.8,37.5,301.4,36.6z"/>
	<path class="st7" d="M302.8,30.1c-0.2,1.4-0.3,2.8-0.5,4.1c-0.2,0.8-0.5,1.6-0.8,2.4c-0.3-0.7-0.2-1.2,0.2-1.9
		c0.4-0.7,0.5-1.6,0.5-2.5C302.1,31.4,302.2,30.6,302.8,30.1z"/>
	<path class="st3" d="M294.4,109.7c0.7,1,1.1,2.3,2.3,2.5c0.1,0.6-0.3,0.7-0.6,0.8c-0.5-0.1-0.9-0.5-1.3-0.8
		c-0.2-0.4-0.3-0.8-0.6-1.1C293.8,110.5,294.1,110.1,294.4,109.7z"/>
	<path class="st8" d="M291.6,78.6c0.2,0.3,0.4,0.7,0.3,1.2c-0.4,1.7-0.8,3.5-1.1,5.2c-0.3-1.4,0-2.7,0.5-3.9c0.2-0.4,0.1-0.8,0-1.2
		C291.1,79.4,291.3,79,291.6,78.6z"/>
	<path class="st23" d="M294.8,112.2c0.4,0.1,0.8,0.5,1.3,0.5c0.4,0.2,0.7-0.3,1.1-0.3c0.6-0.1,1.2-0.2,1.2,0.8
		c-0.6-0.3-0.8,0.6-1.4,0.6C296,113.7,295.3,113.2,294.8,112.2z"/>
	<path class="st38" d="M309.1,72.2c-0.5-0.7-0.9-1.4-0.9-2.3c0.3-0.8,0.8-1.5,1.2-2.2c0.5-0.1,0.6,0.2,0.5,0.7
		c-0.1,0.4-0.3,0.8-0.4,1.2c-0.5,0.4-0.7,0.8-0.3,1.4C309.4,71.4,309.8,71.9,309.1,72.2z"/>
	<path class="st1" d="M314.9,37.9c-0.5,0.4-1,0.7-1.1,1.5c-0.5-1.3-0.1-2.5,0.2-3.8c0.3,0.2,0.5,0.4,0.2,0.8
		C314.3,37,315.1,37.2,314.9,37.9z"/>
	<path class="st40" d="M294.1,67.1c0,0.3,0.1,0.7,0,1c-0.5,1.1-0.8,2.3-1,3.5c-0.1,0.3-0.2,0.5-0.4,0.6
		C292.9,70.3,293.1,68.5,294.1,67.1z"/>
	<path class="st40" d="M294.6,63.3c0.1,0,0.1,0,0.2,0c-0.4,1.1-0.4,2.4-0.6,3.5c-0.3-0.1-0.5-0.2-0.4-0.7
		C294,65.2,294,64.2,294.6,63.3z"/>
	<path class="st32" d="M314.3,36.4c-0.1-0.3-0.2-0.5-0.2-0.8c0.5-0.2,0.8-0.6,1.1-1c0.2-0.3-0.4-0.7,0-1
		C315.8,34.6,315.5,35.8,314.3,36.4z"/>
	<path class="st41" d="M315.5,30.3c0.1,0.4,0.2,0.7,0.3,1.1c-0.2,0.6,0.2,1.4-0.5,1.7c-0.2-0.4-0.3-1-0.6-1.3
		C315,31.3,315.1,30.7,315.5,30.3z"/>
	<path class="st2" d="M314,42.7c0.1-0.1,0.2-0.2,0.3-0.3c-0.1,1.1-0.2,2.2-0.6,3.3c-0.4-0.4-0.1-1.1-0.4-1.5
		C313.5,43.7,313.8,43.2,314,42.7z"/>
	<path class="st3" d="M314.7,31.8c0.5,0.2,0.8,0.6,0.6,1.3c-0.1,0.1-0.1,0.3-0.2,0.4c0,0.3,0.2,0.7,0,1
		C314.3,33.8,315,32.7,314.7,31.8z"/>
	<path class="st42" d="M307.3,109.6c0.6,0.4,1.1,0.7,0.8-0.6c0-0.2,0.1-0.4,0.2-0.7c0.8,0.6,0.1,1.2,0,1.8c-0.1,0.7-0.6,0.8-1.1,0.7
		c-0.2-0.3-0.2-0.6,0-1C307.2,109.8,307.2,109.7,307.3,109.6z"/>
	<path class="st43" d="M307.3,109.9c-0.1,0.3-0.1,0.7-0.2,1c-0.6-0.4-1.2-0.6-1.8-0.2c-0.1,0-0.2,0-0.2,0c-0.3-0.6,0.1-0.7,0.4-0.9
		c0.2-0.1,0.3-0.2,0.5-0.3C306.6,109.1,306.9,109.5,307.3,109.9z"/>
	<path class="st12" d="M298.4,113.2c-0.3-0.6-0.7-0.9-1.3-0.5c-0.3,0.2-0.6,0.4-0.9,0c0.2-0.2,0.4-0.3,0.6-0.5c0.5-0.3,1-0.1,1.5,0
		c0.4,0.2,0.9,0.4,0.4,1.1C298.5,113.3,298.4,113.2,298.4,113.2z"/>
	<path class="st14" d="M293.6,109.7c-0.1-0.3-0.2-0.6-0.3-1c0.5,0.1,0.8,0.6,1.1,1c-0.1,0.5-0.1,1-0.2,1.4
		C293.5,110.9,294.1,109.9,293.6,109.7z"/>
	<path class="st2" d="M313.3,49.2c-0.9-0.6-0.2-1.5-0.2-2.3c0.6,0,0.7,0.4,0.5,1C313.4,48.4,313.2,48.7,313.3,49.2z"/>
	<path class="st35" d="M297.5,52.2c0.1,0.2,0.1,0.3,0.2,0.5c-0.3,0.8-0.7,1.7-1,2.5C296.8,54.2,296.6,53,297.5,52.2z"/>
	<path class="st3" d="M298.5,113.3c0-0.4-0.2-0.8-0.4-1.1c1.3-0.3,1.2,0.7,1.1,1.7c-0.4,0.3-0.5-0.2-0.6-0.5
		C298.5,113.4,298.5,113.3,298.5,113.3z"/>
	<path class="st8" d="M290.6,85.5c0.2,0.9,0.4,1.9,0,2.8C290.2,87.3,290.1,86.4,290.6,85.5z"/>
	<path class="st44" d="M309.4,69.6c-0.2-0.6,0.6-1.1,0-1.7c-0.2-0.4,0-0.6,0.3-0.7c0.1-0.1,0.2-0.2,0.4-0.3
		C310.3,67.9,310.1,68.8,309.4,69.6z"/>
	<path class="st6" d="M309.9,64.3c0.2,0.3,0.4,0.5,0.6,0.5c0.1,0.6-0.3,1-0.3,1.5c-0.5-0.6-0.9-1.1-0.6-2
		C309.8,64.2,309.8,64.3,309.9,64.3z"/>
	<path class="st24" d="M299.8,42.3c0.1,0.9,0.5,1.9-0.4,2.6C299.8,44.1,298.9,43,299.8,42.3z"/>
	<path class="st45" d="M312.2,56.5c-0.1-0.6-1.5-0.6-0.6-1.7C312.2,55.2,312.3,55.8,312.2,56.5z"/>
	<path class="st11" d="M298.6,113.4c0.2,0.2,0.4,0.3,0.6,0.5c0.1,0,0.1,0,0.2,0.1c0.4,0.1,0.8,0.2,0.7,0.9c-0.1,0.1-0.3,0.2-0.4,0.3
		C299.2,114.7,298.6,114.3,298.6,113.4z"/>
	<path class="st46" d="M289.8,99.3c0.2,0.7,1.1,1.4,0.2,2.3C289.9,100.9,289.4,100.2,289.8,99.3z"/>
	<path class="st7" d="M306.1,109.9c-0.1,0.1-0.3,0.2-0.4,0.2c-0.5-0.5-0.8,0.5-1.3,0.3c-0.2-0.8-0.1-1.1,0.6-1.5
		c1.2-0.6,2.3-1.6,2.8-3.1c0.2-0.6,0.7-0.8,1.1-1c0.7-0.4,1-0.8,0.7-1.7c-0.1-0.2,0-0.4,0.2-0.5c0,1.2,1.1,1.7,1.3,2.8
		c-0.3,0.1-0.7,0.2-1,0.3c-0.4,0.1-0.5,0.6-0.9,0.8c-0.7,0.6-1.8,0.8-1.7,2.2C307.4,109.6,306.4,109.2,306.1,109.9z"/>
	<path class="st3" d="M300.1,114.9c-0.3-0.3-0.6-0.5-0.7-0.9c0.7-0.3,1.4-0.8,2.2-0.9c0.5,0,0.8-0.5,1.1-0.9
		c0.5-0.7,1.1-1.2,1.7-1.5c0.1,0.1,0.1,0.1,0.1,0.2c0,0.1,0,0.1,0,0.1c-0.5,1.3-0.8,2.7-2.3,2.9C301.4,113.9,300.9,115,300.1,114.9z
		"/>
	<path class="st31" d="M309.7,67.1c-0.1,0.2-0.2,0.5-0.3,0.7c-0.4,0.7-0.5,1.6-1.3,2C308.2,68.5,308.9,67.8,309.7,67.1z"/>
	<path class="st5" d="M309.9,64.3c-0.1,0-0.1,0-0.2,0c-0.3-1-0.6-2,0.6-2.5c-0.2,0.5-0.8,1-0.2,1.7C310.2,63.6,310,64,309.9,64.3z"
		/>
	<path class="st1" d="M313.9,39.4c0.2,0.3,0.5,0.5,0.1,0.9c-0.3,0.3-0.3,0.8-0.5,1.1C313.1,40.6,313.2,39.9,313.9,39.4z"/>
	<path class="st5" d="M304.4,110.9c0-0.1,0-0.2,0-0.3c0-0.1,0-0.2,0-0.2c0.9-0.9,0.9-0.9,1.3-0.3c-0.2,0.3-0.6,0.2-0.7,0.5
		C304.9,110.9,304.7,110.9,304.4,110.9z"/>
	<path class="st7" d="M309.3,106.4c0-0.6,0.4-0.8,0.9-0.8c0.5,0.8-0.3,0.7-0.5,1C309.4,106.7,309.3,106.7,309.3,106.4z"/>
	<path class="st5" d="M306.1,109.9c0-1.2,1.1-0.6,1.5-1.2c-0.1,0.3-0.2,0.6-0.3,1c0,0.1,0,0.2,0,0.2
		C306.9,109.8,306.5,109.8,306.1,109.9z"/>
	<path class="st47" d="M371.9,155.9c0-0.1,0-0.2,0-0.2c0.1-0.4,0.4-0.6,0.7-0.7c1.4-0.3,2.8-0.4,4.2-0.3c0.2,0,0.3,0.2,0.4,0.3
		c-0.1,0.4-0.5,0.5-0.8,0.8C374.9,155.8,373.4,155.9,371.9,155.9z"/>
	<path class="st1" d="M377.2,155c-1.7,0.6-3.5,0.2-5.3,0.7c-1.8-1.3-2.1-2.4-1.5-4.1c1-3.1,2.3-6,3.5-9c0.3-0.7,0.6-1.4,0.9-2.2
		c0.4-0.7-0.2-1.6,0.8-2.1l0,0c0.1-1,0.2-2,1.2-2.6c0.2-0.5-0.2-1.1,0.3-1.5c0.6-1.3,0.8-2.7,1.9-3.8c0.5-1.6,1.4-3,1.9-4.6
		c0.5-1.5,1.6-2.9,1.9-4.4c0-0.2,0-0.5,0.1-0.6c0.3-0.3,0.9-0.6,0.5-1c-0.4-0.4-0.9,0-1.4,0.2c-2,1-4,0.3-6,0.4
		c-1.1,0.4-2-0.1-3-0.3c-0.6-0.1-1.1-0.3-1.8-0.3c-0.8-1.1-2-1.5-3.3-1.7c-0.7-0.1-1-0.5-1.3-0.9c-0.2-0.3-0.4-0.6-0.8-0.7
		c-1.3-0.6-2.6-1.2-3.5-2.4l0,0c-1-0.9-2.3-1.4-3.2-2.4c-1-1.1-2-2.2-3-3.3c-1.2-1.5-2.5-3-3.5-4.7c-1.1-1.8-2-3.6-2.4-5.6
		c-0.6-2.3,0.1-4.5,1.1-6.6c0.2-0.3,0.3-0.6,0.5-0.9c1.3-3,4-4.2,7.4-3.3c1.3-0.3,2.4,0.3,3.4,0.9l0,0c0.3,0.7,0.8,1.1,1.7,1.2
		c0.3,0.9,0.9,1.6,1.8,2.2c0.5,1.5,1.4,2.7,2.4,4c0.1,0.2,0.3,0.4,0.3,0.6c-0.5,1.2,1,1.8,1,2.8c0,0.1,0.1,0.2,0.1,0.2
		c1.5,0.1,1.3,1.5,2.1,2.2c0.2,0.2,0.5,0.3,0.7,0.5c0.6,0.4,1,0.9,1.2,1.6c0.2,0.5,0.5,0.9,1.1,1.2c0.1,0.9,1,1.1,1.6,1.7
		c0.4,1,1.3,1.7,2.4,2c0.7,0.3,0.1,0.9,0.4,1.4c0.5,0.1,0.8-0.8,1.4-0.1c0.3,0.6,0.5,1.3,1.5,1.3c0.8,0,0.9,1.2,1.9,1.1
		c0.1,0.1,0.2,0.2,0.3,0.2c0.4,0.5,0.3,1.2,0.4,1.7l0,0c0.4,0.2,0.5,0.8,1.1,0.5c0-0.8,0.4-1.4,0.8-2c0.1-1,0.3-2.1,1.3-2.8
		c0.3-0.8,0.7-1.7,1-2.5c0.1-1.3,0.7-2.3,1.3-3.5c0.7-1.6,1.8-3,1.8-4.8c0.3-1,0.4-2,1.3-2.8c0.4-0.3-0.1-0.7,0.2-1.1
		c-0.1-0.6-0.1-1.2,0.3-1.7c0.8-0.6,0.9-1.5,1-2.3c0.2-0.7,0-1.4,0.5-2.1c0.6-2.2,1.2-4.4,0.9-6.7c-0.1-0.5,0-1,0.2-1.5
		c-0.1-0.3-0.1-0.6-0.6-0.7c-0.2,0-0.4,0.1-0.6,0.3c-0.7,0.3-1.1,1-1.6,1.6c-0.1,0.1-0.2,0.1-0.3,0.2c-0.9,0.2-1,1.1-1.6,1.6l0,0
		c-0.2,0.2-0.4,0.4-0.7,0.4c-1,0.2-1.1,0.9-1.3,1.6c-1.5,1.6-2.8,3.2-3.9,5.1c-0.3,0.6-0.9,1.1-1.1,1.7c-0.9,0.7-1.5,1.6-2,2.4
		c-0.8,1.2-1.9,0.8-2.9,0.9c-0.3,0-0.6-0.1-0.9,0.1c-0.1,0-0.2,0.1-0.2,0.1c-0.3,0.3-0.8,0.4-1.2,0.3c-1.3-0.5-2.7,0.3-4,0
		c-0.7-0.1-1.2-0.3-1.5-0.9c-0.2-0.4-0.5-0.9-1.1-1.1c-0.2-0.1-0.4-0.3-0.4-0.5c-0.4-1.1-0.7-2.2-0.6-3.4c-0.3-0.6,0.6-0.9,0.5-1.5
		c-0.3-0.3-0.3-0.7,0-1c0.7-1.3,1.9-2.3,2.5-3.6c0.1-0.1,0.2-0.2,0.3-0.3c1.1-1.1,2.2-2.1,2.9-3.4c1.3-1.1,2.2-2.7,3.7-3.7
		c0.3-0.2-0.1-0.6,0.3-0.8c1-0.5,1.6-1.4,2.4-2.1c1.8-1.8,4.1-3.1,6.1-4.7c1.7-1.3,3.8-1.7,5.7-2.7c1.4-0.7,3.3-0.5,5,0
		c5.3,1.4,8.2,4.1,8.8,9.7c0.3,2.3-0.2,4.6-0.1,6.9c0,2.7-0.9,5.2-0.9,7.8c0,0.5-0.4,1.1-0.6,1.6c-0.2,0.5-0.4,0.9-0.3,1.5
		c-0.1,0.6,0.3,1.2-0.7,1.6c-0.5,0.2-0.1,0.9-0.3,1.3c-0.1,0.1-0.2,0.2-0.3,0.3c0.1,1.1-0.3,2-1,2.8c0.2,0.6,0.1,1.2-0.5,1.7
		c-0.9,0.8-0.6,2-1.2,2.9c-0.9,1.5-0.8,3.5-2.2,4.8c-0.6,0.5,0.1,1.1-0.3,1.7c-1,1.4-1.7,2.9-2.6,4.4c0.2,0.6,0.1,1.2-0.3,1.6
		c-0.6,0.5-0.7,1.2-0.9,1.8c0.1,0.4-0.3,0.5-0.5,0.8c-0.1,1-0.9,1.8-1.1,2.8c0,0.2,0,0.3,0,0.5c-0.6,0.8-1.2,1.5-1.5,2.4
		c0,1.2-0.7,2.2-1.5,3.1c0.2,0.9-0.5,1.6-0.9,2.4c-0.3,0.6-0.5,1.1-0.7,1.7c-0.5,1.7-1.5,3.3-2.3,4.8c-0.5,0.9-1.1,1.9-1.6,2.9
		c-0.5,1-0.5,2.2-1.6,2.9c0,0.8-0.1,1.6-1,2c-0.3,0.1-0.3,0.3-0.3,0.5c-0.1,0.6-0.4,1.4-0.9,1.8c-0.6,0.4-0.5,0.8-0.4,1.3
		c-1,0.9-1.8,1.8-2.2,3.1c-0.5,0.6-0.6,1.5-1.7,1.8C377.9,153.5,377.4,154.4,377.2,155z"/>
	<path class="st41" d="M370.3,90.2c0.5,1.6,0.6,3.3,2.1,4.6c0.9,0.8,1.8,1.3,3.2,1c0.7-0.2,1.5-0.7,2.2,0c0.1,0.4-0.2,0.5-0.6,0.4
		c-0.4,0-0.7-0.1-1.1,0.1c-2,0.6-3.2,0.2-4.1-1.4c0-0.1-0.1-0.2-0.1-0.2c-2.1-0.6-1.5-2.4-2-3.7C369.8,90.6,370,90.5,370.3,90.2z"/>
	<path class="st12" d="M372.1,102.2c-1,0-0.9-0.8-1-1.4c-0.1-0.6-0.3-0.9-0.9-1.4c-0.8-0.6-1.8-1.3-1.6-2.5c0.2-1.3-0.9-2-1.5-2.8
		c-0.6-0.8-0.8-1.6-1-2.5c1,1.8,2.7,3.3,3,5.5c0.1,0.4,0.5,1.8,1.7,1.9c0.7,0.1,0.4,0.6,0.5,1C371.9,100.7,372.4,101.3,372.1,102.2z
		"/>
	<path class="st27" d="M379.4,95.8c0.3-0.6,0.8-0.5,1.3-0.4c1.4,0.1,2.1-0.7,2.8-1.6c0.4-0.5,0.7-1.3,1.7-1.4c-0.7,1-1.4,2-2.1,3
		c-0.2,0.3-0.6,0.6-1,0.5c-0.1,0-0.4-0.1-0.4-0.1C380.9,97.6,380.2,95.6,379.4,95.8z"/>
	<path class="st38" d="M373.2,84.1c0.4,0.7-0.4,1.1-0.7,1.6c-0.4,0.7-0.9,1.3-1.4,2c-0.4,0-0.5-0.3-0.6-0.5
		C371.5,86.2,372.2,85,373.2,84.1z"/>
	<path class="st20" d="M362.5,114c1.2,0.7,2.2,1.7,3.6,2.1c0.5,0.1,0.7,0.5,0.7,1c-1.3-0.6-2.5-1.3-3.7-2.1
		C362.7,114.8,362.5,114.5,362.5,114z"/>
	<path class="st40" d="M390.1,132.3c-0.5-1,0.4-1.6,0.7-2.4c0.2-0.6,0.6-1.1,0.9-1.7c0.3,0.4,0.4,0.7,0.2,1.2
		C391.2,130.4,390.7,131.4,390.1,132.3z"/>
	<path class="st5" d="M384.4,111.8c-0.4,0.2-0.7,0.2-1-0.1c-0.4-0.5-0.9-0.7-1.6-0.9c-0.8-0.2-0.7-0.8-0.8-1.4
		C381.9,110.5,383.4,110.8,384.4,111.8z"/>
	<path class="st21" d="M376.4,80.5c-0.3,1.6-1.5,2.6-2.9,3.4C374.4,82.7,375.3,81.5,376.4,80.5z"/>
	<path class="st14" d="M362.8,88.2c-1.1-0.3-2.3-0.6-3.4-0.9C360.7,86.7,361.7,87,362.8,88.2z"/>
	<path class="st27" d="M379.8,151.6c-0.1-0.1-0.3-0.4-0.2-0.4c0.8-0.9,1-2.2,2.4-2.7C381.3,149.6,380.6,150.6,379.8,151.6z"/>
	<path class="st41" d="M396.3,118.8c-0.1-0.8,0.1-1.5,0.8-2.1c0.3-0.3,0.3-0.8,0.5-1.3c0.5,0.1,0.5,0.3,0.3,0.7
		C397.4,117,397.1,118,396.3,118.8z"/>
	<path class="st48" d="M372.1,102.2c-0.5-0.6-0.7-1.3-0.6-2.1c0.7,0.4,1.2,1,1.4,1.8C372.7,101.9,372.4,102,372.1,102.2z"/>
	<path class="st32" d="M394.7,122.3c-0.2-1.1,0.5-1.9,1.1-2.8C396.3,120.7,395.4,121.5,394.7,122.3z"/>
	<path class="st36" d="M359.3,111.7c1.1,0.7,2.5,1.2,3.2,2.4C361.1,113.6,360.1,112.7,359.3,111.7z"/>
	<path class="st49" d="M376.1,96.4c0.5-0.2,1.1-0.4,1.6-0.6c0.5,0,0.9,0,1.4,0c0,0.7-0.5,0.9-1.2,0.8
		C377.4,96.5,376.7,96.5,376.1,96.4z"/>
	<path class="st15" d="M386.1,114.3c-0.1,0.2-0.1,0.4-0.2,0.6c-0.1,0.4-0.4,0.6-0.8,0.5c-0.5-0.1-0.3-0.5-0.3-0.8
		c0.1-0.2,0.1-0.5,0.1-0.7C385.5,113.7,385.8,114,386.1,114.3z"/>
	<path class="st39" d="M384.6,142.9c0.6-0.9,0.7-2.1,1.6-2.9C386,141.2,386.1,142.4,384.6,142.9z"/>
	<path class="st14" d="M379.2,108.2c-1.3-0.1-2.5-0.5-2.5-1.9c0.1-0.1,0.2-0.1,0.3,0C377.5,107.1,378.4,107.6,379.2,108.2z"/>
	<path class="st14" d="M364.5,89.5c-1.8,0.3-1.9,0.2-1.7-1.2C363.6,88.3,363.8,89.2,364.5,89.5z"/>
	<path class="st32" d="M393.2,125.2c0.1-1,0.4-1.9,1.5-2.4C394.6,123.8,393.8,124.4,393.2,125.2z"/>
	<path class="st50" d="M370.6,87.2c0.2,0.2,0.4,0.4,0.6,0.5c-0.3,0.3-0.4,0.6-0.4,1C369.5,88.5,369.5,88.4,370.6,87.2z"/>
	<path class="st32" d="M382.8,73.9c-0.6,0.9-1.1,1.9-2.4,2.1C381.2,75.3,381.7,74.3,382.8,73.9z"/>
	<path class="st17" d="M377,106.2c-0.1,0-0.2,0-0.3,0c-0.7-0.4-1.8-0.5-1.4-1.7C375.6,105.3,376.6,105.5,377,106.2z"/>
	<path class="st15" d="M385,113.8c-0.6-0.5-0.5-1.1-0.4-1.7C385.3,112.5,385.8,113,385,113.8z"/>
	<path class="st3" d="M396.4,79.6c-0.3,0.2-0.7,0.3-1.1,0.3c-0.2-0.6,0.3-0.9,0.7-1C396.5,78.8,396.3,79.3,396.4,79.6z"/>
</g>
</svg>
